<?xml version="1.0" standalone="no"?>
<!DOCTYPE svg PUBLIC "-//W3C//DTD SVG 20010904//EN"
 "http://www.w3.org/TR/2001/REC-SVG-20010904/DTD/svg10.dtd">
<svg version="1.0" xmlns="http://www.w3.org/2000/svg"
 width="736.000000pt" height="736.000000pt" viewBox="0 0 736.000000 736.000000"
 preserveAspectRatio="xMidYMid meet">

<g transform="translate(0.000000,736.000000) scale(0.100000,-0.100000)"
fill="currentColor" stroke="none">
<path d="M3738 7334 c-92 -22 -209 -72 -223 -94 -3 -6 -40 -33 -80 -60 -41
-27 -113 -87 -162 -133 -48 -46 -96 -86 -105 -90 -10 -3 -27 4 -45 21 -73 70
-97 81 -261 122 -241 59 -322 55 -488 -25 -64 -31 -104 -59 -140 -95 -27 -29
-80 -77 -119 -107 -126 -100 -164 -155 -225 -329 -43 -124 -35 -117 -111 -98
-123 32 -385 5 -505 -52 -53 -25 -116 -90 -177 -181 -50 -74 -56 -88 -61 -150
-4 -37 -11 -98 -18 -135 -14 -83 -5 -244 17 -318 10 -30 18 -71 19 -90 l1 -35
-65 -5 c-36 -3 -105 -2 -155 3 -131 12 -175 4 -284 -50 -76 -37 -110 -62 -172
-124 -90 -90 -137 -177 -190 -349 -28 -90 -32 -120 -32 -210 0 -150 56 -338
121 -408 17 -19 32 -41 32 -49 0 -25 -70 -135 -123 -193 -53 -58 -118 -180
-143 -271 -9 -31 -18 -117 -21 -201 -5 -134 -4 -152 15 -200 12 -29 29 -89 38
-133 25 -125 54 -165 136 -185 26 -7 54 -20 64 -31 16 -18 14 -22 -26 -84 -24
-36 -55 -103 -70 -148 -15 -45 -46 -122 -68 -172 -49 -108 -67 -202 -58 -304
12 -156 48 -231 146 -308 70 -55 138 -88 220 -107 36 -9 121 -32 190 -52 130
-39 151 -40 400 -31 59 3 61 -11 17 -121 -20 -49 -41 -124 -48 -171 -16 -112
-7 -270 20 -341 11 -30 27 -87 35 -126 31 -153 119 -295 212 -340 60 -29 257
-64 364 -64 134 0 294 39 497 121 67 27 129 46 138 43 18 -7 21 -19 34 -146
12 -117 66 -285 121 -379 91 -154 260 -272 412 -289 87 -10 141 -25 173 -46
14 -11 63 -14 192 -14 l172 0 85 86 c47 48 113 126 146 175 41 59 67 89 80 89
19 0 26 -7 83 -94 73 -112 254 -185 426 -173 79 6 114 21 345 146 116 63 159
98 207 167 16 24 38 44 47 44 10 0 56 -20 103 -44 47 -24 111 -49 142 -56 55
-13 59 -12 124 18 38 17 88 36 113 42 104 28 234 103 306 178 47 49 141 271
158 373 9 53 22 60 92 49 156 -24 208 -30 253 -30 96 0 311 79 410 151 54 39
97 107 112 177 9 44 8 75 -5 158 -9 56 -16 161 -16 232 0 157 7 170 101 196
84 24 274 122 303 157 53 63 96 231 96 376 0 66 -5 98 -24 146 -51 128 -60
182 -48 261 20 121 30 144 89 204 96 97 177 238 201 347 38 176 46 245 35 322
-21 154 -76 244 -216 352 -105 82 -105 82 -56 185 l42 88 8 196 c4 108 12 215
18 237 13 49 2 94 -44 185 -44 87 -114 151 -255 232 -140 80 -180 94 -295 103
-113 9 -321 58 -317 75 2 7 16 32 33 57 85 123 143 309 143 458 0 111 -28 380
-49 472 -23 99 -104 259 -162 320 -91 96 -211 143 -363 143 -101 0 -156 -15
-256 -70 -43 -24 -81 -39 -91 -36 -10 3 -31 27 -48 53 -42 66 -83 111 -127
139 -130 82 -408 133 -575 105 -55 -10 -89 -23 -145 -58 -71 -44 -140 -64
-164 -46 -6 4 -31 42 -55 83 -50 85 -167 209 -249 262 -67 44 -230 128 -245
127 -5 0 -54 -12 -107 -25z m142 -32 c58 -29 46 -45 -40 -49 -43 -2 -103 -14
-145 -28 -84 -29 -135 -33 -135 -9 0 18 88 60 179 85 85 22 99 22 141 1z m163
-117 c55 -23 114 -80 165 -160 25 -38 64 -94 88 -123 29 -35 41 -58 37 -70 -4
-9 -50 -60 -103 -112 -116 -115 -142 -161 -215 -383 -61 -186 -79 -266 -100
-462 -9 -77 -20 -165 -25 -195 -12 -77 -12 -352 1 -430 9 -58 24 -193 31 -290
3 -32 1 -35 -21 -32 -41 4 -48 18 -65 130 -10 59 -21 121 -26 137 -7 27 -8 25
-10 -20 -1 -27 -5 -59 -10 -70 -7 -19 -9 -18 -19 8 -6 16 -11 38 -11 50 -1 12
-9 63 -19 112 -15 74 -17 129 -15 300 2 141 0 197 -6 170 -5 -22 -9 -61 -9
-88 -1 -41 -4 -49 -26 -57 -22 -8 -25 -15 -25 -62 0 -29 9 -120 20 -202 28
-216 36 -356 20 -356 -31 0 -92 25 -101 41 -6 12 -4 42 6 89 10 49 15 135 15
284 1 200 -1 218 -24 292 -13 44 -29 116 -35 160 -5 45 -39 178 -75 295 -35
118 -81 268 -101 334 -20 66 -64 179 -97 250 -76 165 -77 167 -41 190 15 10
66 55 113 100 93 89 144 121 212 131 23 3 77 16 118 29 111 35 107 34 215 30
60 -2 115 -10 138 -20z m-1419 -104 c27 -10 13 -17 -76 -35 -88 -18 -124 -20
-133 -7 -17 28 157 63 209 42z m232 -52 c122 -17 180 -43 249 -113 72 -72 114
-150 183 -336 132 -355 142 -406 142 -687 0 -113 6 -263 14 -332 8 -69 19
-170 25 -224 6 -54 23 -155 37 -223 30 -144 27 -154 -42 -154 -43 0 -43 0 -72
63 -16 34 -35 79 -41 99 -7 20 -19 42 -27 48 -18 16 -18 22 11 -88 28 -103 30
-128 15 -137 -25 -15 -61 31 -129 165 -79 156 -143 262 -270 450 -102 151
-169 240 -182 240 -17 0 -10 -15 38 -80 215 -296 473 -770 473 -871 0 -17 -5
-19 -42 -13 -67 11 -129 47 -214 126 -43 40 -113 102 -154 138 -41 35 -105 92
-142 127 -65 62 -88 75 -88 51 0 -14 114 -126 301 -295 73 -67 144 -131 157
-143 25 -24 29 -71 7 -90 -17 -14 -16 -14 -126 67 -57 42 -104 88 -138 134
-37 49 -73 83 -124 117 -112 73 -284 250 -343 352 -27 47 -67 108 -89 135 -99
122 -228 385 -280 572 -24 86 -17 314 14 427 46 171 128 294 230 345 62 32
210 81 242 81 12 0 53 11 92 24 112 38 152 42 273 25z m2211 -118 c121 -18
240 -97 300 -199 97 -165 56 -430 -127 -812 -48 -102 -110 -232 -137 -290 -27
-58 -85 -157 -128 -220 -43 -63 -108 -158 -144 -212 -71 -104 -207 -258 -229
-258 -24 0 -23 28 3 80 16 31 25 64 23 82 -3 28 -7 24 -47 -53 -65 -124 -147
-231 -174 -227 -43 6 -38 26 118 475 36 105 55 175 53 195 l-4 33 -16 -35
c-10 -19 -49 -129 -89 -245 -78 -232 -137 -368 -163 -378 -41 -16 -90 38 -88
95 3 55 -7 86 -19 67 -5 -8 -9 -25 -9 -38 0 -49 -33 -142 -60 -169 -42 -42
-68 -84 -101 -164 -45 -108 -45 -102 0 -143 23 -21 41 -42 41 -49 0 -6 -16
-28 -35 -50 -39 -43 -41 -49 -20 -66 21 -18 70 -3 105 32 36 36 37 41 5 82
-25 32 -32 71 -17 92 9 14 87 44 112 44 17 0 20 7 20 46 0 41 2 45 21 42 12
-2 27 -11 32 -20 15 -22 -6 -68 -31 -68 -36 0 -57 -133 -27 -164 45 -44 84
-27 125 54 17 33 35 60 40 60 13 0 23 -65 15 -97 -3 -16 -20 -48 -36 -72 -33
-50 -36 -76 -14 -128 12 -29 13 -43 5 -63 -13 -31 1 -77 26 -87 32 -12 83 27
111 86 15 31 28 58 29 60 2 2 17 -13 34 -32 17 -20 44 -39 60 -42 43 -9 45
-22 6 -35 -43 -14 -86 -47 -86 -66 0 -7 11 -16 25 -20 29 -7 45 -31 45 -67 0
-40 12 -39 31 4 l18 40 53 -3 c48 -3 53 -5 53 -27 0 -21 -9 -27 -65 -47 -62
-21 -65 -24 -68 -57 -3 -39 24 -67 65 -67 28 0 37 -14 18 -30 -23 -19 -18 -38
14 -55 40 -20 46 -33 26 -55 -17 -19 -16 -30 7 -62 18 -25 -8 -48 -63 -55 -63
-8 -118 -38 -119 -65 0 -4 7 -14 16 -23 13 -13 29 -15 78 -10 39 4 77 1 106
-7 41 -13 45 -17 48 -48 2 -20 14 -46 29 -62 l25 -26 -27 -36 c-31 -41 -27
-40 -80 -25 -38 11 -41 10 -67 -21 -23 -28 -31 -32 -57 -27 -26 5 -33 2 -48
-23 -24 -42 -40 -44 -58 -9 -18 35 -27 32 -61 -23 -15 -23 -50 -55 -84 -76
-83 -52 -81 -83 5 -60 73 20 79 11 81 -118 2 -88 -1 -115 -16 -144 -30 -58
-70 -85 -102 -68 -41 21 -6 88 37 72 13 -5 16 -2 13 12 -3 15 -11 18 -38 16
-68 -5 -103 -3 -131 9 -16 6 -29 15 -29 19 0 8 65 26 124 34 44 6 56 18 56 59
0 17 -5 27 -15 27 -31 0 -129 -44 -192 -86 -36 -24 -71 -44 -79 -44 -34 0 -20
76 20 109 17 14 22 41 7 41 -4 0 -20 -9 -33 -20 l-25 -19 -23 24 c-22 23 -22
26 -7 43 10 10 17 24 17 30 0 14 -29 16 -49 3 -18 -11 -41 -3 -41 14 0 8 11
23 26 34 33 26 32 35 -8 41 -62 9 -36 80 29 80 14 0 23 6 23 15 0 11 -11 15
-42 15 -39 0 -47 -5 -103 -64 l-60 -64 -65 -5 c-74 -5 -128 15 -156 58 -20 31
-13 62 32 135 41 67 44 97 8 110 -19 8 -34 5 -64 -10 -66 -34 -133 -23 -111
18 15 28 14 32 -7 32 -11 0 -27 -9 -37 -20 -20 -22 -50 -26 -61 -9 -9 16 74
98 119 116 20 8 37 21 37 29 0 19 -47 29 -76 15 -14 -6 -40 -11 -58 -11 -19 0
-45 -9 -60 -21 -23 -18 -25 -25 -20 -61 6 -37 5 -40 -16 -36 -19 2 -26 13 -36
52 -7 27 -22 62 -33 77 -30 41 -27 53 13 46 41 -7 69 18 64 55 -3 21 -8 23
-62 25 -65 2 -146 28 -146 47 0 7 11 23 25 36 29 28 31 37 8 62 -21 24 -64 23
-91 -2 -27 -26 -28 -46 -2 -62 21 -13 26 -55 11 -93 -5 -12 -3 -30 5 -47 14
-26 13 -28 -11 -34 -38 -9 -53 1 -65 45 -20 76 -83 58 -107 -31 -6 -24 -22
-59 -35 -78 -24 -36 -110 -100 -134 -100 -24 0 -16 48 12 72 17 15 24 31 22
48 -4 37 9 50 41 44 36 -8 61 24 61 79 0 50 13 73 53 93 18 9 42 26 55 37 22
21 30 57 12 57 -5 0 -10 -4 -10 -10 0 -15 -59 -42 -79 -35 -30 9 -56 44 -44
56 8 8 17 8 30 0 14 -7 31 -7 56 1 37 11 37 11 37 68 0 31 -5 71 -11 89 -10
28 -8 40 15 90 14 32 26 70 26 84 0 29 51 72 75 63 22 -8 18 -26 -11 -57 -24
-25 -24 -27 -8 -43 20 -21 32 -17 58 17 18 25 19 31 6 97 -13 67 -21 82 -35
60 -9 -14 -37 -12 -73 6 -29 14 -32 20 -32 60 0 41 -3 46 -31 56 -23 8 -29 16
-27 32 2 16 12 22 43 26 22 3 52 13 65 23 30 21 88 23 96 3 3 -8 8 -35 12 -61
l7 -48 65 -19 c116 -35 136 -35 167 3 48 56 87 90 133 115 l45 24 -53 -2 c-64
-2 -80 11 -64 47 12 25 15 26 66 20 41 -5 61 -3 87 10 64 33 99 65 99 91 0 20
4 25 21 22 12 -2 26 -11 30 -20 5 -10 13 -26 17 -35 5 -10 22 -24 38 -31 16
-8 38 -28 49 -45 42 -63 82 -61 99 6 7 28 6 41 -8 62 -17 25 -17 26 28 70 24
25 50 45 58 45 13 0 67 60 85 95 6 11 13 90 16 175 4 95 15 194 27 255 30 144
33 165 27 165 -21 0 -57 -139 -87 -335 -15 -98 -22 -122 -40 -137 -65 -53 -73
-16 -67 297 5 214 10 286 30 405 14 80 28 174 32 210 14 134 36 214 100 367
99 237 126 289 208 399 81 108 123 142 213 173 33 11 84 29 114 40 45 17 79
20 190 20 74 1 163 -3 197 -8z m-767 -220 c0 -11 -5 -23 -11 -27 -25 -15 -82
-121 -140 -260 -72 -174 -106 -244 -118 -244 -5 0 -10 -30 -10 -67 0 -38 -5
-84 -11 -103 -5 -19 -10 -55 -10 -80 0 -62 -29 -215 -45 -237 -13 -17 -14 -16
-20 8 -3 14 1 60 9 102 9 42 16 93 16 114 0 60 32 236 47 258 7 11 13 31 13
45 0 45 80 273 121 345 43 75 122 165 145 165 8 0 14 -9 14 -19z m1632 -22
c29 -6 73 -22 98 -34 52 -27 203 -187 225 -238 8 -19 23 -94 33 -168 24 -165
19 -213 -44 -439 -113 -402 -132 -460 -169 -490 -10 -8 -68 -19 -138 -26 -133
-14 -271 -56 -460 -140 -53 -24 -139 -60 -190 -80 -50 -20 -178 -81 -283 -136
-166 -86 -200 -108 -257 -165 l-67 -67 -48 23 c-37 17 -57 21 -86 16 -36 -7
-37 -6 -27 12 28 54 257 245 387 325 72 44 83 54 70 64 -27 19 -18 52 37 132
123 176 216 368 337 692 73 197 85 246 100 410 13 141 25 211 40 240 17 32 66
51 169 65 123 17 207 18 273 4z m-3945 -88 c-2 -20 -12 -67 -21 -106 -30 -133
-17 -315 35 -470 57 -170 171 -386 264 -500 18 -22 45 -62 60 -90 75 -135 189
-258 362 -388 93 -70 126 -108 108 -125 -3 -4 -45 13 -93 37 -66 34 -104 62
-160 118 -104 107 -201 225 -266 325 -31 48 -86 127 -122 175 -80 106 -114
172 -194 374 l-61 154 4 205 c4 208 10 247 47 308 25 41 44 32 37 -17z m-202
-210 l65 -30 0 -88 c0 -123 15 -204 54 -287 18 -39 41 -96 51 -126 24 -76 83
-192 140 -275 152 -222 183 -266 226 -320 26 -33 73 -85 105 -116 33 -31 74
-74 92 -97 21 -27 74 -66 150 -112 64 -38 149 -95 187 -126 39 -30 98 -69 133
-84 67 -31 75 -44 38 -61 -35 -16 -67 -5 -126 43 -118 98 -181 136 -180 111 0
-5 28 -28 60 -51 33 -24 65 -53 71 -63 8 -16 5 -21 -18 -29 -15 -6 -40 -15
-55 -21 -23 -10 -34 -7 -73 15 -77 45 -54 4 30 -54 47 -32 81 -74 87 -105 3
-17 -2 -20 -32 -17 -55 6 -88 32 -241 194 -188 197 -194 202 -264 239 -33 17
-85 51 -117 75 -31 24 -61 44 -68 44 -20 0 -73 31 -160 94 -47 33 -124 80
-171 103 -48 24 -107 58 -132 77 -62 48 -67 50 -259 117 -95 33 -180 68 -189
77 -17 18 -43 192 -55 362 -10 146 26 279 103 375 56 71 105 101 229 141 138
43 219 42 319 -5z m-695 -532 c5 -57 16 -139 25 -182 17 -91 18 -97 7 -97 -13
0 -49 79 -61 130 -18 79 -10 283 11 262 5 -5 13 -55 18 -113z m2425 9 c3 -40
19 -125 35 -189 25 -102 29 -140 31 -290 2 -123 -1 -183 -10 -204 -12 -29 -13
-29 -27 -10 -23 32 -32 79 -48 277 -21 243 -22 488 -2 488 9 0 15 -21 21 -72z
m2819 26 c13 -33 5 -97 -25 -206 -34 -122 -50 -161 -82 -195 -52 -57 -39 24
49 305 35 110 46 128 58 96z m-5208 -435 c76 -10 229 -53 249 -69 6 -5 33 -14
60 -21 72 -17 128 -45 161 -81 l29 -31 -45 7 c-25 4 -106 27 -180 51 -74 24
-202 63 -285 86 -171 47 -179 51 -145 60 38 10 71 10 156 -2z m-191 -68 c90
-7 143 -18 295 -64 482 -146 789 -273 925 -383 39 -31 107 -80 151 -109 59
-38 102 -78 155 -140 41 -48 96 -113 122 -144 27 -31 62 -82 79 -115 l29 -58
39 6 c47 7 90 -7 90 -31 0 -22 -27 -55 -61 -77 -27 -17 -27 -17 -45 21 -16 31
-25 39 -53 41 -24 3 -96 45 -240 140 -113 75 -254 160 -313 189 -104 51 -226
98 -234 90 -8 -8 21 -24 111 -61 118 -50 220 -109 374 -216 233 -164 246 -174
246 -195 0 -38 -42 -28 -171 40 -187 98 -178 81 31 -57 75 -50 80 -55 83 -92
5 -61 -10 -65 -66 -15 -41 37 -82 58 -238 119 -103 41 -224 96 -269 123 -113
68 -182 103 -246 121 -84 25 -309 66 -359 66 -24 0 -92 5 -151 12 -101 11
-117 10 -261 -15 -199 -34 -366 -89 -490 -161 -53 -31 -103 -56 -111 -56 -7 0
-23 10 -35 23 -42 45 -54 95 -63 257 -5 85 -11 171 -15 192 -15 85 81 300 181
406 130 138 222 164 510 143z m5355 -101 c8 -5 12 -11 10 -13 -14 -12 -154
-38 -176 -33 -37 10 -20 23 51 40 72 17 95 19 115 6z m-302 -46 c12 -4 22 -10
22 -14 0 -8 -18 -15 -330 -124 -442 -154 -481 -171 -665 -286 -179 -112 -245
-151 -281 -166 -30 -13 -33 -17 -24 -34 6 -11 13 -20 16 -20 9 0 189 107 280
166 151 99 264 151 474 222 113 38 264 92 335 120 302 119 588 144 830 73 146
-43 259 -99 312 -153 48 -50 99 -146 108 -203 7 -44 -18 -178 -59 -315 -14
-47 -38 -129 -53 -182 -20 -69 -32 -98 -43 -98 -8 0 -47 13 -85 29 -39 16 -99
35 -135 41 -36 6 -114 25 -174 41 -76 22 -155 35 -265 45 -86 7 -180 19 -210
25 -46 11 -74 9 -190 -9 -75 -12 -172 -26 -216 -33 -83 -11 -487 -94 -636
-130 -47 -11 -101 -19 -120 -17 -32 3 -34 5 -33 40 2 71 45 105 159 130 35 7
59 21 82 44 17 19 44 39 58 44 44 17 218 42 247 36 34 -7 47 11 16 23 -58 21
-317 -32 -448 -91 -57 -26 -113 -29 -118 -7 -2 12 25 31 97 68 92 47 122 71
89 71 -7 0 -55 -16 -106 -36 -51 -20 -96 -34 -99 -30 -21 21 56 71 202 129 89
35 121 45 425 134 170 49 202 62 157 63 -59 0 -364 -87 -565 -161 -167 -62
-175 -67 -284 -140 -47 -33 -92 -59 -99 -59 -8 0 -10 11 -5 38 3 20 6 51 6 69
0 25 14 46 71 107 39 41 94 91 122 109 77 51 312 172 390 201 38 14 131 55
207 91 118 56 254 106 390 143 41 12 115 14 148 6z m-2341 -314 c-2 -19 -12
-52 -20 -72 -15 -35 -19 -38 -56 -38 -51 0 -57 11 -26 48 27 32 31 52 14 69
-7 7 -3 16 16 31 22 18 30 19 52 9 22 -10 24 -16 20 -47z m277 -38 c3 -5 -8
-28 -24 -52 -16 -25 -35 -57 -41 -73 -9 -22 -17 -27 -38 -25 -24 3 -26 6 -25
52 0 42 5 53 32 77 31 28 84 39 96 21z m-597 -86 l16 -34 -38 -46 c-40 -49
-42 -51 -65 -36 -13 8 -13 12 -1 32 29 47 41 74 41 96 0 34 28 27 47 -12z
m283 -69 c0 -44 -47 -75 -84 -55 -39 22 -3 78 51 78 28 0 33 -4 33 -23z m889
-19 c0 -13 -9 -41 -19 -63 l-18 -40 -21 48 c-11 27 -21 52 -21 57 0 11 19 18
53 19 22 1 27 -3 26 -21z m95 -14 c26 -10 20 -62 -8 -76 -14 -6 -32 -8 -40 -5
-24 9 -20 53 6 71 26 19 22 18 42 10z m-1216 -26 c27 -23 12 -45 -47 -71 -57
-25 -81 -53 -66 -77 10 -17 51 -11 70 10 23 25 65 27 66 3 2 -33 -3 -48 -24
-71 -19 -20 -28 -22 -92 -18 -39 3 -78 8 -87 11 -23 9 -32 58 -17 87 7 13 15
36 19 53 5 24 13 31 42 38 20 5 46 19 59 33 23 24 47 25 77 2z m-2048 -128
c118 -7 324 -41 338 -55 12 -11 -13 -20 -61 -21 -29 0 -106 -4 -172 -8 -66 -4
-148 -3 -182 2 -94 13 -418 -35 -586 -88 -161 -50 -266 -54 -194 -8 72 48 163
90 223 104 38 8 90 22 115 30 103 34 274 64 329 58 30 -3 116 -9 190 -14z
m2989 6 c15 -18 5 -59 -21 -83 -19 -17 -20 -17 -38 5 -21 26 -16 57 13 77 26
19 32 19 46 1z m241 -8 c0 -7 -11 -31 -23 -53 -18 -32 -28 -40 -52 -40 -40 0
-56 41 -31 79 14 22 24 26 61 26 29 0 45 -4 45 -12z m-1656 -101 c9 -15 7 -22
-12 -37 -13 -11 -30 -16 -37 -13 -15 5 -21 54 -8 67 12 12 45 2 57 -17z
m-1514 -39 c8 0 51 3 95 7 68 6 96 4 190 -19 130 -31 306 -88 390 -126 33 -14
111 -61 173 -103 62 -42 119 -77 128 -77 21 0 94 -39 94 -50 0 -16 -47 -23
-108 -15 -52 6 -213 38 -254 51 -10 3 -18 1 -18 -5 0 -11 69 -34 149 -51 84
-17 108 -50 36 -50 -38 0 -55 -15 -28 -24 10 -3 65 -12 123 -21 100 -14 130
-27 130 -57 0 -4 -42 -8 -92 -8 -87 -1 -143 -4 -458 -30 -130 -10 -398 -57
-414 -71 -15 -14 62 -10 129 5 109 25 316 40 560 41 233 0 240 -1 240 -20 0
-17 -19 -26 -114 -57 -113 -36 -155 -58 -116 -58 11 0 40 6 65 14 25 8 79 23
120 35 69 19 76 19 87 4 37 -48 -5 -111 -102 -157 -64 -30 -188 -73 -240 -82
l-40 -7 30 -8 c72 -21 302 62 393 142 18 16 36 29 39 29 9 0 53 -42 53 -51 0
-14 -331 -201 -388 -219 -31 -9 -102 -38 -157 -63 -55 -25 -135 -55 -178 -67
-43 -12 -93 -28 -110 -35 -65 -27 -364 -108 -427 -116 -36 -4 -117 -19 -180
-33 -63 -13 -197 -32 -296 -42 -208 -20 -261 -14 -409 46 -140 57 -142 58
-209 155 -86 124 -93 139 -105 229 -16 112 -14 205 8 336 19 114 85 329 116
376 55 84 343 186 675 239 129 20 176 23 280 19 69 -3 132 -6 140 -6z m1588
-118 c2 -69 0 -79 -27 -122 -24 -37 -37 -48 -56 -48 -27 0 -30 4 -40 62 -3 21
-12 44 -20 52 -36 36 -8 61 49 44 47 -15 55 -5 27 33 -28 38 -14 62 33 57 l31
-3 3 -75z m1572 65 c18 -21 0 -53 -45 -82 -41 -27 -63 -29 -93 -7 -26 18 -28
50 -6 82 13 18 25 22 73 22 40 0 63 -5 71 -15z m1630 -25 c19 -6 71 -10 115
-10 102 0 173 -16 360 -78 172 -56 243 -90 332 -156 174 -127 246 -254 259
-449 7 -105 7 -106 -31 -204 -36 -95 -146 -325 -166 -350 -25 -29 -255 -158
-335 -186 l-89 -32 -400 0 -400 0 -80 27 c-44 15 -135 40 -202 57 -66 17 -145
40 -173 51 -29 11 -94 32 -144 45 -157 41 -199 55 -263 88 -70 35 -82 60 -36
78 39 14 63 39 63 62 0 10 -13 39 -30 64 -16 24 -30 50 -30 58 0 15 37 45 57
45 7 0 72 -27 145 -59 208 -93 262 -106 453 -106 143 0 165 3 208 22 82 39 55
61 -38 31 -174 -56 -403 -20 -661 103 -64 30 -84 45 -94 69 -18 44 -3 57 48
42 52 -16 77 -15 91 2 14 17 5 20 -74 31 -27 4 -65 13 -84 21 -18 8 -44 14
-58 14 -35 0 -61 16 -79 51 -21 41 -5 59 52 59 32 0 47 -5 57 -20 14 -20 15
-20 47 20 19 24 40 40 53 40 12 0 29 5 37 10 13 9 13 11 0 20 -8 5 -20 10 -27
10 -7 0 -17 9 -23 19 -30 58 114 85 330 62 47 -5 146 -16 220 -25 74 -8 169
-17 210 -21 41 -3 91 -9 110 -12 31 -5 33 -4 22 9 -8 10 -39 18 -85 22 -39 4
-151 19 -247 33 -214 31 -526 35 -643 8 -71 -16 -97 -11 -97 21 0 24 80 95
136 121 49 22 67 25 174 24 67 -1 131 -6 145 -13 14 -6 28 -8 32 -4 15 15 -17
26 -98 35 -86 8 -146 28 -141 46 4 16 184 93 327 140 115 38 235 66 345 79 59
7 363 -3 400 -14z m-3380 -152 c0 -20 -51 -59 -73 -56 -28 4 -36 57 -12 81 14
15 19 15 50 0 19 -9 35 -21 35 -25z m2096 -91 l27 -23 -28 -22 c-34 -27 -37
-27 -60 -2 -15 17 -16 24 -7 45 14 31 33 32 68 2z m-2255 -7 c10 -6 26 -25 35
-42 15 -29 15 -32 -5 -51 l-21 -21 -35 34 c-46 44 -46 85 -2 89 5 1 17 -4 28
-9z m178 -11 c17 -6 36 -20 42 -30 8 -16 4 -25 -20 -49 -35 -35 -49 -37 -85
-9 -33 26 -33 52 2 78 15 11 27 21 28 21 1 0 15 -5 33 -11z m-2652 -131 c-29
-117 -38 -187 -43 -345 -5 -168 -12 -185 -46 -123 -18 32 -19 49 -14 175 6
171 21 235 80 344 29 53 41 26 23 -51z m2779 47 c10 -26 -24 -67 -53 -63 -35
4 -38 19 -13 51 24 30 57 36 66 12z m-296 -199 c0 -8 -11 -28 -24 -43 -20 -23
-28 -26 -43 -17 -27 17 -28 49 -1 62 33 16 68 15 68 -2z m2220 -220 c0 -18
-38 -46 -63 -46 -23 0 -33 26 -17 45 16 20 80 20 80 1z m-1646 -31 c38 -38 28
-74 -20 -75 -12 0 -38 -12 -59 -26 -27 -18 -45 -24 -63 -19 -31 8 -72 -18 -72
-46 0 -11 7 -34 16 -51 23 -44 6 -51 -51 -22 -31 16 -63 24 -85 23 -50 -4 -62
7 -55 44 14 69 13 68 68 66 64 -3 116 21 170 80 34 37 42 41 87 41 30 0 54 -6
64 -15z m-670 -90 c14 -39 -12 -64 -131 -124 -120 -60 -181 -100 -153 -101 8
0 29 7 45 16 17 9 84 38 150 66 98 41 132 50 183 52 56 1 66 -2 83 -23 20 -24
20 -25 1 -43 -28 -29 -208 -122 -536 -277 -205 -97 -426 -263 -596 -446 -79
-85 -230 -271 -367 -450 -80 -106 -97 -120 -167 -140 -86 -25 -182 -16 -244
23 -59 37 -68 40 -175 51 l-87 9 -63 64 c-34 35 -90 88 -125 118 l-64 55 -29
105 c-47 171 -64 385 -35 455 25 59 95 143 130 155 27 9 50 4 156 -30 103 -33
152 -43 279 -55 85 -8 185 -15 223 -15 88 0 474 55 519 74 19 8 63 21 99 30
121 31 412 172 629 305 148 91 240 141 257 141 7 0 14 -7 18 -15z m631 -87
c-12 -84 -17 -98 -35 -108 -26 -14 -29 -3 -18 65 11 65 22 85 45 85 12 0 13
-9 8 -42z m120 8 c19 -28 13 -43 -26 -74 -35 -28 -54 -24 -63 14 -6 21 -1 33
20 55 34 35 49 36 69 5z m115 -35 c5 -11 10 -45 10 -75 0 -43 -3 -56 -15 -56
-10 0 -15 10 -15 27 0 15 -12 44 -26 64 -14 21 -23 43 -19 48 11 18 54 12 65
-8z m-3235 -62 c44 -68 49 -89 20 -89 -23 0 -74 62 -81 97 -6 32 -1 63 11 63
3 0 25 -32 50 -71z m3366 51 c37 -20 9 -80 -37 -80 -41 0 -51 50 -16 78 19 15
28 15 53 2z m-201 -104 c0 -40 -23 -75 -57 -87 -58 -19 -63 3 -12 55 45 45 69
57 69 32z m-299 -55 c31 -31 39 -46 39 -75 0 -39 -18 -48 -41 -20 -24 29 -70
46 -108 40 -70 -12 -75 -11 -79 7 -5 24 14 44 48 52 16 3 34 13 41 21 21 25
59 16 100 -25z m-331 2 c0 -9 -22 -40 -50 -69 -82 -86 -66 -96 41 -24 74 51
93 50 97 -8 4 -49 -8 -70 -84 -158 -126 -144 -194 -229 -194 -242 0 -8 5 -10
14 -5 20 11 235 247 296 326 12 15 26 27 31 27 17 0 59 -52 59 -72 0 -10 -49
-69 -110 -133 -60 -62 -110 -118 -110 -125 0 -20 33 7 140 114 58 58 110 106
117 106 16 0 43 -29 43 -46 0 -8 -22 -39 -48 -67 -90 -96 -123 -151 -257 -418
-222 -445 -352 -818 -414 -1180 -14 -80 -24 -114 -38 -125 -28 -21 -110 -50
-198 -69 -44 -10 -96 -26 -115 -35 -68 -34 -123 -42 -281 -41 -128 0 -168 4
-225 22 -105 32 -176 74 -267 159 l-82 77 0 149 c1 165 2 170 92 414 70 191
137 319 242 460 70 94 275 297 361 358 36 25 135 101 220 168 296 232 636 451
703 453 9 1 17 -6 17 -16z m2012 -4 c29 -6 57 -14 61 -19 9 -8 -123 -90 -145
-90 -24 0 -118 30 -118 38 0 9 120 81 137 82 7 0 36 -5 65 -11z m-1294 -45
c26 -29 37 -35 55 -29 50 16 73 16 85 2 16 -19 -14 -46 -65 -58 -72 -16 -81
-13 -109 42 -24 47 -26 79 -6 79 5 0 23 -16 40 -36z m-1692 6 c23 0 7 -18 -34
-39 -94 -47 -507 -120 -533 -94 -13 13 114 50 206 59 39 4 95 16 125 27 73 28
192 57 208 51 8 -2 20 -4 28 -4z m3219 -52 c39 -14 129 -43 200 -63 72 -20
173 -56 225 -80 124 -56 184 -73 305 -85 55 -5 125 -14 155 -20 30 -6 89 -15
131 -20 77 -9 77 -9 179 -91 100 -81 155 -142 203 -229 44 -79 125 -292 137
-360 13 -69 8 -197 -12 -358 -10 -77 -9 -109 4 -190 18 -114 12 -179 -27 -292
-34 -96 -72 -134 -146 -149 -78 -15 -595 -25 -644 -13 -93 24 -243 85 -304
125 -117 75 -397 372 -497 527 -23 36 -75 130 -116 210 -41 80 -93 172 -116
206 -60 89 -137 237 -182 349 -39 98 -39 99 -20 124 10 14 30 37 44 50 31 29
41 23 81 -51 31 -57 98 -153 115 -163 21 -13 8 20 -45 113 -30 53 -55 107 -55
119 0 13 12 31 30 45 20 14 30 31 30 47 0 43 14 54 53 47 69 -13 187 -104 385
-300 105 -104 192 -185 192 -180 0 21 -46 75 -167 197 -148 150 -217 211 -326
290 -74 53 -77 56 -56 68 44 23 95 14 146 -25 25 -20 50 -36 55 -36 18 0 6 21
-32 56 -69 64 -47 94 41 54 24 -11 53 -19 64 -19 17 0 16 3 -9 24 -16 13 -46
31 -67 41 -21 9 -40 23 -43 31 -7 16 2 36 13 31 3 -2 38 -15 76 -30z m-1705
-14 c7 -41 38 -45 46 -5 5 24 12 31 30 31 26 0 30 -10 38 -101 2 -31 11 -71
20 -87 12 -23 13 -37 6 -56 -12 -31 -33 -33 -61 -5 -18 18 -20 28 -14 75 6 50
5 54 -17 59 -26 7 -54 8 -83 3 -28 -4 -32 44 -8 88 21 40 36 39 43 -2z m632
-57 c-7 -18 -12 -36 -12 -40 0 -11 29 -8 51 6 17 10 22 9 35 -7 24 -33 16 -46
-41 -72 l-55 -26 -33 21 c-19 11 -42 36 -52 55 -23 42 -14 56 54 91 55 28 70
20 53 -28z m-284 -80 c12 -24 12 -36 0 -73 -15 -53 -19 -56 -74 -72 -51 -15
-72 -8 -81 26 -9 38 8 57 56 60 40 3 41 4 39 35 -4 62 35 77 60 24z m-1448 3
c0 -14 -52 -59 -241 -206 -94 -74 -177 -134 -184 -134 -29 0 -23 20 19 72 66
81 167 158 306 234 78 43 100 51 100 34z m4728 -37 c6 -10 12 -83 14 -163 4
-132 8 -153 37 -235 25 -69 34 -112 38 -185 5 -89 4 -99 -21 -147 -42 -84
-136 -143 -285 -178 -92 -22 -111 -4 -111 107 0 65 -15 114 -72 243 -95 215
-120 256 -205 343 -46 46 -83 89 -83 95 0 8 31 12 97 13 130 0 352 19 383 32
14 5 56 28 95 51 77 45 100 50 113 24z m-3711 -128 c-3 -17 -24 -58 -46 -90
-67 -96 -50 -121 21 -31 44 57 67 67 88 41 9 -11 9 -22 1 -47 -14 -40 1 -62
24 -32 25 31 42 67 49 100 4 18 16 40 26 49 21 19 50 14 50 -8 0 -18 -64 -197
-85 -237 -19 -36 -19 -60 -1 -60 8 0 28 34 46 81 35 87 65 114 95 89 22 -18
19 -37 -25 -194 -73 -257 -160 -694 -160 -796 1 -70 16 -28 30 80 26 205 73
415 159 703 26 89 53 180 59 202 6 22 18 49 27 60 15 20 16 20 28 1 7 -11 20
-27 29 -37 28 -30 35 -51 47 -144 16 -117 22 -140 31 -125 5 7 6 56 3 109 -7
116 11 175 49 169 19 -2 28 -19 56 -103 27 -80 36 -127 44 -240 12 -157 0
-385 -28 -505 -8 -39 -14 -78 -12 -87 8 -39 29 29 53 176 36 215 41 328 20
503 -9 81 -13 158 -10 170 17 54 38 88 56 88 28 0 39 -32 39 -117 0 -43 5
-112 10 -153 19 -145 14 -263 -24 -500 -19 -124 -42 -319 -51 -434 -18 -229
-33 -316 -105 -605 -62 -247 -118 -368 -213 -463 -38 -38 -89 -76 -128 -95
-78 -40 -451 -143 -514 -143 -58 0 -110 22 -155 64 -19 18 -52 43 -72 55 -21
12 -48 37 -60 54 -12 18 -43 55 -69 83 -53 57 -55 62 -68 179 -6 44 -20 125
-32 180 -31 143 -30 296 5 490 14 83 27 184 27 225 1 41 7 107 15 145 66 322
88 415 111 472 30 76 185 337 267 451 87 121 206 253 240 267 41 17 60 3 53
-40z m873 -7 c0 -44 -50 -74 -78 -46 -18 18 -15 36 13 64 20 20 28 23 45 14
11 -6 20 -20 20 -32z m85 12 c3 -5 19 -10 36 -10 36 0 38 -22 4 -55 -13 -14
-31 -25 -40 -25 -21 0 -55 36 -55 58 0 33 40 56 55 32z m170 -46 c8 -20 37
-69 65 -111 27 -41 50 -79 50 -85 0 -5 27 -67 60 -138 33 -71 60 -131 60 -134
0 -17 -31 -1 -68 34 -45 44 -82 111 -127 228 -15 40 -45 100 -67 133 -30 45
-38 66 -34 84 10 38 43 32 61 -11z m-4114 -90 c8 -86 55 -296 74 -335 8 -15
52 -58 97 -94 77 -61 158 -148 158 -169 0 -5 -29 -6 -64 -4 -127 11 -268 104
-321 212 -57 120 -51 294 16 439 20 43 33 27 40 -49z m3977 -122 c23 -35 55
-104 73 -153 33 -93 49 -118 49 -76 0 28 -25 102 -69 204 -36 84 -38 103 -12
103 20 0 91 -74 91 -95 0 -6 18 -49 41 -96 67 -137 89 -215 105 -378 3 -39 11
-74 15 -77 12 -7 11 131 -2 185 -17 77 -5 80 64 15 212 -201 254 -325 264
-779 3 -145 0 -290 -7 -365 -6 -69 -15 -174 -20 -233 -6 -86 -14 -120 -35
-163 -15 -31 -34 -58 -42 -61 -9 -4 -30 2 -48 11 -18 10 -41 16 -51 14 -35 -6
-24 -26 26 -44 104 -38 50 -84 -210 -179 -36 -13 -108 -31 -161 -40 -53 -8
-121 -24 -152 -34 l-55 -19 -106 33 c-142 44 -226 109 -226 174 0 9 16 44 36
77 74 122 179 351 229 499 43 129 90 448 101 681 3 81 1 196 -6 274 -6 74 -15
178 -20 230 -4 52 -13 125 -20 163 -30 168 37 200 75 35 19 -87 36 -98 24 -16
-19 130 -21 158 -15 174 8 21 13 17 64 -64z m-3408 -517 c39 -20 39 -45 2 -45
-35 0 -122 29 -122 40 0 23 80 26 120 5z m3260 -218 c0 -315 -54 -646 -135
-842 -16 -37 -18 -38 -31 -20 -17 22 -17 35 -4 70 19 50 72 449 80 605 12 229
49 404 80 385 6 -4 10 -87 10 -198z m-2840 123 c0 -11 -13 -53 -29 -93 -16
-39 -43 -117 -60 -172 -16 -55 -37 -109 -45 -120 -13 -19 -15 -18 -21 19 -11
56 0 128 31 199 73 170 83 187 103 187 14 0 21 -6 21 -20z m3723 -279 c40 -61
101 -122 283 -283 162 -143 265 -211 385 -253 95 -34 103 -52 73 -156 -42
-144 -142 -301 -236 -371 -62 -47 -96 -62 -202 -89 -122 -30 -186 -27 -252 13
-30 17 -74 52 -99 77 -54 53 -55 64 -21 242 39 203 51 634 21 744 -7 28 -16
69 -20 93 -10 64 20 56 68 -17z m-2464 -203 c1 -48 -7 -109 -21 -165 -19 -74
-22 -115 -22 -263 0 -162 2 -184 31 -300 17 -69 34 -145 38 -170 9 -54 35
-108 74 -152 59 -68 74 -130 28 -112 -26 9 -114 123 -151 194 -60 114 -87 226
-93 386 -4 100 -2 143 6 148 14 9 14 60 1 106 -15 53 31 282 87 430 10 29 22
-22 22 -102z m3731 -328 c13 -9 13 -11 0 -20 -37 -25 -136 -38 -174 -24 -23 9
-20 33 7 44 30 12 148 12 167 0z m-5013 -33 c111 -91 166 -120 286 -152 79
-21 118 -25 226 -25 121 0 136 2 205 30 41 16 110 38 153 49 43 11 107 29 142
41 61 19 81 19 81 0 0 -29 -202 -116 -359 -156 -156 -40 -453 -48 -569 -15
-61 17 -139 85 -178 156 -50 89 -44 118 13 72z m3373 -736 c0 -14 -201 -129
-266 -153 -82 -29 -187 -35 -244 -13 -25 9 -64 24 -87 32 -64 23 -54 37 23 30
48 -3 88 1 143 15 42 10 123 28 181 38 58 10 126 28 150 39 47 21 100 28 100
12z m-1112 -142 c4 -20 -33 -66 -68 -84 -33 -17 -241 -31 -282 -18 -63 19 -29
34 217 96 111 28 128 29 133 6z"/>
<path d="M3180 5768 c0 -25 26 -156 36 -182 3 -9 10 -16 15 -16 22 0 20 38 -7
122 -29 91 -44 117 -44 76z"/>
<path d="M3072 5043 c15 -15 30 -25 32 -22 10 9 -25 49 -42 49 -13 0 -11 -6
10 -27z"/>
<path d="M4667 5885 c-10 -44 -32 -133 -48 -197 -31 -118 -37 -196 -13 -153
22 38 85 335 82 383 l-3 47 -18 -80z"/>
<path d="M3612 4569 c-33 -22 -46 -50 -40 -90 3 -22 10 -25 72 -32 79 -8 90
-2 80 48 -9 45 -38 90 -60 93 -10 1 -34 -7 -52 -19z"/>
<path d="M3858 4389 c-47 -27 7 -83 55 -57 29 15 46 39 40 55 -6 15 -70 17
-95 2z"/>
<path d="M4203 4273 c-30 -6 -63 -49 -63 -84 0 -35 35 -48 76 -27 29 13 79 88
66 99 -11 10 -55 16 -79 12z"/>
<path d="M3683 4038 c-45 -32 -49 -49 -18 -75 33 -29 37 -29 74 3 36 30 41 68
12 84 -27 14 -32 13 -68 -12z"/>
<path d="M3368 3989 c-19 -11 -24 -38 -8 -40 6 -1 16 -2 23 -3 8 -1 11 -15 10
-40 -3 -50 17 -43 37 12 11 32 12 47 4 60 -13 20 -43 26 -66 11z"/>
<path d="M4395 3904 c-14 -15 -25 -34 -26 -43 -3 -47 5 -88 19 -104 10 -11 15
-31 14 -48 -2 -17 1 -29 8 -29 20 0 50 20 50 34 0 7 25 44 55 81 30 36 55 76
55 87 0 18 -4 20 -32 14 -18 -3 -45 -18 -60 -32 -39 -38 -62 -27 -53 26 8 47
3 49 -30 14z"/>
<path d="M3949 3883 c-61 -37 -75 -116 -24 -129 35 -9 68 2 104 32 37 31 40
62 8 92 -28 26 -52 27 -88 5z"/>
<path d="M4166 3869 c-31 -24 -48 -61 -40 -84 10 -24 22 -17 34 20 12 36 42
61 61 50 5 -4 17 -4 26 -1 12 5 13 9 3 21 -18 21 -53 19 -84 -6z"/>
<path d="M3602 3854 c-30 -20 -28 -30 8 -43 17 -5 30 -17 30 -25 0 -25 18 -28
40 -6 26 26 25 36 -5 65 -28 29 -42 31 -73 9z"/>
<path d="M4521 3665 c-23 -26 -41 -51 -39 -57 8 -24 26 -17 53 22 16 24 36 40
47 40 18 0 20 -5 14 -45 -4 -25 -3 -45 1 -45 20 0 33 26 33 65 0 79 -47 87
-109 20z"/>
<path d="M3670 3624 c-6 -14 -10 -28 -10 -31 0 -2 -22 -37 -50 -77 -47 -68
-60 -96 -42 -96 13 0 27 15 55 58 31 48 58 54 75 17 6 -14 16 -25 22 -25 13 0
13 36 -1 62 -9 17 -6 26 25 57 20 20 36 42 36 48 0 7 -20 11 -50 11 -45 1 -52
-2 -60 -24z"/>
<path d="M4201 3616 c-7 -8 -29 -16 -49 -18 -39 -3 -49 -23 -21 -41 35 -22
137 24 126 58 -6 16 -43 17 -56 1z"/>
<path d="M3912 3533 c-7 -12 -24 -23 -39 -25 -39 -4 -39 -42 -1 -46 32 -4 62
33 56 70 l-3 23 -13 -22z"/>
<path d="M4076 3404 c-27 -27 -31 -40 -20 -68 17 -46 94 8 94 65 0 24 -4 29
-24 29 -13 0 -35 -12 -50 -26z"/>
<path d="M4696 3394 c-21 -20 -20 -43 1 -51 10 -4 23 2 34 16 31 38 0 70 -35
35z"/>
<path d="M4448 3349 c-15 -23 -37 -47 -50 -53 -31 -16 -33 -37 -7 -70 l22 -27
26 24 c14 14 40 28 56 31 39 8 95 42 95 57 0 7 -11 9 -32 5 -57 -11 -71 -11
-75 0 -2 7 3 19 12 27 20 21 19 47 -3 47 -10 0 -30 -18 -44 -41z"/>
<path d="M3802 3323 c-30 -25 -37 -66 -17 -87 27 -26 69 -20 104 16 35 35 38
50 16 68 -12 10 -17 6 -32 -24 -24 -51 -47 -48 -38 4 7 44 -1 50 -33 23z"/>
<path d="M4191 3085 c-38 -43 -39 -59 -6 -81 20 -13 33 -15 58 -8 37 11 50 44
17 44 -28 0 -35 23 -15 54 17 25 17 26 -3 26 -11 0 -34 -16 -51 -35z"/>
<path d="M1599 3966 c-3 -3 -57 -10 -120 -16 -119 -10 -357 -64 -534 -120
-118 -38 -175 -65 -175 -84 0 -9 56 5 188 50 326 109 450 134 675 134 121 0
156 13 65 24 -29 3 -62 9 -73 12 -11 3 -23 3 -26 0z"/>
<path d="M5590 4020 c0 -19 37 -27 100 -20 74 8 340 -3 445 -19 110 -16 259
-63 359 -113 61 -31 88 -30 46 2 -30 22 -183 85 -261 105 -138 38 -292 55
-491 55 -121 0 -198 -4 -198 -10z"/>
<path d="M2461 2564 c-31 -40 -25 -52 9 -19 17 16 30 32 30 37 0 16 -19 7 -39
-18z"/>
<path d="M4647 2733 c7 -22 43 -63 55 -63 15 0 8 27 -13 54 -23 30 -52 36 -42
9z"/>
<path d="M4762 2345 c7 -38 245 -275 275 -275 29 0 9 31 -51 80 -36 28 -95 83
-132 123 -73 80 -98 99 -92 72z"/>
<path d="M5340 2269 c0 -20 92 -105 98 -91 2 8 -15 34 -39 58 -44 45 -59 53
-59 33z"/>
<path d="M2988 1584 c-5 -4 -8 -35 -7 -68 0 -50 2 -57 10 -36 11 27 8 116 -3
104z"/>
<path d="M3238 1467 c-2 -29 -1 -75 2 -103 6 -39 8 -28 9 54 1 111 -4 134 -11
49z"/>
<path d="M2957 1414 c-3 -6 -5 -161 -4 -345 2 -290 4 -339 19 -371 17 -37 48
-52 48 -24 0 8 -7 43 -15 78 -23 102 -37 312 -30 468 6 134 -2 219 -18 194z"/>
<path d="M4475 1748 c9 -145 29 -315 39 -326 9 -8 5 78 -14 296 -16 183 -35
206 -25 30z"/>
</g>
</svg>
