<?xml version="1.0" standalone="no"?>
<!DOCTYPE svg PUBLIC "-//W3C//DTD SVG 20010904//EN"
 "http://www.w3.org/TR/2001/REC-SVG-20010904/DTD/svg10.dtd">
<svg version="1.0" xmlns="http://www.w3.org/2000/svg"
 width="736.000000pt" height="736.000000pt" viewBox="0 0 736.000000 736.000000"
 preserveAspectRatio="xMidYMid meet">

<g transform="translate(0.000000,736.000000) scale(0.100000,-0.100000)"
fill="currentColor" stroke="none">
<path d="M4130 7129 c-78 -13 -121 -37 -238 -132 -109 -88 -166 -158 -227
-277 -38 -76 -75 -189 -75 -232 0 -16 -5 -38 -11 -49 -14 -27 -34 -11 -50 39
-16 49 -84 185 -124 247 -110 171 -410 344 -534 307 -21 -7 -48 -12 -59 -12
-58 0 -160 -212 -207 -433 -10 -42 -21 -79 -26 -82 -8 -5 -90 48 -194 127
-112 84 -282 148 -396 148 -74 0 -204 -42 -242 -78 -45 -42 -56 -73 -75 -200
-24 -165 -21 -384 7 -522 58 -281 131 -467 291 -740 71 -122 66 -147 -21 -92
-64 41 -277 130 -364 152 -40 10 -116 26 -167 34 -264 43 -300 44 -514 7 -175
-30 -194 -37 -245 -90 -73 -76 -101 -144 -107 -260 -3 -64 0 -111 8 -136 19
-58 121 -203 190 -270 69 -68 105 -119 97 -139 -3 -8 -32 -20 -64 -26 -188
-37 -302 -82 -418 -165 -83 -60 -119 -100 -152 -170 -23 -51 -28 -76 -31 -166
-4 -93 -2 -111 18 -148 29 -59 88 -114 204 -191 56 -38 95 -71 94 -79 -2 -8
-48 -38 -103 -67 -147 -77 -217 -153 -273 -295 -39 -100 -55 -171 -47 -211 13
-63 66 -147 114 -182 25 -19 69 -51 96 -73 78 -59 183 -110 286 -138 165 -44
454 -62 681 -41 86 7 98 6 98 -7 0 -9 -36 -60 -79 -114 -107 -133 -206 -282
-231 -349 -23 -62 -44 -233 -34 -279 14 -64 64 -145 112 -180 92 -68 276 -102
463 -84 56 5 105 11 108 13 3 2 58 12 121 21 63 9 146 27 183 40 69 24 97 24
97 -1 0 -39 -81 -338 -111 -409 -7 -18 -12 -75 -12 -145 0 -104 2 -121 27
-177 33 -73 158 -201 227 -233 96 -43 228 -16 383 79 38 23 75 40 82 37 12 -5
18 -26 29 -108 19 -148 212 -362 323 -360 165 4 369 140 499 332 17 25 62 105
100 179 38 73 73 133 79 134 5 0 34 -49 64 -110 68 -137 109 -189 257 -334
121 -118 197 -167 308 -198 55 -15 139 -14 180 3 50 21 164 101 217 152 85 83
160 268 193 476 18 113 23 128 39 128 7 0 44 -24 82 -53 144 -111 288 -181
415 -203 133 -22 165 -13 244 71 68 71 110 147 125 225 15 80 12 329 -6 447
-8 58 -35 165 -60 240 -25 75 -41 140 -37 144 4 4 52 -7 105 -26 132 -45 196
-55 388 -62 201 -7 289 5 380 50 87 43 123 95 139 202 20 134 16 173 -28 261
-64 129 -140 227 -305 395 -86 86 -156 163 -156 170 0 9 23 10 98 3 135 -12
346 -9 413 5 69 15 174 56 259 101 111 60 242 215 257 305 8 47 -12 140 -47
226 -91 225 -242 365 -502 468 -32 13 -58 27 -58 32 0 10 77 72 189 153 203
147 285 291 253 443 -28 126 -140 294 -222 330 -87 38 -187 73 -212 73 -34 0
-78 17 -78 30 0 5 16 32 35 58 81 114 157 315 157 419 0 53 -6 76 -39 145 -22
46 -49 93 -59 104 -27 31 -147 63 -293 80 -68 8 -128 17 -132 20 -4 2 -50 -4
-101 -15 -51 -11 -127 -22 -168 -26 -183 -15 -433 -112 -628 -242 -62 -42
-116 -73 -119 -69 -8 8 2 37 73 216 74 187 101 277 130 437 40 219 46 280 41
409 -5 136 -23 185 -93 258 -52 54 -89 67 -192 67 -81 0 -96 -4 -228 -54 -84
-32 -186 -81 -254 -121 -92 -55 -115 -65 -125 -54 -6 7 -30 65 -53 129 -62
172 -106 246 -167 282 -93 55 -171 71 -265 56z m165 -78 c60 -34 181 -159 201
-207 19 -46 19 -253 0 -297 -8 -18 -43 -67 -79 -111 -36 -43 -88 -120 -116
-171 -76 -136 -185 -386 -215 -495 -15 -52 -36 -124 -46 -160 -64 -225 -94
-358 -106 -480 -4 -36 -14 -78 -23 -95 -16 -30 -16 -28 -22 80 -4 61 -7 156
-8 213 0 60 -5 102 -11 102 -5 0 -10 -10 -10 -22 0 -51 -16 4 -51 175 -46 222
-74 326 -130 482 -38 108 -42 129 -42 210 0 70 6 109 27 175 83 257 142 364
273 491 126 122 151 136 258 138 38 1 62 -6 100 -28z m-1475 -100 c0 -12 -51
-53 -58 -46 -8 8 28 55 43 55 8 0 15 -4 15 -9z m253 -27 c211 -106 543 -682
613 -1064 8 -47 22 -103 29 -125 7 -22 23 -96 34 -165 19 -114 26 -215 46
-700 4 -74 10 -170 15 -212 14 -114 -1 -208 -31 -208 -5 0 -9 49 -9 109 0 148
-17 154 -45 16 l-7 -30 -17 22 c-12 14 -20 47 -24 95 -7 78 -61 296 -77 312
-15 15 -12 -23 9 -116 30 -129 45 -262 31 -287 -21 -40 -33 -24 -65 92 -8 31
-20 57 -25 57 -6 0 -10 -31 -10 -69 0 -108 -22 -105 -97 12 -70 109 -75 78 -7
-46 19 -34 14 -42 -22 -33 -37 10 -80 57 -133 145 -24 39 -48 71 -53 71 -6 0
-7 -8 -3 -17 4 -10 11 -38 14 -63 9 -61 41 -123 100 -197 27 -34 47 -64 44
-67 -12 -11 -38 -5 -63 14 -28 22 -55 26 -47 8 3 -7 8 -21 12 -30 13 -33 -10
-18 -80 50 -254 245 -411 539 -509 945 -79 329 -89 409 -87 667 0 129 4 260 7
290 14 139 106 373 181 460 44 51 122 90 181 90 26 0 63 -10 95 -26z m2268
-114 c45 -24 83 -67 101 -117 23 -65 17 -343 -11 -498 -32 -182 -63 -274 -206
-625 -151 -371 -359 -681 -585 -870 -95 -80 -128 -83 -70 -6 30 39 38 66 21
66 -5 0 -24 -19 -42 -42 -89 -114 -172 -208 -207 -232 -68 -47 -81 -29 -32 47
17 26 30 50 30 52 0 3 -14 2 -32 -2 -17 -3 -29 -2 -26 3 3 5 28 47 57 95 47
78 50 88 41 116 -10 27 -6 45 34 144 53 136 96 262 96 283 0 26 -17 18 -25
-11 -24 -101 -246 -571 -300 -638 l-24 -29 -26 24 c-32 30 -45 76 -46 170 -1
98 -17 64 -18 -38 -1 -46 -5 -71 -11 -67 -6 4 -10 53 -10 116 0 60 -4 109 -9
109 -13 0 -18 -18 -32 -110 -8 -60 -14 -78 -21 -66 -9 16 -12 251 -4 265 3 4
10 100 15 212 9 175 15 222 41 324 67 259 111 380 213 579 70 138 149 238 315
398 191 184 316 258 592 351 82 28 121 27 181 -3z m-3260 -77 c7 -7 -16 -12
-73 -17 -129 -11 -157 -21 -209 -77 -65 -68 -87 -65 -53 7 34 71 120 106 247
101 43 -2 82 -8 88 -14z m133 -89 c135 -38 192 -71 275 -160 l73 -78 -8 -86
c-10 -108 -7 -334 7 -470 20 -208 82 -452 190 -740 49 -133 232 -469 310 -568
17 -23 17 -24 -2 -55 -10 -18 -19 -39 -19 -47 1 -16 81 -78 162 -124 89 -52
91 -80 3 -47 -83 31 -131 58 -159 88 -20 22 -27 24 -40 14 -20 -16 -55 2 -137
71 -92 79 -121 98 -149 98 -18 0 -51 23 -110 78 -47 43 -128 112 -180 153
-104 83 -216 194 -257 255 -103 151 -312 571 -389 782 -107 292 -86 651 45
795 73 80 197 93 385 41z m4302 -905 c166 -43 224 -98 224 -215 0 -98 -40
-191 -161 -370 -87 -130 -98 -136 -231 -127 -57 3 -128 1 -179 -7 -84 -12
-256 -65 -385 -118 -182 -75 -330 -135 -439 -178 -171 -66 -453 -214 -600
-314 -29 -20 -49 -27 -69 -23 -19 4 -37 -1 -59 -17 -61 -46 -190 -130 -199
-130 -20 0 -2 25 82 112 50 51 115 118 145 149 51 52 67 79 47 79 -4 0 -23
-16 -42 -35 -19 -19 -38 -35 -42 -35 -24 0 0 39 66 110 139 148 345 428 406
550 27 54 214 242 320 321 246 184 387 247 605 269 138 14 418 2 511 -21z
m-5185 -425 c49 -9 89 -20 89 -25 0 -5 -89 -9 -197 -9 -219 0 -268 -8 -438
-64 -123 -42 -115 -40 -115 -22 0 17 61 72 89 81 11 3 73 17 138 30 144 29
306 32 434 9z m314 -63 c84 -37 38 -41 -92 -8 -67 17 -120 33 -118 37 8 13
164 -9 210 -29z m-90 -50 c199 -54 296 -93 460 -184 170 -95 229 -141 485
-383 153 -143 238 -214 369 -306 138 -95 161 -116 161 -144 0 -33 -39 -32 -88
1 -37 25 -62 32 -62 17 0 -5 32 -30 70 -56 71 -49 81 -62 56 -72 -17 -7 -85
27 -202 101 -77 49 -223 125 -239 125 -21 0 6 -22 68 -54 106 -57 197 -118
197 -133 0 -20 -11 -17 -142 38 -192 80 -238 96 -359 124 -341 77 -614 125
-889 155 -102 11 -198 23 -215 25 -16 3 -80 9 -141 14 -135 11 -169 25 -249
106 -66 66 -141 198 -170 299 -20 69 -16 167 10 215 20 39 82 76 181 106 121
38 180 44 389 41 179 -2 197 -4 310 -35z m2285 -182 c0 -64 -4 -98 -10 -94 -6
3 -10 48 -10 101 0 56 4 94 10 94 6 0 10 -40 10 -101z m2559 -45 c3 -2 -2 -12
-11 -21 -11 -10 -53 -20 -120 -29 -110 -14 -345 -57 -415 -75 -23 -6 -50 -8
-60 -4 -14 6 -9 11 27 27 78 34 252 90 325 104 64 12 241 11 254 -2z m316
-104 c38 -11 81 -20 96 -20 47 0 127 -49 176 -109 70 -86 87 -130 80 -217 -13
-178 -119 -289 -477 -502 -323 -191 -651 -297 -995 -321 -82 -6 -257 -18 -388
-28 l-238 -17 -77 24 c-56 18 -106 25 -184 28 -60 2 -108 7 -108 13 0 5 14 9
31 9 86 0 380 62 478 101 118 47 116 67 -2 25 -144 -53 -232 -67 -405 -69
-163 -2 -179 3 -165 48 7 26 18 32 138 78 113 43 209 97 196 110 -5 5 -27 2
-52 -6 -105 -35 -138 -31 -76 9 75 50 509 214 777 295 52 15 133 40 180 55 47
14 128 37 180 51 94 24 135 43 93 43 -68 0 -766 -213 -947 -290 -50 -21 -154
-66 -231 -100 -77 -34 -150 -64 -162 -67 -34 -8 -28 11 12 38 35 24 44 44 23
51 -22 8 0 35 45 57 44 21 79 51 60 51 -5 0 -56 -25 -112 -55 -57 -30 -107
-55 -112 -55 -5 0 -9 8 -9 18 0 56 403 354 640 473 141 71 312 126 580 188
452 104 795 137 955 91z m-2785 -260 c0 -41 -19 -64 -47 -58 -21 4 -23 54 -4
102 11 28 12 28 31 11 13 -12 20 -31 20 -55z m640 -38 c0 -8 -26 -34 -62 -60
-31 -24 -28 6 4 37 30 30 58 40 58 23z m-452 -60 c5 -30 -11 -48 -50 -56 -36
-7 -58 7 -58 38 0 33 21 47 65 44 33 -2 41 -7 43 -26z m-188 -41 c0 -10 -7
-24 -16 -31 -12 -11 -18 -11 -30 2 -20 20 -7 48 22 48 17 0 24 -6 24 -19z
m300 -49 c0 -10 -5 -23 -12 -30 -21 -21 -48 -14 -48 11 0 13 3 27 7 30 3 4 17
7 30 7 15 0 23 -6 23 -18z m270 -13 c0 -18 -62 -71 -72 -61 -13 13 1 41 31 57
32 17 41 18 41 4z m-640 -33 c0 -18 -37 -49 -49 -41 -18 10 -13 33 11 49 23
16 38 13 38 -8z m255 -8 c-4 -13 -18 -33 -32 -46 -15 -14 -23 -29 -19 -38 3
-9 -3 -27 -14 -41 -25 -32 -25 -34 1 -62 15 -16 28 -21 48 -16 22 5 29 0 44
-25 18 -30 40 -39 52 -20 3 5 -1 21 -10 34 -16 25 -16 25 34 47 29 12 56 29
61 38 7 13 11 14 21 3 11 -10 10 -18 -5 -42 -15 -27 -16 -31 -1 -36 8 -4 22
-1 29 5 19 16 30 -2 22 -35 -6 -22 -11 -25 -51 -23 -25 2 -46 1 -48 -2 -22
-26 -57 -87 -57 -99 0 -9 6 -25 14 -35 13 -19 15 -19 54 -1 27 12 39 23 35 32
-6 17 14 44 33 44 19 0 18 -47 -2 -58 -8 -5 -18 -27 -21 -50 -3 -23 -12 -47
-19 -53 -22 -18 -16 -38 11 -45 25 -6 37 -44 14 -44 -5 0 -17 -16 -25 -35 -17
-40 -14 -40 -60 -20 -38 16 -54 13 -54 -10 0 -19 18 -28 64 -35 47 -6 58 -26
22 -40 -31 -11 -33 -33 -6 -67 23 -30 26 -71 6 -98 -12 -16 -17 -17 -45 -6
-32 14 -39 25 -21 36 16 10 12 35 -5 35 -26 0 -76 -30 -69 -41 3 -6 -3 -24
-15 -40 -21 -29 -22 -29 -1 -29 11 0 29 5 39 12 15 9 29 9 61 -1 34 -10 41
-16 38 -34 -7 -47 -149 -43 -167 4 -6 19 -8 19 -21 4 -11 -13 -10 -20 8 -45
25 -33 27 -51 10 -68 -18 -18 -26 -15 -43 17 -17 34 -44 33 -85 -4 -14 -13
-34 -25 -45 -27 -13 -2 -20 -11 -20 -27 0 -13 -9 -29 -20 -35 -11 -6 -39 -28
-62 -48 -50 -45 -59 -46 -67 -12 -7 28 7 54 30 54 7 0 25 11 40 23 29 25 26
47 -7 47 -11 0 -31 11 -44 26 -21 23 -24 24 -37 8 -48 -60 -88 -94 -112 -94
-14 0 -26 3 -26 6 0 4 18 27 41 51 39 42 40 45 24 63 -25 27 -64 32 -120 16
-27 -9 -51 -13 -53 -11 -10 10 13 25 61 41 60 19 77 31 77 51 0 11 -7 14 -22
10 -95 -21 -86 -24 -107 25 -28 67 -69 77 -115 29 -23 -24 -35 -29 -57 -24
-24 4 -30 1 -40 -21 -20 -43 -45 -33 -53 20 -5 36 -1 53 17 85 26 46 37 49 37
12 0 -57 15 -61 62 -18 23 22 45 41 47 42 12 7 -35 43 -55 43 -28 0 -49 30
-58 83 -6 34 -10 37 -40 37 -19 0 -50 -7 -69 -15 -28 -12 -42 -12 -61 -4 -25
12 -25 13 -10 48 26 62 36 66 83 37 47 -30 61 -32 101 -11 34 17 35 22 15 49
-10 13 -11 25 -5 42 13 33 -2 38 -43 14 -24 -14 -43 -18 -65 -14 -50 10 -36
35 25 49 19 4 41 18 53 35 14 20 33 31 58 35 65 11 70 15 88 61 14 37 15 51 6
82 -10 32 -9 39 5 50 27 20 87 15 109 -9 10 -11 27 -25 37 -31 28 -15 57 16
57 61 0 26 8 44 32 68 43 44 62 44 55 -2 -7 -40 10 -57 29 -31 10 14 17 15 33
7 11 -6 31 -11 45 -11 14 0 28 -5 31 -10 3 -6 20 -17 36 -26 37 -19 65 -4 49
26 -15 27 -12 37 12 60 31 29 38 25 38 -20 0 -24 5 -40 12 -40 17 0 78 23 78
30 0 3 9 20 20 38 23 38 55 45 45 10z m-2630 1 c346 -33 535 -68 730 -134 555
-188 603 -206 743 -284 83 -45 83 -46 62 -63 -27 -22 -52 -22 -105 -4 -55 20
-123 31 -110 19 6 -5 31 -17 57 -27 88 -32 86 -70 -5 -82 l-51 -7 60 -21 c65
-23 82 -52 29 -50 -126 6 -217 6 -222 0 -3 -3 17 -6 45 -6 54 0 71 -12 52 -35
-19 -23 -2 -35 48 -35 48 0 82 -13 69 -26 -4 -4 -145 -7 -314 -8 -287 0 -302
-1 -218 -12 50 -7 161 -16 248 -20 86 -4 157 -10 157 -14 0 -12 -28 -20 -66
-20 -19 0 -34 -4 -34 -10 0 -13 73 -13 144 1 63 13 82 5 71 -30 -11 -35 -89
-51 -255 -51 -80 0 -172 5 -204 11 -88 16 -101 5 -16 -14 54 -13 130 -18 272
-20 108 -2 200 -5 203 -8 18 -19 -297 -75 -495 -90 -452 -32 -571 -33 -720 -4
-41 8 -190 33 -330 56 -273 43 -426 73 -610 121 -263 69 -334 120 -386 280
-48 146 -24 273 68 353 154 135 373 206 703 230 239 17 252 17 380 4z m1939
-5 c19 -19 20 -26 4 -42 -18 -18 -56 -14 -68 7 -7 15 -6 23 6 35 20 20 38 20
58 0z m826 -49 c26 -32 -22 -85 -60 -65 -26 14 -25 45 2 64 28 20 42 20 58 1z
m-3870 -130 c0 -2 -14 -19 -31 -36 -37 -38 -86 -139 -95 -198 -4 -27 0 -61 15
-109 11 -39 21 -85 21 -104 l-1 -33 -30 35 c-45 53 -54 95 -41 199 6 50 20
107 31 129 26 51 131 145 131 117z m6282 -270 c138 -48 243 -120 361 -244 173
-184 239 -344 179 -429 -55 -76 -260 -183 -437 -227 -169 -41 -460 -58 -617
-36 -52 7 -75 17 -114 46 -49 38 -288 161 -493 255 -63 29 -171 79 -239 111
-68 32 -126 59 -128 59 -2 0 -32 13 -66 29 -66 30 -201 75 -256 86 -49 10 -28
25 36 25 31 0 75 5 97 11 38 11 255 31 320 31 17 -1 80 -1 140 -2 132 -2 232
7 300 25 28 7 91 21 140 30 144 27 396 118 650 236 50 23 43 23 127 -6z
m-2190 -22 c26 -31 30 -55 12 -74 -19 -21 -49 -25 -59 -9 -13 21 -15 61 -5 80
13 25 32 25 52 3z m-1254 -200 l21 -48 -27 -22 c-15 -13 -38 -22 -52 -20 -23
2 -25 6 -21 42 4 48 26 95 45 95 7 0 23 -21 34 -47z m-128 12 c19 -23 4 -45
-30 -45 -22 0 -30 5 -30 18 0 37 38 54 60 27z m1328 -57 c19 -19 15 -26 -22
-38 -38 -12 -90 2 -84 22 8 24 86 36 106 16z m122 -53 c17 -21 5 -45 -24 -45
-25 0 -39 20 -30 45 8 19 38 19 54 0z m-1512 -52 c2 -22 -3 -37 -19 -52 -27
-25 -46 -26 -71 -4 -30 27 -22 52 25 73 52 24 61 22 65 -17z m124 -10 c34 -31
15 -113 -27 -113 -7 0 -22 8 -34 18 -19 15 -20 21 -11 54 6 21 18 42 28 47 22
14 23 14 44 -6z m1745 -18 c50 -15 71 -30 59 -42 -3 -3 -56 4 -118 15 -62 12
-130 24 -151 28 -28 5 -35 9 -25 16 19 13 173 2 235 -17z m-439 -17 c-3 -25
-34 -36 -50 -20 -17 17 -1 42 27 42 22 0 26 -4 23 -22z m-99 -19 c13 -38 7
-49 -25 -49 -30 0 -40 23 -26 56 16 33 38 30 51 -7z m-948 -19 c28 -15 23 -38
-11 -58 -17 -9 -33 -28 -37 -42 -6 -26 -31 -60 -43 -60 -4 0 -8 24 -8 53 0 45
4 56 31 85 34 35 39 37 68 22z m-2532 -29 c47 -11 140 -32 206 -47 66 -15 158
-32 205 -39 227 -33 380 -59 380 -66 0 -15 -67 -20 -126 -10 -32 5 -108 9
-169 9 -60 0 -144 5 -185 11 -159 24 -461 126 -445 151 9 14 36 13 134 -9z
m-189 -27 c187 -79 382 -139 500 -153 157 -19 453 -31 767 -31 171 0 314 -4
317 -9 6 -9 -55 -38 -126 -60 -34 -11 -36 -14 -25 -32 10 -17 9 -22 -3 -32 -9
-7 -99 -74 -200 -150 -102 -75 -220 -165 -263 -200 -117 -93 -172 -124 -282
-160 -98 -31 -104 -32 -280 -31 -144 0 -200 5 -280 22 -55 11 -136 26 -181 32
-91 12 -155 34 -266 92 -116 60 -176 128 -193 219 -21 110 125 365 257 450 50
33 142 76 163 78 6 1 49 -15 95 -35z m4090 12 c73 -12 91 -12 128 0 40 14 49
13 160 -17 284 -75 287 -77 490 -175 311 -152 488 -278 722 -513 189 -190 283
-333 330 -503 45 -165 8 -268 -120 -333 -86 -44 -281 -59 -395 -31 -97 23
-366 125 -409 154 -50 34 -108 118 -234 342 -129 229 -139 244 -276 400 -148
169 -175 193 -368 323 -92 61 -166 117 -165 122 2 6 16 12 32 15 26 5 24 7
-34 34 -33 16 -61 36 -61 43 0 17 42 17 84 -1 18 -7 66 -19 107 -26 41 -6 143
-36 227 -66 156 -55 201 -66 147 -37 -46 25 -169 70 -285 104 -58 16 -115 37
-127 45 -12 8 -36 14 -52 14 -31 0 -49 14 -31 25 16 10 4 22 -27 28 -48 10
-125 46 -118 57 9 14 175 12 275 -4z m-1525 -24 c6 -4 16 -15 24 -25 12 -15
11 -20 -4 -37 -17 -19 -18 -19 -56 11 -48 38 -51 59 -6 59 17 0 37 -4 42 -8z
m-275 -12 c19 -12 18 -12 -75 -51 -161 -66 -378 -197 -425 -256 -39 -50 -2
-35 77 32 109 91 385 226 412 200 3 -4 6 -12 6 -18 0 -12 21 -13 68 -1 20 5
27 3 27 -8 0 -23 -23 -39 -172 -123 -126 -70 -159 -95 -126 -95 7 0 79 36 160
81 104 57 156 79 175 77 45 -5 40 -32 -9 -45 -55 -15 -130 -78 -109 -92 11 -7
12 -15 5 -30 -11 -24 -175 -210 -286 -325 -43 -44 -78 -88 -78 -98 0 -30 -26
-83 -67 -140 -70 -95 -364 -645 -396 -740 -9 -26 -81 -74 -185 -124 -70 -33
-117 -48 -190 -60 -53 -8 -119 -19 -147 -24 -95 -17 -270 -12 -331 10 -80 28
-139 76 -170 137 l-26 53 22 92 c46 187 113 327 251 528 95 137 373 396 573
532 312 213 486 318 611 366 55 22 374 130 385 131 3 0 12 -3 20 -9z m1378
-45 c1 -19 6 -44 12 -54 14 -28 13 -31 -14 -31 -26 0 -56 33 -56 60 0 21 28
60 44 60 8 0 13 -14 14 -35z m-828 -40 c0 -9 -9 -34 -21 -57 -25 -48 -39 -41
-46 26 l-6 46 37 0 c26 0 36 -4 36 -15z m670 3 c0 -7 -7 -22 -15 -32 -23 -31
-18 -39 20 -32 39 8 40 7 23 -29 -13 -28 -42 -33 -56 -10 -4 9 -21 19 -38 24
-58 15 -32 91 31 91 22 0 35 -5 35 -12z m-180 -18 c16 -8 19 -20 17 -67 -3
-57 -12 -71 -42 -59 -12 4 -13 10 -3 31 10 22 8 29 -12 50 -37 39 -9 71 40 45z
m-602 -43 c6 -53 -40 -78 -58 -31 -13 34 4 66 33 62 16 -2 23 -11 25 -31z
m-143 -5 c9 -23 -21 -49 -42 -36 -24 15 -26 29 -8 47 18 18 40 13 50 -11z
m645 -41 c0 -16 -5 -42 -11 -58 -12 -34 -58 -83 -76 -83 -18 0 -17 29 2 36 21
8 28 40 15 65 -10 17 -8 25 11 45 32 34 59 32 59 -5z m701 -46 c47 -26 106
-81 97 -90 -10 -10 -167 91 -168 108 0 14 27 7 71 -18z m-1345 -9 c3 -7 -6
-42 -20 -76 -32 -78 -33 -94 -3 -56 14 17 29 26 35 22 8 -5 -7 -43 -48 -122
-38 -75 -63 -137 -70 -177 -7 -34 -27 -100 -45 -147 -54 -135 -60 -198 -8 -75
142 332 287 595 329 595 19 0 18 -53 -2 -92 -11 -21 -14 -42 -9 -67 9 -52 9
-81 0 -121 -6 -29 -5 -33 5 -23 8 7 19 38 25 70 10 50 15 58 41 66 42 14 51
24 59 63 3 19 11 34 17 32 15 -5 17 -86 2 -106 -8 -9 -14 -25 -14 -35 0 -9
-11 -50 -25 -89 -27 -78 -29 -88 -16 -88 5 0 18 21 29 48 l20 47 1 -44 c1 -24
-6 -70 -15 -103 -8 -33 -13 -65 -11 -71 6 -18 67 169 76 234 8 61 30 95 56 86
12 -5 12 -16 -8 -137 -34 -207 -59 -328 -111 -532 -99 -386 -157 -525 -320
-773 -51 -77 -146 -221 -210 -320 -65 -99 -134 -195 -154 -213 -75 -66 -141
-113 -233 -163 -180 -99 -313 -123 -415 -75 -96 45 -123 108 -134 316 -12 212
11 433 59 571 38 111 269 552 345 659 18 25 54 81 80 125 143 236 506 705 547
705 17 0 9 -31 -23 -88 -84 -152 -138 -257 -138 -271 0 -28 26 9 109 157 44
78 93 158 110 178 19 21 31 46 31 63 0 15 3 31 7 34 11 12 43 7 49 -7z m3844
-45 c0 -5 -21 -28 -47 -51 -57 -50 -196 -111 -303 -133 -159 -33 -220 -38
-305 -22 -44 8 -81 14 -82 15 -2 0 -3 4 -3 8 0 5 55 14 122 21 204 20 380 66
543 143 65 30 75 33 75 19z m-2617 -27 c18 -9 49 -30 70 -46 35 -28 37 -28 37
-9 0 37 32 24 176 -71 125 -82 159 -111 334 -287 211 -213 252 -264 356 -446
165 -291 230 -433 269 -587 23 -87 25 -117 26 -316 1 -197 -2 -228 -21 -301
-39 -141 -105 -211 -200 -211 -100 0 -271 62 -387 141 -93 63 -265 212 -313
272 -26 32 -75 110 -109 171 -66 122 -130 206 -131 171 0 -11 16 -43 36 -70
56 -78 90 -165 64 -165 -14 0 -157 194 -215 293 -27 45 -72 119 -101 164 -31
47 -71 129 -95 195 -23 62 -45 118 -50 123 -4 6 -24 53 -44 105 -38 98 -55
192 -38 203 10 6 29 -35 173 -358 84 -188 102 -224 173 -338 67 -108 87 -131
87 -100 0 10 -21 52 -46 93 -65 106 -144 259 -193 374 -24 55 -60 135 -82 178
-22 43 -53 131 -70 196 -16 64 -41 153 -53 197 -61 210 -78 323 -51 332 6 2
37 -77 69 -174 68 -208 101 -288 135 -325 38 -43 37 -25 -2 49 -19 37 -47 109
-62 158 -15 50 -37 122 -51 160 -13 39 -24 84 -24 100 l1 30 22 -26 c12 -15
37 -52 55 -82 35 -58 72 -98 72 -78 0 6 -20 52 -45 101 -25 49 -45 96 -45 105
0 35 30 9 88 -77 107 -159 236 -313 253 -302 5 3 -4 22 -21 42 -116 140 -270
373 -270 410 0 14 26 16 35 2 3 -5 25 -10 48 -10 23 -1 53 -7 67 -15 38 -22
57 -19 36 4 -10 11 -15 25 -11 30 8 14 10 14 48 -5z m-545 -22 c5 -36 -24 -72
-57 -72 -50 0 -49 49 2 85 29 20 51 15 55 -13z m-94 -117 c20 -18 26 -34 26
-65 0 -22 5 -40 10 -40 6 0 10 17 10 38 0 44 17 67 37 51 9 -8 13 -40 13 -110
0 -103 15 -236 31 -272 6 -15 8 34 6 143 -5 198 9 264 28 135 19 -128 93 -461
127 -570 30 -100 124 -338 158 -405 10 -19 36 -64 59 -100 22 -36 48 -78 57
-95 85 -157 199 -309 350 -465 79 -82 82 -87 93 -151 31 -180 -1 -344 -97
-499 -29 -47 -140 -158 -177 -177 -46 -24 -155 -29 -214 -9 -158 51 -345 226
-472 442 -141 238 -206 391 -244 577 -29 143 -65 427 -66 530 -1 77 32 302 56
377 7 25 16 74 20 110 3 36 15 119 25 185 11 66 24 170 30 230 6 61 15 114 20
119 14 14 19 -42 24 -269 6 -235 29 -516 48 -579 l13 -41 3 45 c2 25 -1 70 -7
100 -25 130 -38 429 -26 635 9 174 10 176 59 130z m1160 -72 c53 -53 66 -73
49 -73 -12 0 -133 110 -133 121 0 23 32 5 84 -48z m-895 -232 c13 -40 15 -101
3 -101 -10 0 -32 89 -32 128 0 32 13 20 29 -27z m2418 -103 c35 -40 83 -116
135 -216 l50 -97 -6 -85 c-11 -133 -31 -189 -58 -162 -7 7 -5 25 7 56 31 80
-5 218 -105 400 -33 61 -60 114 -60 118 0 15 16 8 37 -14z m-5237 -202 c0 -7
-8 -24 -18 -37 -73 -94 -177 -348 -189 -462 -6 -61 -23 -94 -41 -83 -19 12
-15 201 6 262 28 79 99 196 164 268 59 66 78 78 78 52z m2230 -631 c5 -14 16
-110 24 -213 14 -182 15 -191 66 -341 l52 -154 -18 -46 c-126 -336 -275 -519
-492 -604 -70 -26 -78 -28 -126 -16 -127 30 -178 84 -231 244 -14 44 -30 111
-36 149 l-9 70 32 34 c18 18 68 64 111 100 159 135 348 373 464 584 71 130 93
159 93 122 0 -26 18 -6 30 34 6 20 13 43 15 50 6 19 15 14 25 -13z m-190 -150
c0 -13 -30 -63 -46 -76 -16 -13 -17 -12 -10 16 8 31 33 65 48 65 4 0 8 -2 8
-5z m-170 -268 c0 -20 -30 -57 -46 -57 -20 0 -17 20 8 47 24 26 38 29 38 10z
m-1116 -227 c4 -85 9 -176 12 -203 5 -41 4 -46 -10 -41 -27 10 -46 58 -56 141
-15 115 12 296 40 267 4 -5 11 -79 14 -164z m1807 -298 c28 -50 47 -92 42 -92
-30 0 -113 124 -113 168 0 41 20 20 71 -76z"/>
<path d="M3151 5285 c0 -35 7 -67 25 -105 36 -74 42 -47 10 43 -14 39 -27 81
-29 92 -3 11 -5 -2 -6 -30z"/>
<path d="M3220 5091 c0 -20 68 -128 85 -135 23 -9 18 7 -21 65 -47 69 -64 88
-64 70z"/>
<path d="M3180 4581 c0 -5 9 -19 19 -32 20 -25 38 -21 28 5 -7 17 -47 41 -47
27z"/>
<path d="M4790 5838 c-1 -18 -7 -62 -15 -98 -21 -96 -18 -127 6 -60 24 67 37
190 20 190 -6 0 -11 -15 -11 -32z"/>
<path d="M4577 5496 c-19 -43 -22 -66 -8 -66 12 0 34 65 29 87 -3 13 -9 7 -21
-21z"/>
<path d="M4528 5332 c-9 -28 -12 -52 -7 -52 14 0 30 50 27 79 -2 21 -6 15 -20
-27z"/>
<path d="M1485 4660 c-8 -13 5 -17 78 -24 32 -4 91 -15 130 -26 39 -11 81 -20
92 -20 45 1 -40 32 -151 56 -128 27 -140 28 -149 14z"/>
<path d="M1990 4533 c0 -3 8 -12 18 -19 17 -14 81 -20 68 -7 -10 10 -86 32
-86 26z"/>
<path d="M2120 4486 c0 -9 61 -38 68 -32 3 4 1 10 -4 15 -11 12 -64 25 -64 17z"/>
<path d="M2255 4426 c35 -18 64 -21 49 -6 -5 5 -25 12 -44 15 l-35 5 30 -14z"/>
<path d="M2580 4357 c0 -14 138 -73 148 -63 7 8 7 8 -72 44 -79 37 -76 36 -76
19z"/>
<path d="M5880 4310 c-136 -17 -357 -80 -420 -120 -30 -19 3 -24 48 -6 160 61
404 113 587 126 l100 7 -125 0 c-69 0 -154 -3 -190 -7z"/>
<path d="M3972 3974 c2 -11 11 -20 22 -22 13 -3 17 1 14 14 -2 11 -11 20 -22
22 -13 3 -17 -1 -14 -14z"/>
<path d="M3330 3750 c-18 -14 -22 -22 -14 -30 17 -17 44 -1 44 26 0 29 1 28
-30 4z"/>
<path d="M3784 3408 c-8 -13 22 -38 48 -38 21 0 24 20 6 38 -15 15 -45 15 -54
0z"/>
<path d="M2359 3984 c-6 -8 -8 -14 -3 -15 5 0 28 -2 52 -5 53 -5 55 10 2 24
-31 8 -42 7 -51 -4z"/>
<path d="M2584 3949 c-13 -5 -7 -8 24 -8 23 -1 42 1 42 3 0 8 -48 12 -66 5z"/>
<path d="M1420 3782 c0 -16 76 -44 106 -40 29 4 29 4 -16 26 -46 22 -90 29
-90 14z"/>
<path d="M1826 3671 c-11 -17 287 -63 389 -59 38 1 42 2 15 5 -28 3 -191 28
-372 58 -15 2 -29 1 -32 -4z"/>
<path d="M2518 3673 c17 -2 47 -2 65 0 17 2 3 4 -33 4 -36 0 -50 -2 -32 -4z"/>
<path d="M2001 3104 c-62 -19 -65 -28 -6 -20 65 9 85 15 85 27 0 12 -26 10
-79 -7z"/>
<path d="M1775 3070 c-133 -25 -251 -40 -323 -40 -83 0 -128 -12 -117 -31 4
-5 11 -7 16 -3 5 3 78 12 162 20 304 27 387 40 387 59 0 7 -77 4 -125 -5z"/>
<path d="M2694 3036 c-31 -14 -50 -33 -42 -42 6 -6 88 39 88 49 0 10 -10 8
-46 -7z"/>
<path d="M2580 2955 c-7 -8 -8 -15 -2 -15 5 0 15 7 22 15 7 8 8 15 2 15 -5 0
-15 -7 -22 -15z"/>
<path d="M2785 2950 c-10 -11 -14 -20 -8 -20 5 0 18 9 28 20 10 11 14 20 8 20
-5 0 -18 -9 -28 -20z"/>
<path d="M2457 2862 c-25 -28 -20 -34 13 -17 17 9 30 20 30 25 0 16 -26 11
-43 -8z"/>
<path d="M2236 2789 c-50 -34 -56 -50 -9 -26 26 14 73 57 61 57 -2 0 -26 -14
-52 -31z"/>
<path d="M2190 2612 c-16 -17 -30 -36 -30 -44 0 -7 17 4 37 24 20 21 34 40 30
44 -3 3 -20 -7 -37 -24z"/>
<path d="M1992 2367 c-23 -25 -28 -37 -13 -37 10 0 45 50 39 56 -3 2 -14 -6
-26 -19z"/>
<path d="M1812 2118 c-7 -7 -12 -19 -12 -27 0 -11 4 -10 20 4 21 19 26 35 12
35 -4 0 -13 -5 -20 -12z"/>
<path d="M3311 2383 c-6 -21 -11 -45 -11 -55 0 -9 -16 -60 -36 -115 -19 -54
-46 -129 -59 -168 -12 -38 -30 -87 -39 -107 -19 -44 -19 -48 -6 -48 14 0 33
41 84 189 50 144 96 300 96 325 0 30 -19 16 -29 -21z"/>
<path d="M3050 2374 c-6 -14 -10 -33 -10 -42 0 -24 19 -2 29 36 12 39 -5 44
-19 6z"/>
<path d="M4610 2541 c0 -20 117 -154 124 -143 3 5 -20 40 -51 80 -51 66 -73
85 -73 63z"/>
<path d="M4490 2513 c0 -39 303 -463 331 -463 17 0 9 12 -79 129 -49 64 -123
169 -166 234 -42 64 -79 117 -82 117 -2 0 -4 -8 -4 -17z"/>
<path d="M4677 2040 c21 -37 71 -86 78 -78 8 8 -68 108 -83 108 -10 0 -8 -8 5
-30z"/>
<path d="M4860 2006 c0 -15 20 -44 35 -50 12 -4 13 -2 6 13 -11 20 -41 47 -41
37z"/>
<path d="M4780 1919 c0 -8 11 -26 25 -39 32 -30 33 -10 0 27 -17 20 -24 23
-25 12z"/>
</g>
</svg>
