<?xml version="1.0" standalone="no"?>
<!DOCTYPE svg PUBLIC "-//W3C//DTD SVG 20010904//EN"
 "http://www.w3.org/TR/2001/REC-SVG-20010904/DTD/svg10.dtd">
<svg version="1.0" xmlns="http://www.w3.org/2000/svg"
 width="736.000000pt" height="736.000000pt" viewBox="0 0 736.000000 736.000000"
 preserveAspectRatio="xMidYMid meet">

<g transform="translate(0.000000,736.000000) scale(0.100000,-0.100000)"
fill="currentColor" stroke="none">
<path d="M4354 7226 c-17 -8 -47 -33 -65 -56 -23 -29 -57 -53 -105 -76 -60
-28 -87 -50 -167 -136 -53 -57 -114 -113 -136 -126 l-41 -23 -20 33 c-11 18
-25 51 -30 73 -33 128 -92 205 -200 258 -46 23 -66 27 -134 26 -223 -2 -264
-26 -567 -330 -187 -189 -225 -222 -288 -253 -39 -20 -89 -52 -109 -71 -21
-19 -50 -39 -65 -44 -22 -8 -30 -23 -47 -83 -60 -210 -74 -241 -159 -368 -101
-152 -115 -181 -143 -306 -19 -85 -23 -130 -23 -314 -1 -118 -2 -244 -3 -279
l-2 -64 -84 85 c-107 108 -205 181 -281 210 -52 20 -78 23 -200 23 -131 0
-143 -2 -190 -26 -83 -42 -178 -120 -244 -199 -104 -125 -258 -259 -352 -309
-125 -66 -196 -117 -271 -192 -72 -73 -73 -74 -107 -249 -27 -133 -27 -204 0
-281 17 -48 20 -77 16 -128 -7 -92 -35 -148 -119 -239 -125 -134 -189 -284
-159 -375 26 -79 145 -146 279 -158 68 -5 106 -15 172 -44 101 -44 223 -87
300 -105 30 -7 75 -23 100 -35 25 -13 87 -37 139 -53 85 -28 136 -57 183 -104
16 -16 12 -21 -69 -100 -187 -182 -271 -337 -334 -618 -16 -71 -23 -142 -26
-281 -6 -208 -9 -185 77 -459 64 -205 68 -219 85 -353 16 -120 39 -201 71
-252 62 -97 92 -129 169 -175 136 -82 171 -93 325 -97 l135 -5 121 60 c67 33
125 66 129 72 10 16 105 60 131 60 11 0 32 -12 46 -27 28 -29 44 -74 103 -288
38 -136 64 -192 122 -256 57 -63 93 -71 299 -67 l179 4 115 55 c124 60 165 74
250 84 152 18 243 58 410 180 70 50 240 195 240 203 0 4 34 43 76 86 104 109
149 179 205 319 26 66 55 127 63 135 13 14 25 9 113 -48 267 -173 328 -217
453 -327 166 -144 189 -162 266 -201 91 -46 175 -65 284 -65 81 0 120 6 265
45 195 52 221 63 356 160 136 98 448 393 493 466 83 138 93 270 34 466 -17 58
-19 74 -9 107 17 57 55 74 337 154 79 23 136 67 226 177 112 137 117 147 139
260 33 172 21 285 -44 397 -40 72 -161 197 -309 323 -65 55 -118 104 -118 108
0 5 37 35 83 66 175 123 286 224 354 324 39 57 129 236 159 318 13 35 33 104
45 155 29 130 23 205 -26 305 -33 67 -55 94 -176 212 -88 86 -144 149 -154
172 -17 42 -19 123 -5 185 6 23 14 103 20 176 l9 134 -39 79 c-22 43 -51 113
-65 155 -15 43 -39 95 -54 116 -37 51 -156 141 -258 195 -45 24 -115 72 -155
106 -86 72 -288 196 -346 211 -84 23 -227 30 -299 15 -208 -43 -350 -110 -511
-241 -30 -24 -58 -43 -62 -43 -4 0 -8 34 -9 75 -1 86 -25 253 -48 335 -8 30
-33 90 -54 134 -36 72 -63 117 -155 266 -37 59 -45 84 -62 195 -22 142 -132
304 -239 355 -61 29 -193 38 -239 16z m-747 -109 c84 -57 104 -85 141 -202 10
-33 22 -68 26 -77 14 -31 -37 -34 -86 -5 -33 19 -55 45 -92 108 -85 142 -113
159 -268 159 -49 0 -88 4 -88 9 0 17 81 41 143 42 34 1 73 5 87 9 45 15 58 10
137 -43z m940 -7 c26 -11 61 -33 77 -48 39 -37 196 -369 196 -415 0 -13 23
-94 51 -182 28 -88 62 -200 75 -250 13 -49 31 -110 39 -135 8 -25 19 -88 25
-140 6 -52 15 -124 21 -159 17 -94 6 -338 -19 -441 -48 -195 -145 -401 -291
-615 -30 -44 -64 -94 -75 -110 -97 -141 -239 -285 -281 -285 -14 0 -46 -12
-71 -26 -54 -32 -57 -19 -14 49 31 49 80 142 80 152 0 20 -25 -6 -63 -67 -52
-84 -97 -131 -118 -123 -8 3 -20 15 -27 26 -11 18 -7 32 38 113 45 85 65 146
41 131 -6 -3 -25 -33 -43 -66 -31 -57 -35 -60 -63 -55 -40 8 -45 22 -28 72 8
23 13 57 11 75 -3 29 -6 25 -37 -47 -18 -44 -50 -104 -71 -134 -21 -30 -53
-90 -71 -132 -17 -43 -36 -75 -40 -72 -5 3 -9 30 -9 60 0 72 -20 68 -38 -7
-15 -57 -24 -69 -59 -69 -38 0 -53 26 -53 94 0 44 -6 74 -22 106 -32 62 -94
101 -127 81 -13 -8 -12 -17 4 -64 21 -64 29 -75 73 -106 32 -22 33 -25 30 -85
-3 -59 -4 -61 -28 -58 -14 2 -40 3 -57 3 l-33 -1 0 68 c-1 85 -33 310 -49 340
-16 30 -42 28 -72 -5 -56 -62 -66 -143 -23 -178 22 -18 30 -38 45 -111 19 -96
17 -104 -31 -124 -27 -11 -30 -17 -30 -56 0 -59 -17 -57 -72 7 -24 29 -64 74
-90 102 -27 27 -48 51 -48 53 0 2 14 4 31 4 44 0 91 49 87 91 -3 32 -8 37 -62
61 -22 9 -47 42 -90 115 -34 57 -64 103 -68 103 -16 0 -7 -33 28 -101 47 -94
34 -109 -35 -43 -28 27 -51 52 -51 55 0 4 -19 38 -42 75 -48 80 -89 167 -125
268 -29 81 -43 102 -43 63 0 -27 56 -189 85 -248 41 -83 91 -159 108 -165 9
-3 17 -12 17 -21 0 -8 30 -48 66 -89 50 -56 64 -78 59 -93 -3 -11 -1 -30 5
-41 7 -12 9 -24 6 -27 -11 -11 -132 20 -170 44 -24 16 -42 21 -48 15 -11 -11
6 -29 78 -82 28 -22 62 -53 75 -71 22 -31 107 -79 142 -79 13 0 17 -8 17 -35
0 -20 7 -49 15 -65 14 -27 14 -30 -4 -40 -11 -5 -24 -10 -30 -10 -6 0 -33 -14
-61 -31 l-50 -31 -53 21 c-28 11 -73 23 -99 26 -31 4 -53 13 -61 25 -7 11 -26
26 -41 34 -25 13 -32 13 -62 -2 -29 -13 -42 -14 -82 -4 -26 6 -64 14 -84 18
-53 9 -49 -12 5 -26 23 -6 56 -16 74 -21 33 -11 83 -54 83 -73 0 -7 -23 -34
-51 -61 -64 -63 -73 -79 -59 -106 6 -11 11 -44 11 -74 0 -33 8 -68 20 -91 10
-21 19 -39 19 -40 0 -1 -27 -12 -59 -24 -100 -37 -110 -66 -49 -136 46 -52 88
-44 88 17 0 21 40 42 64 33 18 -7 39 -56 34 -81 -2 -10 -21 -27 -43 -38 -36
-17 -38 -19 -16 -23 25 -4 131 27 191 56 42 21 48 48 8 44 -23 -2 -30 4 -53
50 -14 28 -25 63 -23 77 3 23 11 28 68 43 83 21 115 22 134 2 14 -14 14 -18 1
-37 -22 -31 -19 -54 11 -84 19 -19 33 -24 55 -21 16 3 29 2 30 -1 0 -3 3 -30
5 -60 3 -38 11 -62 26 -78 21 -22 21 -23 3 -43 -24 -26 -43 -11 -51 41 -6 33
-10 39 -31 39 -46 0 -120 -49 -221 -147 -109 -105 -123 -132 -103 -190 11 -29
10 -37 -9 -63 -12 -16 -33 -33 -48 -36 -15 -3 -94 -29 -177 -59 -305 -108
-536 -170 -599 -160 -102 16 -235 113 -280 204 -13 25 -33 91 -44 147 -12 57
-38 139 -60 190 -22 49 -48 116 -58 148 -18 59 -29 73 -164 216 -46 49 -100
64 -205 57 -99 -7 -182 -36 -312 -110 -160 -91 -245 -124 -361 -139 -93 -13
-114 -13 -200 2 -119 21 -192 54 -205 92 -21 67 48 198 174 330 71 74 131 154
164 217 23 46 15 138 -22 246 -23 67 -27 97 -27 190 -1 93 2 115 19 145 43 73
165 144 366 215 36 12 79 29 95 38 49 25 110 99 133 161 31 84 48 113 93 162
74 80 123 104 260 125 68 10 146 19 174 19 73 0 177 -34 261 -86 83 -51 243
-215 243 -248 0 -12 -11 -93 -25 -181 -13 -88 -21 -163 -17 -166 4 -4 15 -9
25 -11 11 -2 36 -36 64 -88 56 -106 76 -128 186 -197 101 -64 146 -82 286
-118 56 -14 124 -34 152 -45 55 -22 77 -24 99 -10 30 19 -22 47 -155 85 -71
21 -161 54 -200 73 -79 41 -181 136 -212 197 -27 53 -47 193 -41 292 5 90 28
148 131 326 98 169 163 380 179 582 18 218 15 275 -21 395 -38 130 -39 173 -2
278 43 124 67 155 156 197 41 20 98 54 126 75 50 37 72 62 169 189 53 69 120
122 210 165 62 30 70 31 181 29 64 -1 128 -7 142 -12 16 -7 40 -35 68 -83 46
-80 90 -132 130 -153 14 -8 78 -27 142 -44 108 -28 119 -29 167 -17 35 9 65
26 92 52 51 49 166 202 202 271 50 91 154 116 273 63z m-337 -73 c0 -7 -16
-40 -35 -72 -90 -148 -198 -231 -255 -195 -12 8 -3 21 50 72 36 35 86 88 112
119 56 66 128 109 128 76z m792 -646 c22 -47 49 -110 60 -140 36 -102 58 -351
39 -436 l-7 -30 -12 36 c-7 19 -21 87 -31 150 -11 63 -29 134 -40 159 -11 25
-21 61 -21 80 0 19 -16 80 -35 134 -34 97 -42 145 -28 160 11 10 29 -17 75
-113z m-2662 -261 c0 -22 -53 -148 -115 -270 -36 -72 -72 -160 -80 -195 -19
-81 -25 -95 -38 -95 -15 0 -2 127 23 212 28 91 46 128 128 256 61 94 82 118
82 92z m126 -83 c11 -34 13 -52 6 -59 -16 -16 -52 64 -52 114 1 42 1 43 15 18
8 -14 22 -47 31 -73z m3510 4 c134 -21 156 -30 235 -93 86 -69 215 -159 328
-228 118 -72 180 -130 234 -221 l39 -64 -6 -110 c-3 -60 -13 -148 -22 -194
-26 -137 -18 -208 39 -326 61 -125 126 -224 181 -272 51 -45 146 -172 188
-251 30 -56 30 -59 24 -167 -3 -60 -12 -137 -20 -170 -18 -72 -154 -337 -203
-394 -88 -103 -399 -291 -481 -291 -15 0 -126 32 -247 70 -211 67 -301 89
-520 126 -155 26 -204 28 -270 10 -74 -19 -187 -31 -420 -47 l-181 -12 -69 40
c-77 43 -93 68 -48 79 40 10 102 61 109 90 4 17 0 31 -12 45 -24 27 -15 32
105 53 54 9 107 24 117 32 21 17 18 17 -121 -6 -38 -6 -113 -14 -165 -19 -52
-4 -106 -13 -119 -20 -22 -12 -26 -11 -48 18 -14 17 -39 39 -56 47 -30 16 -32
16 -50 -7 -15 -19 -18 -33 -13 -68 9 -66 29 -91 72 -91 30 0 37 4 49 34 12 27
21 35 52 40 21 4 46 9 56 12 29 9 19 -14 -23 -53 -33 -31 -40 -45 -40 -75 0
-42 -10 -46 -55 -26 -20 9 -37 9 -69 0 -33 -9 -55 -8 -102 3 -32 8 -105 14
-161 15 -82 0 -103 3 -103 14 0 32 15 48 71 76 45 23 72 30 119 30 60 0 80 12
38 24 -13 3 -39 6 -59 6 -19 0 -44 7 -55 15 -18 14 -18 16 -1 29 10 8 46 17
81 21 l63 6 7 61 c3 34 6 81 6 106 0 35 7 54 36 93 45 61 43 93 -4 97 -19 2
-44 -4 -58 -13 -32 -21 -64 -73 -64 -105 0 -22 -12 -32 -70 -64 -51 -27 -78
-36 -95 -32 -38 10 -30 32 24 71 81 58 77 87 -5 39 -42 -25 -46 -25 -69 -10
-30 20 -75 21 -101 1 -42 -32 -45 -11 -8 66 28 59 60 99 80 99 7 0 35 18 63
40 28 22 53 40 57 40 4 0 4 -16 1 -35 -6 -37 7 -59 44 -70 17 -6 19 -12 13
-51 -9 -63 11 -58 84 22 54 60 64 66 104 68 46 4 76 16 116 47 27 20 12 35
-18 19 -12 -6 -30 -10 -42 -8 -18 3 -14 11 35 72 30 37 75 106 101 151 25 46
78 137 117 202 102 171 182 341 224 478 84 274 95 315 105 415 6 58 19 123 29
145 24 53 151 173 240 224 194 114 345 140 587 102z m-3554 -83 c38 -75 42
-90 42 -153 0 -58 -6 -83 -36 -150 -20 -44 -74 -165 -120 -270 -161 -361 -191
-425 -200 -425 -16 0 -5 209 23 438 16 135 75 346 117 421 21 36 54 101 74
144 21 42 42 77 47 77 6 0 30 -37 53 -82z m38 -397 c0 -11 -25 -92 -56 -182
-39 -112 -73 -188 -110 -250 -30 -49 -70 -123 -90 -164 -19 -41 -40 -77 -45
-80 -27 -17 0 69 80 255 165 381 221 488 221 421z m-1020 -210 c24 -7 24 -7
-10 -21 -39 -16 -113 -20 -119 -5 -10 26 71 42 129 26z m5458 -91 c22 -41 -3
-359 -30 -386 -15 -15 -17 -14 -33 16 -32 62 -28 196 11 378 6 30 34 26 52 -8z
m-5933 -270 c15 -25 -55 -99 -128 -137 -81 -40 -89 -24 -17 34 36 28 78 65 94
82 32 33 41 37 51 21z m1200 -406 c11 -64 -8 -60 -49 12 l-38 64 17 73 c10 39
25 88 33 107 16 35 16 34 23 -90 3 -69 9 -144 14 -166z m1353 -223 c-2 -14 -7
-26 -13 -26 -13 0 -34 66 -27 84 9 23 44 -28 40 -58z m1012 -8 c0 -21 -153
-183 -172 -183 -29 0 36 94 99 144 57 45 73 54 73 39z m-520 -75 c0 -23 -49
-118 -60 -118 -29 0 -18 70 18 113 17 20 42 23 42 5z m-3636 -30 c8 -18 20
-68 26 -110 10 -62 10 -84 0 -108 -18 -43 -33 -38 -25 9 5 30 0 57 -19 111
-26 71 -32 111 -19 123 13 14 24 6 37 -25z m3134 -134 c27 -19 30 -54 3 -54
-29 0 -65 34 -58 53 8 21 26 22 55 1z m440 -77 c4 -41 -6 -46 -43 -21 -31 20
-45 11 -45 -29 0 -50 -11 -59 -70 -55 -44 3 -56 7 -74 31 l-20 27 30 31 c27
26 34 29 57 20 23 -9 30 -7 43 8 9 10 24 16 34 14 10 -3 27 0 37 6 31 19 48 9
51 -32z m-580 -37 c2 -34 2 -34 -14 -15 -8 11 -20 28 -26 38 -8 16 -6 18 14
15 18 -2 24 -10 26 -38z m262 0 c8 -14 8 -26 -1 -41 -6 -12 -9 -38 -6 -58 5
-30 1 -42 -23 -69 -30 -36 -48 -37 -97 -4 -24 15 -31 56 -13 67 6 3 10 13 10
21 0 11 -8 13 -34 9 -38 -8 -53 12 -36 45 18 33 47 43 86 30 29 -10 39 -9 57
4 30 21 44 20 57 -4z m688 -142 c-5 -24 -16 -50 -24 -58 -13 -13 -16 -13 -24
0 -5 8 -10 29 -10 47 0 25 6 36 27 47 38 19 43 13 31 -36z m-1283 28 c56 -12
85 -28 85 -47 0 -29 -15 -31 -85 -12 -43 11 -67 23 -71 35 -7 24 4 40 24 34
10 -2 31 -7 47 -10z m833 -30 l68 -34 21 24 c27 30 43 25 103 -31 25 -23 57
-49 71 -57 39 -25 55 -70 40 -119 -10 -34 -16 -39 -42 -39 -37 0 -46 20 -24
53 21 32 4 45 -30 23 -18 -12 -25 -25 -25 -49 0 -39 -24 -77 -49 -77 -11 0
-29 -8 -41 -18 l-23 -19 28 -46 c15 -26 33 -47 39 -47 15 0 40 27 49 53 12 33
32 12 31 -32 -1 -73 -66 -121 -109 -81 -16 15 -30 20 -44 15 -27 -8 -26 -19 1
-58 30 -44 35 -46 76 -35 29 8 43 7 69 -7 18 -10 33 -24 33 -30 0 -14 -88 -55
-116 -55 -18 0 -84 38 -84 48 0 4 -11 19 -25 34 -16 17 -31 25 -44 21 -13 -3
-29 4 -47 22 -24 24 -25 28 -11 42 11 12 19 12 35 4 29 -16 34 -14 30 11 -4
25 -48 41 -82 29 -16 -7 -26 -26 -41 -80 -21 -77 -39 -90 -56 -41 -13 36 -29
39 -29 6 0 -51 -53 -52 -62 -1 -2 11 -12 21 -22 23 -11 3 -32 17 -47 32 -15
15 -40 32 -56 39 -21 9 -33 25 -47 64 -17 48 -93 137 -118 137 -5 0 -13 -11
-18 -25 -10 -25 -50 -36 -50 -14 0 6 -17 27 -37 46 l-38 35 60 -4 c58 -3 60
-2 60 22 0 18 -7 26 -25 30 -20 5 -26 13 -28 43 -4 51 18 58 63 18 46 -40 77
-40 107 -1 13 17 33 43 45 58 l22 27 38 -21 c59 -34 50 -58 -14 -38 -28 8 -31
-11 -6 -38 23 -25 57 -23 84 7 30 31 34 31 76 -5 40 -35 43 -36 75 -10 16 12
28 34 32 60 l6 41 27 -20 c14 -12 32 -21 39 -21 16 0 19 26 4 35 -16 10 -41
65 -35 75 10 15 21 12 93 -24z m-140 -12 c7 -13 1 -29 -21 -60 -34 -49 -39
-51 -57 -29 -10 12 -10 21 -1 41 6 15 9 35 6 45 -5 16 -1 19 29 19 22 0 38 -6
44 -16z m-400 -44 c12 -16 22 -33 22 -39 0 -15 -28 -21 -38 -8 -19 25 -33 58
-27 67 10 16 20 12 43 -20z m-260 -36 c22 -14 28 -38 16 -68 -10 -26 -37 -19
-94 24 -62 46 -83 49 -106 15 -22 -33 -3 -91 37 -114 36 -20 37 -38 2 -52 -34
-13 -34 -12 -76 43 l-36 47 21 53 c41 99 36 96 130 80 46 -7 93 -20 106 -28z
m-1757 -230 c26 -11 49 -30 63 -53 21 -34 269 -640 296 -724 7 -21 10 -40 7
-43 -12 -13 -64 23 -135 93 -43 43 -105 93 -138 112 -32 18 -92 56 -132 83
-54 36 -91 53 -145 65 -40 9 -119 36 -176 60 -57 24 -138 53 -180 64 -167 44
-181 50 -181 65 0 16 39 34 75 34 48 0 137 43 208 99 100 80 141 104 227 134
88 30 154 33 211 11z m2044 -64 c17 -32 20 -70 6 -70 -5 0 -16 11 -25 25 -20
30 -25 30 -80 5 -41 -18 -45 -18 -80 -2 -23 10 -35 22 -33 32 2 8 10 13 18 11
30 -8 89 -2 116 13 42 23 61 19 78 -14z m1124 21 c14 -8 18 -24 19 -76 0 -58
-2 -66 -16 -60 -9 3 -51 16 -92 27 -87 23 -100 32 -100 64 0 41 25 54 101 54
39 0 78 -4 88 -9z m-288 -82 c15 -29 1 -44 -41 -46 -46 -1 -49 7 -20 55 18 28
23 32 36 21 8 -7 19 -20 25 -30z m509 11 c0 -23 20 -35 73 -44 22 -4 75 -23
120 -43 89 -39 234 -73 315 -73 29 0 121 16 204 36 136 33 156 36 197 25 33
-8 56 -8 81 -1 19 6 96 14 170 17 120 4 148 2 250 -20 193 -43 300 -81 340
-122 22 -23 43 -35 61 -35 78 0 216 -98 365 -258 179 -194 224 -304 194 -481
-26 -154 -162 -352 -282 -410 -64 -31 -157 -51 -239 -51 -73 0 -134 -52 -189
-160 -30 -59 -28 -77 15 -190 44 -113 44 -136 -9 -270 -42 -105 -104 -199
-168 -255 -41 -36 -531 -284 -808 -410 -114 -52 -133 -58 -212 -62 -85 -5 -88
-5 -150 30 -35 20 -85 51 -113 71 -49 35 -72 59 -273 295 -121 142 -177 191
-355 308 -73 48 -156 109 -185 137 -62 58 -76 97 -97 261 -25 193 -52 299
-125 479 -65 162 -103 298 -95 336 18 81 -158 139 -186 63 -7 -18 -2 -29 21
-53 16 -17 36 -43 44 -58 20 -40 44 -147 51 -232 3 -41 7 -76 9 -78 2 -2 7 15
11 37 11 64 21 40 28 -61 4 -51 23 -172 42 -268 40 -192 41 -195 170 -381 l70
-101 3 -81 c2 -45 -1 -100 -6 -122 -60 -244 -72 -271 -189 -425 -65 -86 -80
-101 -213 -211 -232 -193 -238 -196 -586 -274 -40 -9 -150 -41 -245 -71 -136
-43 -193 -57 -259 -60 -144 -9 -176 22 -205 196 -23 136 -64 301 -84 331 -23
38 -109 107 -150 120 -51 17 -157 5 -252 -29 -128 -46 -159 -61 -159 -77 0
-20 10 -19 86 11 46 19 68 24 76 16 8 -8 -3 -20 -38 -42 -83 -52 -137 -74
-184 -75 -54 0 -62 22 -13 39 18 6 38 17 45 24 17 18 -25 16 -104 -4 -44 -12
-87 -15 -143 -11 -148 10 -234 56 -287 153 -41 75 -103 270 -153 479 -25 105
-63 242 -85 306 -56 162 -58 186 -25 294 15 50 41 124 58 165 16 41 40 127 53
190 13 63 30 138 39 166 37 124 121 273 219 386 57 67 73 65 226 -29 194 -118
216 -129 355 -168 l130 -37 75 16 c41 9 94 22 118 28 60 15 76 -1 39 -40 -15
-15 -27 -31 -27 -35 0 -18 26 -3 86 48 63 53 104 70 104 42 0 -8 -11 -24 -25
-37 -46 -43 -11 -45 52 -2 32 21 101 63 153 92 52 30 123 73 157 97 35 24 67
43 72 43 5 0 14 -12 19 -27 5 -16 13 -35 17 -44 4 -11 -5 -29 -26 -53 -17 -20
-29 -39 -26 -43 7 -6 129 70 148 93 6 8 13 36 15 62 2 26 5 58 6 72 1 14 -1
37 -5 53 -6 24 -3 30 25 47 18 10 71 54 117 97 88 82 109 98 118 90 12 -12
-11 -46 -75 -112 -38 -38 -81 -79 -97 -91 -27 -19 -28 -23 -17 -50 11 -25 9
-35 -7 -67 -19 -37 -18 -58 3 -126 7 -19 0 -31 -44 -72 -34 -31 -50 -54 -46
-64 9 -23 42 -18 78 14 43 37 71 51 102 51 33 0 66 33 66 65 0 30 -41 115 -64
134 -25 21 -19 28 27 34 37 5 51 15 110 79 37 40 70 85 74 101 3 15 10 27 15
27 16 0 68 -60 68 -78 0 -22 -56 -112 -69 -112 -5 0 -23 -12 -40 -26 -38 -32
-40 -62 -5 -103 40 -48 99 -39 130 20 14 28 14 35 -2 80 l-18 49 34 71 c34 70
59 95 84 86 22 -9 18 -187 -6 -285 -18 -78 -18 -127 1 -106 8 9 45 125 55 176
4 17 18 34 36 43 25 13 30 21 30 54 0 57 19 67 62 31 34 -28 36 -34 41 -102 7
-85 23 -187 31 -196 3 -3 6 37 6 90 0 55 6 115 15 144 8 27 15 59 15 72 0 38
19 24 34 -25 8 -27 23 -70 35 -96 27 -63 27 -67 -9 -125 -56 -91 -30 -130 53
-79 40 24 51 27 58 16 13 -20 11 -36 -7 -71 -16 -31 -16 -31 23 -67 22 -20 44
-45 51 -56 17 -31 27 -9 14 32 -8 25 -8 41 -1 48 18 18 39 -8 83 -107 66 -146
147 -266 146 -216 0 7 -28 63 -61 123 -80 145 -128 292 -102 308 5 3 26 -5 46
-18 20 -14 46 -25 59 -25 27 0 86 34 94 54 15 39 -56 96 -118 96 -20 0 -44 3
-53 6 -9 4 -41 54 -71 113 -29 58 -61 116 -70 128 -15 21 -15 23 0 29 28 11
71 -15 96 -57 14 -22 24 -46 22 -52 -8 -28 -4 -70 7 -76 7 -5 23 -6 36 -3 17
3 30 -4 47 -23 47 -54 73 -52 160 17 l38 30 45 -17 c42 -16 46 -17 70 -1 36
23 52 61 35 81 -7 8 -18 15 -25 15 -7 0 -18 6 -24 14 -9 11 -5 24 19 60 l31
46 82 0 c46 0 120 -5 166 -11 138 -17 392 -86 496 -135 97 -45 115 -51 115
-35 0 11 -157 91 -180 91 -9 0 -20 4 -26 10 -42 42 -446 130 -598 130 -65 0
-86 4 -106 20 -30 24 -44 25 -74 5 -22 -15 -27 -13 -97 35 -77 53 -95 75 -100
125 -4 28 -1 30 30 33 50 5 188 -15 244 -35 47 -17 48 -19 42 -50 -5 -28 -2
-34 24 -48 34 -17 93 -20 122 -5 22 12 49 60 49 88 0 11 -14 26 -35 38 -41 22
-42 26 -14 70 21 35 39 37 39 4z m1003 -5 c43 -8 82 -15 85 -15 4 -1 -6 -8
-23 -17 -21 -12 -71 -19 -165 -24 -79 -5 -168 -16 -215 -28 -90 -23 -204 -27
-304 -10 -75 13 -101 24 -101 43 0 10 42 14 183 19 122 5 209 13 262 26 101
23 178 25 278 6z m-2393 -40 c8 -14 25 -28 39 -31 46 -10 51 -13 51 -32 0 -10
-6 -27 -14 -38 -14 -19 -15 -19 -38 2 -13 12 -35 24 -50 28 -39 9 -54 41 -33
72 20 30 28 30 45 -1z m48 -167 c2 -18 -2 -27 -17 -31 -27 -7 -31 0 -31 46 0
39 0 39 23 25 12 -9 23 -27 25 -40z m-228 9 c0 -8 -31 -48 -70 -91 -38 -42
-70 -83 -70 -91 0 -22 -27 -18 -40 4 -17 33 -11 59 23 97 58 67 157 117 157
81z m378 -29 c4 -22 -61 -94 -76 -84 -27 17 -31 42 -11 75 16 27 25 32 52 29
20 -2 33 -9 35 -20z m242 -3 c19 -14 40 -25 48 -25 8 0 27 -11 43 -24 15 -13
34 -26 40 -28 9 -3 8 -10 -2 -27 -12 -19 -12 -24 4 -35 21 -16 22 -45 1 -53
-27 -10 -61 14 -74 51 -14 42 -26 45 -42 11 -19 -41 -33 -23 -30 36 l3 54 -37
-38 c-29 -30 -39 -35 -50 -26 -23 19 -17 70 13 101 33 34 40 35 83 3z m543
-30 c58 -42 79 -64 92 -97 16 -42 16 -43 -5 -58 -12 -8 -33 -25 -46 -37 l-23
-21 -52 56 c-80 87 -81 89 -67 155 7 31 15 57 19 57 3 0 40 -25 82 -55z m-723
-62 c-5 -58 -22 -79 -28 -34 -6 36 7 91 21 91 9 0 11 -16 7 -57z m-302 35 c19
-19 14 -29 -42 -92 -46 -52 -56 -58 -79 -52 -15 3 -27 12 -27 20 0 13 118 136
130 136 3 0 11 -5 18 -12z m892 -78 c8 -15 6 -22 -11 -34 -38 -26 -72 11 -49
54 9 16 15 18 30 10 11 -6 24 -19 30 -30z m-179 -132 c46 -63 80 -141 82 -190
l2 -43 -46 -3 c-54 -4 -53 -5 -112 113 -59 119 -60 126 -17 147 49 25 56 23
91 -24z m-2995 -510 c-20 -58 -36 -118 -36 -134 0 -16 -5 -47 -11 -69 -14 -55
-71 -186 -78 -179 -15 15 11 169 51 304 32 110 50 153 76 183 34 38 33 -3 -2
-105z m2871 -264 c22 -40 110 -364 113 -419 4 -61 0 -115 -9 -115 -18 0 -70
105 -94 190 -49 168 -75 397 -44 388 6 -3 22 -22 34 -44z m345 -830 c67 -34
246 -167 313 -230 89 -85 70 -97 -48 -29 -185 107 -317 213 -317 256 0 23 11
24 52 3z m1802 -436 c-35 -36 -83 -70 -185 -133 -18 -11 -48 -30 -68 -42 -52
-33 -387 -133 -443 -133 -45 0 -4 28 118 81 151 65 200 88 434 203 98 48 177
81 179 75 2 -6 -14 -29 -35 -51z m-3776 -222 c32 -49 59 -148 66 -241 2 -33 8
-75 11 -92 4 -19 3 -33 -2 -33 -11 0 -47 63 -62 110 -12 39 -61 268 -61 288 0
24 19 11 48 -32z"/>
<path d="M4272 6260 c0 -14 2 -19 5 -12 2 6 2 18 0 25 -3 6 -5 1 -5 -13z"/>
<path d="M4296 6089 c-3 -13 -7 -159 -9 -324 -4 -241 -9 -327 -26 -435 -11
-74 -17 -138 -12 -143 8 -8 33 113 52 251 10 74 13 661 4 670 -2 2 -6 -6 -9
-19z"/>
<path d="M3071 6005 c0 -49 -4 -112 -7 -140 -4 -45 7 -88 20 -74 3 3 2 72 -3
154 -7 128 -8 137 -10 60z"/>
<path d="M3937 5823 c-10 -10 -8 -76 3 -93 7 -11 10 2 10 43 0 58 -1 62 -13
50z"/>
<path d="M3090 5739 c0 -61 29 -251 48 -314 23 -75 71 -197 82 -209 5 -4 13
-5 18 -2 7 4 -5 49 -30 119 -54 148 -86 267 -94 347 -8 76 -23 115 -24 59z"/>
<path d="M4098 5734 c-5 -4 -8 -15 -8 -24 0 -9 -8 -24 -19 -34 -12 -11 -20
-37 -24 -81 -4 -36 -16 -101 -28 -145 -12 -44 -19 -83 -16 -86 14 -15 36 8 42
44 3 23 16 48 30 60 20 17 24 33 30 114 7 101 4 164 -7 152z"/>
<path d="M3950 5459 c0 -329 -13 -415 -101 -684 -38 -113 -44 -145 -30 -145 6
0 20 18 31 40 28 55 107 377 120 487 11 99 13 378 4 472 -14 127 -24 53 -24
-170z"/>
<path d="M4238 5630 c-14 -31 -88 -413 -88 -450 0 -12 3 -12 16 2 10 9 19 45
24 89 5 41 23 139 40 218 32 151 35 203 8 141z"/>
<path d="M2780 5194 c0 -47 22 -144 32 -144 11 0 10 15 -8 100 -18 87 -24 98
-24 44z"/>
<path d="M4220 5144 c0 -26 -58 -248 -81 -311 -31 -85 -34 -103 -16 -103 16 0
18 5 48 89 25 72 69 267 69 308 0 18 -4 33 -10 33 -5 0 -10 -7 -10 -16z"/>
<path d="M4385 5110 c-3 -5 -12 -47 -20 -93 -14 -77 -51 -200 -104 -341 -30
-79 -12 -95 22 -19 52 118 136 446 117 458 -5 3 -11 1 -15 -5z"/>
<path d="M4020 4868 c-15 -80 -86 -277 -109 -304 -9 -12 -32 -29 -50 -38 -55
-29 -79 -126 -35 -143 48 -18 134 147 194 372 30 110 38 175 21 175 -4 0 -14
-28 -21 -62z"/>
<path d="M2892 4288 c-31 -31 -4 -139 53 -206 25 -30 31 -32 69 -27 34 5 51 1
100 -25 33 -17 67 -29 75 -27 24 4 -48 74 -85 82 -49 10 -58 20 -89 93 -44
103 -89 144 -123 110z"/>
<path d="M1250 4101 c0 -14 57 -50 170 -106 86 -42 140 -56 140 -37 0 5 -64
39 -142 76 -174 83 -168 81 -168 67z"/>
<path d="M2033 4087 c12 -36 569 -207 674 -207 52 0 77 15 52 31 -8 5 -34 9
-59 9 -51 0 -238 48 -456 116 -188 59 -216 65 -211 51z"/>
<path d="M2430 4083 c0 -15 107 -63 141 -63 39 0 17 19 -43 38 -35 12 -71 24
-80 27 -10 4 -18 3 -18 -2z"/>
<path d="M1100 4030 c0 -17 176 -110 210 -110 6 0 10 5 10 10 0 9 -200 110
-216 110 -2 0 -4 -4 -4 -10z"/>
<path d="M1584 3931 c10 -16 158 -74 251 -98 99 -25 150 -29 161 -12 10 16
-11 26 -70 33 -29 3 -109 24 -178 46 -123 39 -175 49 -164 31z"/>
<path d="M1340 3911 c0 -11 221 -102 315 -130 283 -83 669 -145 900 -146 83 0
90 1 90 20 0 19 -9 20 -190 26 -198 7 -218 9 -405 40 -208 36 -399 89 -592
165 -90 35 -118 41 -118 25z"/>
<path d="M2580 3825 c13 -16 60 -21 60 -6 0 9 -33 21 -59 21 -11 0 -11 -3 -1
-15z"/>
<path d="M2360 3726 c0 -10 24 -15 98 -19 103 -6 210 4 162 16 -14 3 -78 8
-142 11 -96 5 -118 4 -118 -8z"/>
<path d="M2174 3571 c8 -12 81 -22 101 -15 13 5 14 8 3 15 -17 11 -111 11
-104 0z"/>
<path d="M2305 3550 c3 -5 23 -10 44 -10 21 0 75 -5 120 -11 63 -9 85 -8 96 1
8 7 15 16 15 21 0 5 -63 9 -141 9 -91 0 -138 -4 -134 -10z"/>
<path d="M2620 3260 c-11 -7 5 -10 53 -10 38 0 67 4 67 10 0 13 -100 13 -120
0z"/>
<path d="M2422 3242 c-30 -2 -50 -7 -47 -13 4 -5 15 -9 26 -9 10 0 19 -4 19
-8 0 -9 -107 -42 -139 -42 -27 0 -61 -17 -61 -31 0 -6 9 -7 22 -3 12 4 62 12
110 19 65 9 97 18 126 39 22 15 56 29 76 33 20 3 36 9 36 14 0 8 -47 8 -168 1z"/>
<path d="M2718 3179 c-35 -35 -69 -62 -76 -61 -7 2 -33 -14 -56 -36 -90 -83
-147 -102 -313 -102 -125 0 -164 -16 -51 -22 204 -9 309 13 390 83 34 29 39
31 67 20 24 -10 34 -10 59 3 73 38 105 122 62 161 -19 17 -21 16 -82 -46z"/>
<path d="M2360 3095 c-41 -13 -95 -30 -120 -38 l-45 -15 46 -1 c77 -2 233 54
202 72 -4 2 -42 -6 -83 -18z"/>
<path d="M6241 4886 c-28 -35 -59 -69 -69 -77 -11 -8 -82 -67 -160 -132 -129
-108 -161 -142 -148 -155 7 -7 24 6 195 152 138 117 261 243 261 267 0 25 -33
2 -79 -55z"/>
<path d="M4915 4531 c-44 -45 -81 -86 -83 -92 -2 -5 6 -9 17 -9 24 0 25 -3 9
-30 -23 -36 3 -34 40 3 36 36 36 38 15 43 -13 4 -23 9 -23 12 0 4 25 32 56 63
35 35 55 63 52 74 -2 13 -23 -3 -83 -64z"/>
<path d="M5655 4409 c-88 -61 -197 -131 -242 -157 -46 -26 -83 -50 -83 -54 0
-28 72 8 251 123 224 144 269 175 269 190 0 23 -47 -1 -195 -102z"/>
<path d="M5253 4303 c-18 -9 -33 -20 -33 -25 0 -16 29 -8 57 17 32 28 23 31
-24 8z"/>
<path d="M5563 4233 c-95 -42 -124 -63 -89 -63 30 0 216 88 216 102 0 15 -24
7 -127 -39z"/>
<path d="M4978 4186 c-52 -19 -96 -48 -80 -54 15 -5 127 34 157 54 18 13 18
14 -10 14 -17 -1 -47 -7 -67 -14z"/>
<path d="M5230 4156 c-81 -42 -339 -157 -402 -180 -56 -21 -69 -53 -17 -42 70
14 509 223 509 242 0 21 -18 17 -90 -20z"/>
<path d="M4561 4109 c-34 -62 -43 -98 -30 -137 8 -25 8 -41 -1 -63 -17 -41 0
-59 57 -59 38 0 50 5 79 34 42 42 43 60 3 97 -28 27 -31 33 -25 72 5 35 3 48
-14 70 -29 37 -41 34 -69 -14z"/>
<path d="M6474 3955 c-32 -43 -22 -62 12 -22 21 25 32 57 20 57 -3 0 -17 -16
-32 -35z"/>
<path d="M5070 3948 c-19 -6 -111 -32 -204 -59 -93 -27 -171 -51 -174 -54 -14
-14 70 -2 147 21 164 49 276 86 286 95 12 11 -9 10 -55 -3z"/>
<path d="M6281 3814 c-140 -79 -435 -164 -631 -182 -60 -6 -75 -10 -78 -24 -6
-30 102 -23 269 16 182 43 304 83 411 137 101 51 138 76 138 95 0 20 -3 18
-109 -42z"/>
<path d="M5115 3603 c-33 -8 -94 -18 -135 -22 -72 -7 -74 -8 -35 -16 25 -5 73
-3 130 5 92 12 125 23 125 40 0 13 -12 12 -85 -7z"/>
<path d="M3822 3718 c-18 -18 -15 -63 6 -88 25 -30 49 -18 27 13 -19 27 -19
47 0 47 17 0 55 -56 55 -82 0 -10 5 -18 10 -18 16 0 12 63 -6 88 -12 18 -62
52 -77 52 -1 0 -8 -5 -15 -12z"/>
<path d="M3413 3656 c3 -8 9 -31 13 -50 7 -38 30 -49 41 -20 8 22 -23 84 -43
84 -10 0 -14 -6 -11 -14z"/>
<path d="M3693 3584 c-10 -26 14 -64 41 -64 36 0 41 16 14 50 -26 32 -46 38
-55 14z"/>
<path d="M3520 3501 c0 -42 51 -72 94 -55 27 10 18 22 -31 46 -27 12 -51 24
-55 26 -5 2 -8 -6 -8 -17z"/>
<path d="M4764 3278 c-12 -18 12 -27 96 -37 47 -6 123 -21 170 -35 91 -27 110
-30 110 -18 0 14 -117 53 -216 71 -151 29 -154 29 -160 19z"/>
<path d="M4790 2950 c-13 -9 -12 -12 4 -25 11 -8 34 -15 50 -15 93 0 296 -70
518 -177 76 -37 141 -63 145 -59 12 12 -27 36 -182 114 -157 79 -267 121 -396
152 -95 22 -118 24 -139 10z"/>
<path d="M3605 2856 c-24 -109 -8 -135 18 -28 15 60 18 85 10 93 -8 8 -16 -10
-28 -65z"/>
<path d="M4972 2768 c5 -15 7 -16 190 -64 223 -58 204 -24 -23 41 -128 37
-173 43 -167 23z"/>
<path d="M3230 2713 c-28 -10 -69 -56 -80 -89 -13 -37 -1 -65 36 -84 45 -25
154 65 154 127 0 39 -60 64 -110 46z"/>
<path d="M3498 2689 c-16 -11 -28 -27 -28 -34 0 -7 -9 -32 -20 -56 -25 -56
-25 -110 0 -180 31 -90 56 -451 41 -594 -13 -123 -66 -352 -111 -482 -33 -95
-35 -103 -20 -103 17 0 45 76 84 221 19 74 42 154 51 179 40 112 37 606 -5
778 -26 108 -25 120 6 134 22 10 28 10 39 -6 16 -21 55 -162 55 -197 0 -28 16
-56 26 -46 8 8 -6 93 -37 209 -20 78 -21 92 -9 127 7 22 10 47 7 55 -9 22 -47
19 -79 -5z"/>
<path d="M5530 2657 c0 -12 94 -77 111 -77 19 0 8 19 -25 44 -45 34 -86 50
-86 33z"/>
<path d="M5356 2649 c6 -10 65 -39 79 -39 14 0 2 18 -24 33 -33 19 -66 23 -55
6z"/>
<path d="M2489 2545 c-94 -69 -184 -163 -279 -290 -61 -82 -78 -125 -41 -105
11 5 41 40 69 77 75 104 141 176 212 234 92 75 140 121 140 136 0 21 -10 16
-101 -52z"/>
<path d="M5740 2511 c0 -13 50 -51 66 -51 24 0 15 20 -18 40 -36 22 -48 25
-48 11z"/>
<path d="M4226 2453 c4 -16 16 -41 28 -58 29 -42 34 -10 6 44 -23 47 -44 55
-34 14z"/>
<path d="M4035 2449 c12 -43 46 -107 62 -121 15 -12 16 -10 9 17 -8 34 -51
111 -67 121 -8 4 -9 -1 -4 -17z"/>
<path d="M2697 2402 c-38 -40 -35 -64 4 -25 17 17 30 36 28 42 -3 7 -16 0 -32
-17z"/>
<path d="M5935 2365 c40 -33 70 -33 32 0 -15 14 -36 25 -45 25 -13 -1 -9 -7
13 -25z"/>
<path d="M2751 2294 c-22 -28 -27 -44 -13 -44 12 0 52 44 52 58 0 20 -17 14
-39 -14z"/>
<path d="M3960 2293 c0 -24 42 -91 47 -76 4 11 -33 93 -42 93 -3 0 -5 -8 -5
-17z"/>
<path d="M4130 2288 c0 -20 43 -84 47 -71 5 13 -21 68 -37 78 -5 3 -10 0 -10
-7z"/>
<path d="M3620 2220 c0 -29 2 -51 4 -49 8 8 10 88 3 95 -4 4 -7 -17 -7 -46z"/>
<path d="M4440 2255 c0 -12 44 -92 67 -123 33 -44 48 -31 21 21 -35 70 -88
130 -88 102z"/>
<path d="M4240 2224 c0 -17 56 -107 72 -115 28 -15 22 6 -18 67 -31 47 -54 67
-54 48z"/>
<path d="M1870 2160 c-17 -22 -30 -45 -28 -51 5 -16 78 54 78 75 0 26 -16 19
-50 -24z"/>
<path d="M1713 2143 c-40 -52 -68 -101 -61 -109 4 -3 11 -3 17 0 13 8 91 126
91 137 0 19 -18 8 -47 -28z"/>
<path d="M2011 2154 c-23 -29 -27 -44 -11 -44 15 0 50 38 50 55 0 23 -16 18
-39 -11z"/>
<path d="M5303 2155 c15 -14 36 -25 45 -25 13 1 9 7 -13 25 -40 33 -70 33 -32
0z"/>
<path d="M2107 2098 c-49 -66 -66 -118 -39 -118 8 0 56 83 71 123 14 37 -3 34
-32 -5z"/>
<path d="M5462 2118 c6 -18 57 -53 65 -44 5 4 -5 19 -20 32 -30 26 -51 31 -45
12z"/>
<path d="M1782 2044 c-42 -50 -84 -131 -80 -152 2 -11 24 14 66 75 34 51 62
97 62 103 0 20 -19 10 -48 -26z"/>
<path d="M4560 2069 c0 -17 175 -192 187 -188 11 4 -166 199 -180 199 -4 0 -7
-5 -7 -11z"/>
<path d="M5561 2043 c49 -66 119 -126 119 -103 0 17 -101 120 -118 120 -12 0
-12 -3 -1 -17z"/>
<path d="M4426 1990 c20 -36 276 -305 306 -321 52 -28 8 26 -149 182 -111 110
-169 161 -157 139z"/>
<path d="M5546 1952 c-7 -11 31 -72 44 -72 15 0 12 11 -10 48 -21 34 -26 37
-34 24z"/>
<path d="M1668 1840 c-24 -38 -33 -73 -17 -68 18 6 41 54 37 76 -3 14 -6 13
-20 -8z"/>
<path d="M5750 1843 c0 -4 12 -21 26 -36 29 -33 52 -33 29 0 -17 24 -55 49
-55 36z"/>
<path d="M3354 1764 c-4 -22 -2 -40 5 -47 8 -8 11 1 11 36 0 56 -7 61 -16 11z"/>
<path d="M1910 1756 c-31 -51 -99 -276 -83 -276 5 0 21 37 37 83 16 45 42 113
57 151 33 77 32 76 20 76 -5 0 -19 -16 -31 -34z"/>
<path d="M1612 1715 c-14 -31 -15 -55 -3 -55 8 0 31 52 31 71 0 18 -17 8 -28
-16z"/>
<path d="M5860 1709 c0 -6 28 -41 61 -77 55 -60 75 -92 118 -197 11 -25 14
-27 22 -13 20 35 -18 112 -102 207 -76 86 -99 105 -99 80z"/>
<path d="M4832 1594 c4 -23 137 -120 225 -164 81 -40 119 -37 48 4 -87 50
-149 89 -185 116 -19 15 -48 35 -64 45 -28 18 -28 18 -24 -1z"/>
</g>
</svg>
