<?xml version="1.0" standalone="no"?>
<!DOCTYPE svg PUBLIC "-//W3C//DTD SVG 20010904//EN"
 "http://www.w3.org/TR/2001/REC-SVG-20010904/DTD/svg10.dtd">
<svg version="1.0" xmlns="http://www.w3.org/2000/svg"
 width="736.000000pt" height="736.000000pt" viewBox="0 0 736.000000 736.000000"
 preserveAspectRatio="xMidYMid meet">

<g transform="translate(0.000000,736.000000) scale(0.100000,-0.100000)"
fill="currentColor" stroke="none">
<path d="M5155 7218 c-66 -14 -237 -103 -322 -167 -141 -106 -395 -412 -551
-662 -37 -59 -74 -108 -82 -109 -13 0 -15 31 -15 222 l0 223 -39 100 c-36 92
-46 106 -116 176 -116 114 -161 128 -276 88 -174 -61 -317 -238 -425 -525 -71
-190 -150 -576 -160 -784 -3 -63 1 -163 6 -158 3 3 10 70 16 149 9 129 29 296
45 372 3 15 12 27 21 27 14 0 15 -11 9 -72 -15 -178 -36 -460 -38 -532 -4
-113 -26 -111 -52 6 -5 20 -10 25 -26 21 -15 -4 -24 3 -37 27 -38 69 -169 259
-241 348 -151 188 -388 358 -595 427 -106 35 -241 44 -322 20 -140 -40 -200
-92 -247 -210 -47 -118 -45 -217 8 -409 17 -61 52 -122 169 -301 118 -180 249
-325 390 -432 225 -173 298 -243 251 -243 -8 0 -61 22 -119 50 -114 54 -130
59 -120 33 10 -26 -57 -10 -183 43 -60 25 -129 52 -153 60 -49 16 -73 32 -66
45 12 18 -47 38 -435 153 -315 92 -368 104 -502 112 -170 9 -220 -5 -299 -86
-78 -80 -108 -147 -121 -271 -9 -97 -9 -101 16 -143 14 -23 33 -49 43 -57 12
-10 10 -4 -6 19 -41 59 -59 170 -23 148 12 -7 72 -148 72 -170 0 -9 6 -16 13
-16 16 0 67 -52 67 -68 0 -17 -14 -15 -43 8 -24 19 -25 19 -30 1 -2 -10 -33
-33 -68 -51 -65 -32 -106 -63 -212 -155 -58 -50 -97 -114 -111 -182 -13 -59
45 -139 134 -183 104 -53 188 -70 405 -85 92 -6 102 6 17 20 -64 10 -47 29 29
33 35 2 67 6 71 10 4 4 -93 7 -215 7 l-222 0 -43 29 c-24 17 -58 50 -75 75
-43 62 -41 110 8 208 31 62 47 82 98 120 120 89 203 111 293 79 22 -7 80 -36
129 -63 135 -75 383 -177 565 -234 69 -22 159 -50 200 -63 41 -14 100 -27 130
-30 30 -3 125 -13 210 -21 85 -9 189 -20 230 -26 66 -8 96 -14 198 -35 14 -3
22 -11 20 -19 -5 -23 -346 -30 -443 -9 -38 8 -79 20 -90 25 -14 7 -30 7 -49 0
-15 -6 -61 -11 -102 -11 -59 0 -74 -3 -74 -15 0 -19 -20 -23 -175 -30 -256
-13 -215 -21 90 -17 505 7 895 -25 826 -68 -17 -10 -37 -14 -446 -81 -170 -28
-359 -64 -420 -80 -60 -16 -148 -39 -195 -50 -47 -12 -134 -34 -195 -51 -60
-16 -130 -33 -155 -39 -24 -5 -128 -47 -230 -93 -102 -47 -209 -94 -238 -105
-100 -37 -309 -170 -396 -252 -121 -113 -149 -269 -69 -390 34 -51 86 -81 196
-113 97 -28 107 -33 107 -46 0 -6 -25 -40 -57 -76 -107 -127 -183 -282 -183
-374 0 -85 68 -253 131 -325 42 -47 88 -70 207 -102 72 -19 122 -26 197 -26
94 -1 106 1 195 37 127 52 361 169 435 219 74 49 262 206 370 307 44 42 112
101 150 132 39 31 117 97 174 147 155 136 169 123 62 -57 -131 -221 -172 -298
-295 -542 -185 -370 -255 -546 -319 -800 -69 -279 -27 -507 117 -634 84 -74
119 -90 191 -90 47 -1 75 6 129 32 96 45 101 44 116 -29 32 -150 149 -306 255
-343 73 -24 214 -22 268 5 132 67 289 231 370 388 68 131 182 460 233 671 13
58 34 133 44 168 20 65 38 272 39 462 1 144 21 311 38 317 8 3 16 3 19 0 3 -2
20 -81 39 -173 55 -270 50 -255 211 -577 130 -258 143 -281 229 -392 161 -205
362 -338 516 -339 56 -1 73 3 115 29 63 39 104 101 137 206 36 114 46 195 35
303 -17 179 -90 385 -258 732 -114 234 -149 314 -206 473 -116 319 -187 651
-139 651 8 0 26 -24 41 -52 50 -100 117 -208 340 -549 146 -224 179 -268 317
-418 237 -260 326 -345 402 -383 125 -63 256 -73 332 -27 45 28 107 112 127
172 20 60 20 169 1 293 -20 123 -31 152 -110 309 -67 130 -84 161 -162 280
-67 102 -55 122 34 58 28 -21 90 -67 138 -103 163 -122 210 -152 360 -225 196
-95 346 -147 446 -153 67 -4 83 -1 138 23 66 30 124 85 147 141 21 50 17 131
-11 228 -62 213 -155 321 -475 549 -83 60 -240 159 -240 153 0 -2 39 -30 86
-61 110 -74 234 -172 234 -186 0 -26 -23 -13 -430 246 -63 40 -128 85 -145 99
-16 14 -41 35 -55 45 -14 11 -22 22 -18 26 11 11 47 -5 52 -23 3 -10 17 -19
30 -20 13 -1 40 -11 60 -23 20 -11 36 -19 36 -16 0 9 -167 106 -365 213 -258
139 -236 128 -415 205 -97 42 -156 73 -158 83 -4 20 44 43 198 92 63 20 203
65 310 100 243 80 428 118 730 152 56 6 65 10 65 27 0 16 11 22 60 33 126 27
495 14 495 -18 0 -17 -39 -20 -273 -21 -192 -1 -227 -3 -167 -10 41 -5 192 -6
335 -3 143 3 321 7 395 9 152 3 216 20 305 78 27 19 66 42 85 52 40 20 87 61
102 89 10 18 9 18 -13 2 -13 -9 -27 -16 -30 -16 -4 0 -6 39 -6 88 1 48 -1 99
-6 115 -5 20 -4 27 7 27 21 0 68 -126 61 -164 l-6 -31 20 25 c19 24 19 24 -5
89 -69 182 -207 324 -368 375 -179 57 -293 78 -456 83 -215 7 -567 -33 -779
-88 -87 -22 -144 -25 -139 -6 2 6 78 61 168 122 137 91 187 131 296 240 127
127 243 269 270 330 7 16 26 60 43 98 23 51 27 67 15 67 -18 0 -18 13 2 97 9
37 16 103 15 146 -1 59 2 78 11 75 19 -7 21 -204 4 -263 -17 -54 -11 -59 10
-9 8 20 17 85 21 148 7 132 -7 189 -62 253 -42 50 -116 73 -231 73 -136 0
-284 -62 -518 -218 -240 -159 -422 -310 -698 -579 -70 -67 -134 -123 -142
-123 -30 0 -25 9 103 178 170 224 209 282 304 448 138 242 228 445 226 507 0
14 -6 6 -17 -25 -9 -26 -20 -50 -24 -54 -16 -15 -20 31 -8 80 21 80 15 299
-10 371 -22 65 -25 85 -10 85 22 0 61 -84 76 -163 14 -75 13 -172 -3 -226 -2
-9 3 -4 12 12 26 45 30 142 9 237 -39 181 -163 288 -299 258z m112 -92 c87
-74 128 -297 87 -480 -19 -82 -70 -267 -86 -311 -40 -108 -124 -255 -203 -355
-28 -36 -156 -209 -283 -385 -128 -176 -296 -405 -373 -510 -78 -104 -171
-235 -207 -290 -36 -55 -73 -107 -83 -115 -20 -17 -39 -59 -94 -208 -28 -77
-45 -109 -69 -128 -24 -20 -28 -27 -16 -31 21 -9 80 -74 80 -90 0 -7 -4 -21
-9 -31 -5 -9 -12 -26 -16 -37 -6 -20 -7 -20 -25 3 -26 32 -33 27 -25 -17 4
-25 2 -41 -5 -46 -18 -11 -40 15 -41 49 l0 31 -16 -22 c-8 -13 -24 -23 -34
-23 -30 0 -36 -46 -10 -81 18 -25 20 -33 10 -45 -10 -12 -8 -18 9 -30 38 -26
23 -62 -19 -49 -16 5 -20 13 -17 35 3 22 -1 31 -16 38 -13 6 -26 26 -33 55
-13 46 -39 72 -65 62 -7 -3 -23 -29 -36 -58 -12 -28 -29 -65 -37 -80 -13 -25
-13 -32 0 -58 17 -32 30 -37 39 -14 3 8 13 15 22 15 14 0 15 -7 10 -42 -9 -57
-18 -64 -58 -42 -71 40 -87 76 -51 116 16 18 15 18 -18 16 l-34 -3 0 52 1 51
-39 6 c-31 5 -42 3 -52 -11 -16 -22 -11 -30 9 -14 23 19 56 -20 56 -65 0 -33
-2 -35 -27 -32 -22 2 -30 11 -39 43 l-12 40 -1 -42 c-1 -50 16 -63 78 -63 41
0 41 0 41 -38 0 -26 -6 -41 -20 -50 -29 -18 -25 -32 10 -32 19 0 33 -7 40 -19
13 -25 -1 -35 -36 -27 -21 6 -34 -3 -81 -49 -30 -31 -61 -54 -69 -51 -7 3 -20
20 -30 38 -28 56 -45 69 -76 62 -50 -11 -60 8 -53 100 6 89 -6 131 -39 131
-13 0 -24 -13 -35 -42 -14 -40 -18 -43 -53 -43 -41 0 -45 5 -25 29 29 36 40
91 27 137 -7 25 -17 47 -23 51 -5 3 -67 7 -136 8 -69 0 -135 6 -146 12 -30 16
-285 42 -564 58 -393 22 -651 70 -951 177 -345 123 -548 252 -657 414 -35 53
-63 136 -63 190 0 52 29 133 62 170 87 99 178 128 377 121 130 -4 141 -6 246
-46 61 -23 148 -56 195 -73 47 -16 130 -51 185 -75 55 -25 143 -61 195 -80
130 -47 449 -183 600 -255 69 -33 187 -89 262 -123 200 -91 426 -230 407 -249
-3 -4 -18 -2 -33 3 -38 15 -32 5 14 -24 39 -24 40 -28 34 -63 -12 -72 -20 -72
-155 -9 -117 55 -156 64 -126 29 8 -10 17 -25 20 -34 3 -9 25 -22 49 -28 55
-15 155 -66 161 -82 4 -9 11 -6 25 11 18 22 20 23 50 7 27 -14 32 -22 32 -51
0 -43 40 -76 65 -55 31 26 2 100 -39 100 -24 0 -28 18 -12 42 21 30 20 60 -4
91 -27 34 -25 47 5 47 18 0 32 -11 49 -39 25 -38 31 -43 87 -55 37 -8 54 13
38 48 -15 33 -9 39 25 26 15 -5 32 -8 37 -5 5 4 18 37 30 76 22 74 38 85 64
46 13 -20 23 -24 66 -22 46 2 51 4 67 36 26 51 50 50 54 -2 2 -25 9 -44 17
-47 10 -3 12 0 8 12 -9 23 2 46 23 46 12 0 22 -12 31 -37 6 -21 16 -44 22 -50
17 -23 29 -14 22 16 -5 23 -2 32 13 40 26 14 38 -1 46 -61 4 -27 12 -48 18
-48 7 0 8 19 2 63 -19 142 0 320 50 467 l16 45 -38 -42 c-35 -38 -62 -97 -62
-136 0 -20 -19 -32 -32 -19 -11 11 6 340 23 437 26 148 115 478 178 656 133
376 234 573 397 775 99 122 286 302 376 360 40 26 90 61 111 77 21 16 75 52
119 78 70 42 89 49 134 49 41 0 59 -5 81 -24z m-1350 -87 c36 -12 88 -66 142
-149 30 -45 42 -81 61 -170 23 -110 23 -118 11 -274 -32 -402 -25 -362 -106
-561 -62 -151 -108 -316 -130 -465 -9 -58 -38 -199 -66 -315 -27 -115 -54
-232 -60 -259 -16 -66 5 -250 36 -328 13 -33 -35 -21 -71 17 -18 19 -41 35
-52 35 -15 0 -31 22 -63 86 -46 91 -59 109 -51 67 9 -48 -22 -20 -42 38 -30
90 -76 374 -76 479 0 52 -5 102 -11 110 -13 19 -6 -203 10 -300 28 -172 30
-195 21 -204 -5 -5 -12 -7 -15 -5 -2 3 -27 68 -54 145 -27 76 -68 190 -90 253
-63 174 -64 180 -51 416 15 280 36 477 70 665 27 144 34 164 92 280 110 218
177 315 281 402 67 57 119 66 214 37z m-522 -428 c-25 -50 -45 -66 -45 -36 0
17 35 90 54 114 23 30 17 -27 -9 -78z m2851 -236 c44 -18 100 -80 120 -131 35
-91 -2 -322 -74 -472 -49 -100 -116 -192 -235 -319 -123 -132 -174 -178 -253
-229 -187 -120 -515 -286 -663 -335 -223 -74 -589 -286 -814 -471 -32 -26 -62
-48 -68 -48 -28 0 1 45 82 128 50 50 88 92 84 92 -5 0 -47 -41 -95 -92 -66
-69 -91 -90 -105 -85 -16 7 -16 9 0 35 13 21 9 19 -17 -9 -18 -20 -45 -51 -59
-70 -22 -28 -29 -32 -41 -22 -12 11 -18 6 -37 -28 -17 -29 -26 -38 -34 -30
-20 20 9 98 103 286 150 302 255 445 577 792 208 225 495 507 583 573 47 35
108 83 135 106 137 114 529 326 635 343 62 10 130 5 176 -14z m-3931 -29 c60
-34 116 -72 215 -145 42 -31 87 -56 102 -57 65 -4 189 -135 332 -349 153 -230
236 -391 236 -460 0 -28 -15 -33 -24 -9 -4 9 -9 15 -11 12 -3 -2 4 -23 15 -46
11 -22 20 -45 20 -50 0 -5 13 -27 29 -49 43 -59 62 -100 129 -283 85 -232 87
-246 29 -200 -14 11 -30 20 -36 20 -5 0 -15 16 -20 36 -11 40 -37 74 -57 74
-7 0 -22 19 -32 43 -18 38 -142 199 -142 183 0 -11 118 -194 175 -271 95 -130
154 -259 141 -310 -9 -36 -36 -32 -36 5 0 16 -14 52 -31 80 -31 50 -49 63 -49
35 0 -28 -16 -15 -89 70 -67 78 -81 92 -81 81 0 -2 43 -61 95 -131 52 -70 95
-131 95 -136 0 -17 -16 -9 -46 22 -30 32 -120 82 -137 76 -5 -1 23 -38 62 -81
65 -71 88 -116 60 -116 -6 0 -38 25 -72 55 -34 31 -102 83 -152 117 -49 34
-137 100 -195 147 -58 47 -135 103 -172 126 -90 54 -150 105 -303 259 -285
286 -408 438 -496 611 -82 163 -103 341 -55 481 32 96 43 110 104 146 77 44
95 48 227 45 111 -2 124 -5 170 -31z m4086 -52 c5 -15 7 -29 5 -32 -10 -9 -36
20 -36 39 0 28 19 23 31 -7z m-4626 -94 c9 -14 -6 -61 -19 -57 -13 4 -20 33
-12 53 6 16 22 19 31 4z m-50 -177 c3 -21 25 -99 49 -174 33 -101 59 -161 102
-230 31 -52 79 -130 106 -174 26 -44 84 -118 128 -164 73 -76 95 -111 71 -111
-5 0 -22 15 -38 34 -15 18 -38 38 -50 45 -11 6 -31 28 -44 48 -12 21 -30 45
-39 55 -61 59 -198 268 -248 377 -58 126 -94 331 -57 331 9 0 16 -14 20 -37z
m5022 -933 c213 -41 294 -80 397 -190 61 -66 90 -131 100 -225 6 -55 4 -67
-24 -122 -36 -71 -47 -80 -167 -127 -164 -64 -233 -67 -538 -26 -245 32 -341
27 -680 -35 -151 -28 -472 -106 -533 -130 -20 -8 -107 -34 -192 -59 -85 -24
-198 -60 -250 -79 -52 -19 -127 -42 -167 -51 -39 -9 -88 -25 -107 -37 -33 -19
-41 -20 -103 -10 -38 7 -103 16 -147 20 -115 13 -125 35 -33 74 27 11 32 16
15 12 -29 -6 -36 3 -18 21 7 7 -2 9 -26 6 -20 -3 -34 -1 -31 4 3 5 44 36 90
69 47 33 84 61 83 63 -4 4 -152 -75 -198 -105 -20 -14 -45 -23 -55 -21 -15 4
-12 10 20 41 28 27 37 42 32 57 -8 26 23 66 103 132 35 29 70 58 76 63 145
129 471 308 737 404 230 83 559 165 809 201 41 6 134 22 205 35 172 32 167 32
342 34 116 1 178 -4 260 -19z m-2921 -308 c-3 -64 -9 -118 -12 -121 -16 -16
-25 35 -21 125 4 103 10 129 29 118 7 -5 9 -44 4 -122z m-1437 47 c17 -6 31
-15 31 -20 0 -15 -47 -10 -64 7 -28 27 -19 31 33 13z m136 -64 c0 -26 -18 -29
-46 -6 -20 17 -21 22 -10 30 20 13 56 -3 56 -24z m162 -72 c62 -31 113 -63
113 -70 0 -20 -11 -17 -129 38 -83 39 -111 57 -111 70 0 11 3 19 7 19 4 0 58
-26 120 -57z m635 -340 c31 -28 18 -63 -22 -63 -15 0 -31 40 -25 60 8 24 23
25 47 3z m-1462 -258 c0 -15 -43 -12 -48 3 -3 10 4 13 22 10 15 -2 26 -7 26
-13z m778 -31 c-10 -10 -23 -14 -37 -9 -30 9 -16 25 22 25 29 0 30 -1 15 -16z
m1814 -104 c135 -34 519 -160 578 -190 30 -16 125 -76 210 -135 210 -145 495
-332 669 -441 126 -78 159 -104 262 -209 133 -136 241 -264 264 -311 31 -66
13 -161 -40 -202 -14 -12 -63 -35 -108 -53 -78 -30 -86 -31 -177 -24 -95 7
-123 15 -330 96 -41 16 -93 40 -115 54 -22 13 -68 40 -102 60 -34 20 -104 66
-155 102 -51 37 -134 88 -185 115 -102 54 -113 66 -258 258 -159 210 -236 301
-326 381 -89 78 -192 176 -237 222 -138 143 -145 154 -92 142 23 -5 30 -3 30
9 0 8 -4 18 -10 21 -18 11 -11 35 10 35 11 0 20 4 20 10 0 12 -45 24 -60 15
-6 -4 -19 0 -28 8 -9 8 -34 20 -54 28 -119 42 73 49 234 9z m-1855 5 c7 -12
18 -12 88 0 170 30 373 6 335 -40 -7 -9 -54 -14 -143 -17 -126 -5 -137 -7
-243 -47 -82 -31 -111 -47 -110 -59 1 -12 -24 -23 -104 -47 -230 -67 -749
-269 -877 -340 -23 -13 -57 -26 -75 -30 -66 -14 -314 -131 -393 -185 -23 -16
-72 -44 -110 -64 -61 -32 -292 -203 -470 -350 l-60 -48 -66 4 c-107 8 -247 81
-290 152 -40 65 -11 205 64 313 46 65 219 183 367 250 79 36 325 118 463 155
65 17 116 33 114 35 -3 2 -24 -1 -48 -6 -88 -20 -111 -21 -107 -8 6 17 64 44
133 60 33 8 98 24 145 36 180 45 221 53 227 47 3 -3 -18 -17 -48 -30 -81 -37
-28 -33 119 9 145 40 297 74 677 150 154 31 296 60 315 64 54 14 88 12 97 -4z
m1203 -71 c11 -13 10 -19 -7 -36 -26 -25 -43 -16 -43 23 0 22 5 29 19 29 10 0
24 -7 31 -16z m295 -6 c30 -16 223 -185 292 -255 60 -62 140 -164 301 -388 32
-44 114 -141 183 -215 68 -75 146 -162 174 -195 27 -33 77 -89 110 -125 119
-130 257 -385 300 -554 36 -141 35 -253 -2 -327 -33 -64 -75 -95 -141 -104
-66 -9 -128 8 -244 66 -252 127 -369 233 -466 425 -17 33 -47 83 -68 110 -95
124 -250 367 -435 684 -37 63 -83 135 -101 160 -50 67 -97 146 -136 229 -31
64 -37 88 -40 163 -6 116 11 118 70 9 23 -44 44 -79 45 -77 2 2 -6 44 -18 95
-12 51 -19 95 -15 98 12 13 36 -9 59 -54 29 -59 98 -156 105 -149 2 3 -21 44
-52 92 -37 57 -56 98 -56 118 0 17 -12 54 -25 81 -58 117 -15 92 73 -43 38
-59 80 -116 93 -127 12 -11 -2 16 -33 60 -30 44 -65 99 -77 122 -19 38 -19 43
-5 58 15 15 15 17 -1 29 -11 8 -15 18 -10 26 9 15 82 7 120 -12z m-957 -41
c28 -29 33 -70 10 -75 -11 -2 -24 10 -37 37 -12 22 -21 45 -21 51 0 18 26 11
48 -13z m-199 -23 c11 -10 -82 -37 -146 -41 -112 -9 -92 26 27 47 40 7 108 3
119 -6z m-220 -81 c0 -5 -59 -37 -130 -72 -71 -35 -128 -65 -126 -68 2 -2 28
8 58 21 69 31 263 64 274 46 3 -5 -26 -23 -65 -41 -38 -18 -68 -35 -65 -37 2
-2 64 17 139 43 75 25 148 45 163 43 27 -3 26 -4 -20 -32 -53 -32 -56 -40 -9
-27 52 15 45 -4 -16 -44 -31 -21 -178 -160 -327 -309 -148 -150 -299 -296
-334 -326 -46 -39 -60 -56 -48 -58 23 -5 21 -18 -5 -36 -25 -18 -44 -11 -27
10 6 8 9 17 6 20 -6 6 -254 -222 -317 -292 -20 -21 -74 -73 -120 -114 -47 -41
-137 -125 -200 -185 -235 -226 -477 -362 -735 -416 -114 -23 -281 -25 -333 -4
-82 35 -181 158 -226 284 -32 89 -33 138 -2 227 80 236 228 398 582 637 265
179 449 275 724 377 91 34 224 89 295 122 72 33 153 70 180 82 140 64 324 117
494 141 100 15 191 18 190 8z m131 -12 c0 -9 -56 -25 -130 -36 -42 -6 -44 -6
-29 10 22 23 159 45 159 26z m409 -17 c14 -31 7 -44 -24 -44 -27 0 -39 24 -25
51 15 26 35 24 49 -7z m93 -1 c20 -22 31 -60 21 -66 -13 -7 -71 12 -76 26 -7
18 10 57 26 57 8 0 21 -8 29 -17z m419 -93 c6 -77 15 -117 49 -210 l43 -115
-2 -148 c-1 -155 5 -218 40 -377 36 -165 68 -246 218 -544 220 -437 266 -537
320 -696 56 -162 71 -238 71 -355 0 -190 -64 -315 -194 -382 -44 -22 -59 -25
-125 -20 -213 13 -371 156 -525 472 -40 83 -83 178 -95 213 -13 34 -25 62 -26
62 -2 0 -1 -18 2 -40 11 -79 -21 -45 -90 98 -71 148 -137 339 -137 399 0 37 0
37 19 18 20 -22 103 -225 131 -320 26 -90 83 -195 64 -117 -11 42 -119 330
-149 397 -73 161 -135 499 -137 740 -2 396 74 796 149 788 18 -2 26 7 43 45
36 82 69 122 101 122 15 0 31 5 34 10 3 6 13 10 22 10 12 0 14 -7 10 -32 -3
-18 -9 -42 -13 -53 -7 -18 -6 -18 9 -6 18 14 16 15 31 -33 3 -8 13 -13 23 -12
15 2 19 16 24 79 7 86 20 109 58 105 25 -3 26 -5 32 -98z m-633 -75 c-48 -47
-68 -55 -68 -31 0 20 70 76 95 76 16 0 11 -9 -27 -45z m112 -29 c0 -7 -7 -19
-15 -26 -19 -16 -19 -36 -1 -43 9 -4 12 -14 9 -26 -4 -15 -1 -21 11 -21 21 0
20 -14 -5 -80 -25 -65 -29 -142 -29 -558 0 -268 -2 -289 -25 -380 -13 -54 -33
-180 -45 -282 -11 -102 -25 -216 -30 -255 -18 -125 -40 -368 -40 -439 0 -93
-31 -270 -80 -451 -78 -289 -151 -436 -280 -565 -92 -93 -149 -133 -220 -154
-172 -51 -301 24 -408 239 -64 129 -91 269 -92 469 0 253 87 686 182 901 19
44 43 101 52 126 9 25 33 73 52 105 20 32 85 158 143 279 109 224 207 402 356
645 45 74 94 156 109 182 14 26 33 51 41 56 23 12 135 123 146 144 7 14 6 16
-6 12 -22 -9 -19 18 6 50 22 28 65 37 55 11 -10 -27 10 -16 53 30 43 46 61 55
61 31z m1416 -116 c52 -52 120 -130 152 -174 31 -43 94 -129 139 -190 80 -106
95 -136 73 -136 -11 0 -149 142 -244 250 -54 62 -246 331 -246 345 0 21 42
-11 126 -95z m-1636 46 c0 -3 -9 -20 -20 -40 -21 -34 -50 -55 -50 -35 0 17 29
67 42 72 17 7 28 8 28 3z m-150 -79 c0 -7 -20 -46 -45 -87 -28 -48 -44 -86
-43 -105 1 -43 -125 -317 -251 -544 -121 -217 -334 -637 -372 -732 -137 -343
-222 -815 -205 -1146 l5 -121 -31 -31 c-32 -31 -109 -61 -157 -61 -49 0 -100
21 -132 53 -39 38 -121 206 -146 297 -14 49 -18 97 -17 200 3 232 46 398 188
720 63 141 113 233 194 352 37 54 81 120 97 147 49 77 176 253 339 469 58 78
204 239 222 246 13 5 15 1 10 -19 -12 -46 -113 -247 -179 -355 -35 -58 -93
-152 -128 -210 -74 -121 -86 -145 -134 -269 -38 -97 -40 -105 -26 -96 5 3 19
36 32 73 45 139 134 294 339 596 29 44 65 111 80 151 58 156 247 445 290 445
11 0 24 9 30 20 12 22 40 27 40 7z m20 -107 c0 -19 -57 -137 -70 -145 -23 -14
-4 72 24 116 25 37 46 51 46 29z m1094 -122 c24 -35 121 -191 216 -348 94
-157 180 -292 190 -300 23 -19 180 -269 180 -288 0 -7 -8 -12 -17 -10 -21 4
-120 149 -452 660 -76 117 -181 310 -181 334 0 28 20 13 64 -48z m-1504 -37
c0 -21 -46 -81 -61 -81 -17 0 -9 22 22 61 35 44 39 46 39 20z m3769 -98 c106
-108 177 -209 160 -230 -10 -11 -20 -6 -56 34 -24 26 -50 59 -57 73 -8 14 -49
58 -90 99 -73 71 -94 111 -60 111 9 0 55 -39 103 -87z m-2311 -247 c12 -27 62
-214 69 -261 8 -46 -10 -20 -42 60 -15 39 -31 97 -36 131 -5 34 -11 68 -15 78
-10 26 12 19 24 -8z m-3706 -343 c-29 -56 -45 -139 -38 -189 8 -62 60 -182
107 -249 38 -55 50 -95 27 -95 -21 0 -91 84 -115 139 -13 31 -36 78 -50 106
-23 44 -25 58 -20 125 5 80 36 160 81 208 29 32 34 7 8 -45z m6204 31 c-15
-40 -56 -77 -122 -109 -82 -40 -109 -42 -217 -15 -150 38 -155 57 -14 57 123
0 203 16 277 54 64 32 85 36 76 13z m-1401 -669 c114 -58 163 -77 205 -81 78
-8 85 -11 70 -29 -28 -34 -201 -4 -295 51 -108 63 -185 134 -144 134 8 0 81
-34 164 -75z m-1878 -134 c-6 -149 -23 -261 -45 -283 -19 -19 -23 45 -12 176
10 131 27 253 36 268 3 5 10 5 16 2 7 -5 9 -57 5 -163z m-1652 -895 c64 -139
67 -172 8 -98 -49 61 -73 113 -73 160 0 60 14 47 65 -62z m595 -364 c53 -80
77 -105 132 -142 65 -43 79 -62 58 -75 -12 -7 -80 35 -147 92 -54 46 -107 135
-119 203 -9 45 -3 39 76 -78z"/>
<path d="M2746 4510 c5 -5 25 -12 44 -15 l35 -6 -25 15 c-28 17 -70 22 -54 6z"/>
<path d="M3947 4473 c-11 -10 -8 -53 3 -53 6 0 10 14 10 30 0 31 -2 35 -13 23z"/>
<path d="M3665 4373 c-18 -18 -16 -64 3 -71 9 -3 11 3 7 21 -8 31 13 47 30 24
13 -18 35 -23 35 -9 0 13 -24 39 -42 45 -10 3 -24 -1 -33 -10z"/>
<path d="M3795 4314 c-17 -18 -20 -60 -4 -69 15 -10 49 25 49 50 0 29 -25 39
-45 19z"/>
<path d="M3571 4287 c-15 -15 -14 -57 2 -57 32 0 51 52 23 63 -7 3 -19 0 -25
-6z"/>
<path d="M3678 4259 c-28 -16 -23 -63 8 -84 34 -22 47 -9 48 47 1 36 -2 43
-19 45 -11 2 -28 -2 -37 -8z"/>
<path d="M3313 4103 c-20 -7 -16 -77 5 -96 23 -21 51 -22 58 -2 8 21 -15 84
-34 94 -9 4 -23 6 -29 4z"/>
<path d="M3336 3937 c-9 -48 -8 -52 8 -55 12 -3 16 6 16 37 0 50 -16 62 -24
18z"/>
<path d="M3404 3826 c-12 -32 0 -61 29 -64 33 -4 45 19 27 54 -15 26 -47 32
-56 10z"/>
<path d="M4615 4890 c-3 -6 1 -7 9 -4 18 7 21 14 7 14 -6 0 -13 -4 -16 -10z"/>
<path d="M4579 4723 c-13 -16 -12 -17 4 -4 9 7 17 15 17 17 0 8 -8 3 -21 -13z"/>
<path d="M4415 4689 c-11 -17 1 -21 15 -4 8 9 8 15 2 15 -6 0 -14 -5 -17 -11z"/>
<path d="M4469 4633 c-13 -16 -12 -17 4 -4 16 13 21 21 13 21 -2 0 -10 -8 -17
-17z"/>
<path d="M2841 5865 c72 -94 78 -100 54 -59 -10 17 -40 56 -67 85 -45 49 -43
47 13 -26z"/>
<path d="M2997 5620 c3 -11 9 -22 13 -25 5 -3 6 4 3 15 -3 11 -9 22 -13 25 -5
3 -6 -4 -3 -15z"/>
<path d="M3020 5576 c0 -5 18 -42 41 -82 39 -71 59 -96 59 -75 0 5 -5 13 -10
16 -6 4 -24 32 -40 63 -34 66 -50 91 -50 78z"/>
<path d="M2930 5273 c0 -5 12 -20 28 -34 l27 -24 -25 30 c-14 17 -26 32 -27
34 -2 2 -3 0 -3 -6z"/>
<path d="M3030 5146 c0 -2 8 -10 18 -17 15 -13 16 -12 3 4 -13 16 -21 21 -21
13z"/>
<path d="M3046 4849 c21 -25 41 -44 44 -42 2 2 -16 23 -40 46 l-44 42 40 -46z"/>
<path d="M1165 3679 c-83 -35 -42 -32 75 5 69 22 72 24 35 24 -22 0 -71 -13
-110 -29z"/>
<path d="M4077 3809 c7 -7 15 -10 18 -7 3 3 -2 9 -12 12 -14 6 -15 5 -6 -5z"/>
<path d="M4099 3435 c16 -32 59 -81 65 -74 4 3 -12 26 -34 50 -23 24 -37 35
-31 24z"/>
<path d="M1939 3339 c-23 -19 -23 -20 -2 -10 12 6 25 16 28 21 10 16 -1 12
-26 -11z"/>
<path d="M1805 3089 c-109 -73 -145 -106 -145 -133 0 -18 3 -16 19 9 24 39 53
65 126 110 73 46 111 75 99 75 -5 0 -50 -27 -99 -61z"/>
<path d="M3628 3484 c-11 -17 -30 -152 -23 -164 11 -18 24 -1 30 43 8 51 3
136 -7 121z"/>
<path d="M3606 3292 c-8 -14 3 -62 15 -62 11 0 11 41 0 59 -6 9 -11 10 -15 3z"/>
<path d="M3612 3150 c0 -19 2 -27 5 -17 2 9 2 25 0 35 -3 9 -5 1 -5 -18z"/>
<path d="M3570 3123 c0 -13 5 -23 10 -23 13 0 13 11 0 30 -8 12 -10 11 -10 -7z"/>
<path d="M3602 2855 c0 -44 4 -91 8 -105 7 -20 8 -17 8 20 0 25 -4 72 -8 105
l-7 60 -1 -80z"/>
<path d="M3642 2580 c0 -19 2 -27 5 -17 2 9 2 25 0 35 -3 9 -5 1 -5 -18z"/>
<path d="M3687 2340 c3 -25 7 -47 9 -49 8 -9 2 55 -6 74 -6 13 -7 5 -3 -25z"/>
<path d="M3173 3408 c-31 -35 -40 -56 -14 -33 21 18 46 55 38 55 -2 0 -13 -10
-24 -22z"/>
<path d="M3195 3349 c-4 -6 -5 -12 -2 -15 2 -3 7 2 10 11 7 17 1 20 -8 4z"/>
<path d="M2917 2855 c-24 -50 -20 -58 4 -12 11 22 19 41 17 43 -3 2 -12 -12
-21 -31z"/>
<path d="M2767 2503 c-4 -3 -7 -13 -7 -22 1 -13 3 -13 11 2 11 19 8 33 -4 20z"/>
<path d="M1328 4133 c12 -2 30 -2 40 0 9 3 -1 5 -23 4 -22 0 -30 -2 -17 -4z"/>
<path d="M1013 4103 c9 -2 23 -2 30 0 6 3 -1 5 -18 5 -16 0 -22 -2 -12 -5z"/>
<path d="M1188 4043 c6 -2 18 -2 25 0 6 3 1 5 -13 5 -14 0 -19 -2 -12 -5z"/>
</g>
</svg>
