<?xml version="1.0" standalone="no"?>
<!DOCTYPE svg PUBLIC "-//W3C//DTD SVG 20010904//EN"
 "http://www.w3.org/TR/2001/REC-SVG-20010904/DTD/svg10.dtd">
<svg version="1.0" xmlns="http://www.w3.org/2000/svg"
 width="736.000000pt" height="736.000000pt" viewBox="0 0 736.000000 736.000000"
 preserveAspectRatio="xMidYMid meet">

<g transform="translate(0.000000,736.000000) scale(0.100000,-0.100000)"
fill="currentColor" stroke="none">
<path d="M3890 7161 c-230 -77 -333 -138 -547 -326 -231 -202 -380 -383 -402
-487 -6 -27 -11 -87 -11 -134 0 -62 -4 -86 -14 -90 -7 -3 -83 26 -167 65 -176
79 -230 96 -349 111 -192 23 -378 3 -543 -60 -105 -40 -335 -211 -408 -303
-99 -125 -167 -280 -209 -476 -26 -118 -25 -164 9 -446 11 -93 25 -219 31
-280 14 -134 46 -235 107 -335 105 -171 197 -278 306 -356 45 -32 112 -82 150
-112 100 -79 89 -108 -30 -73 -173 50 -344 53 -470 8 -39 -14 -98 -31 -130
-37 -32 -7 -99 -25 -149 -40 -259 -80 -790 -427 -866 -566 -37 -68 -62 -184
-55 -259 6 -67 61 -220 109 -303 51 -89 140 -190 268 -307 67 -60 155 -140
196 -177 72 -65 130 -102 287 -181 84 -42 92 -56 58 -105 -33 -48 -116 -206
-128 -246 -19 -60 -27 -213 -14 -281 10 -56 15 -64 78 -122 80 -73 140 -99
250 -109 92 -8 148 -36 185 -92 14 -20 53 -95 87 -166 34 -71 74 -146 87 -168
14 -22 48 -86 76 -141 45 -91 61 -112 152 -200 111 -107 198 -171 254 -187 65
-18 230 -12 323 11 100 25 137 43 244 117 171 120 222 176 326 365 34 61 74
128 90 149 45 56 75 130 114 283 68 263 53 234 158 306 50 35 123 87 162 117
38 30 110 75 160 99 204 103 417 308 509 491 42 84 61 149 71 250 7 69 8 72
34 72 45 0 133 28 206 65 39 19 75 35 80 35 16 -1 68 -50 116 -110 24 -30 80
-91 124 -136 44 -45 123 -127 175 -183 141 -151 417 -423 485 -479 33 -27 152
-118 265 -202 113 -84 223 -170 246 -192 34 -33 49 -40 86 -41 45 -2 78 14 78
38 0 6 -35 34 -77 62 -130 85 -352 254 -468 357 -159 141 -312 300 -550 571
-38 44 -117 130 -175 190 -118 122 -170 182 -170 194 0 25 69 104 130 149 72
54 187 168 256 255 22 27 69 81 105 120 78 86 145 175 179 240 15 28 33 49 45
52 38 7 370 66 562 100 229 40 277 53 408 112 313 141 362 171 484 300 51 54
100 112 108 128 8 17 32 51 53 76 38 45 49 67 96 184 54 132 57 162 44 380
-12 208 -4 332 34 501 25 112 -14 227 -101 303 -71 62 -182 114 -253 119 -57
4 -269 -28 -317 -48 -49 -21 -53 -10 -53 155 0 126 -4 165 -21 221 -39 129
-136 280 -293 459 -309 351 -412 450 -521 501 -45 22 -64 24 -194 24 -156 0
-213 -10 -327 -59 -68 -29 -206 -119 -274 -178 -21 -18 -42 -33 -48 -33 -6 0
-24 18 -40 40 -43 59 -116 134 -233 239 -113 102 -170 141 -299 207 -114 59
-174 60 -340 5z m212 -56 c152 -32 246 -94 473 -315 72 -69 143 -135 159 -146
42 -30 30 -60 -57 -153 -130 -136 -213 -271 -268 -433 -17 -51 -34 -97 -38
-103 -16 -22 -50 -122 -54 -163 -3 -25 -14 -54 -26 -66 -12 -12 -19 -25 -16
-28 5 -4 19 -241 32 -533 5 -110 -3 -241 -26 -435 -5 -41 -14 -122 -21 -180
-10 -92 -20 -161 -45 -300 -4 -19 -13 -56 -21 -81 -13 -40 -13 -51 1 -89 26
-74 65 -101 65 -44 0 32 25 31 46 -1 20 -31 44 -33 44 -4 0 20 -64 89 -82 89
-4 0 -12 10 -19 21 -9 17 -8 25 6 38 18 17 13 21 63 -47 23 -31 111 -54 144
-38 20 10 23 19 23 68 0 52 3 58 47 107 140 152 249 312 357 527 45 88 111
213 147 279 37 66 87 169 111 229 25 60 60 139 78 176 69 137 220 509 210 518
-10 10 -34 -34 -96 -178 -34 -80 -82 -188 -107 -240 -24 -52 -54 -120 -67
-151 -40 -95 -294 -601 -356 -709 -115 -202 -318 -460 -361 -460 -23 0 -23 13
6 107 21 71 23 95 22 267 -1 128 -5 190 -12 193 -7 2 -13 -38 -17 -124 -6
-115 -42 -321 -60 -339 -3 -4 -14 -4 -23 0 -14 5 -16 15 -10 59 4 28 11 160
16 292 5 132 14 264 20 294 5 29 10 121 10 203 0 82 4 191 10 241 5 51 14 146
20 212 27 296 80 470 192 633 46 67 185 211 253 263 230 176 269 199 478 278
119 45 163 50 198 22 13 -10 51 -32 84 -49 33 -17 80 -45 105 -61 25 -17 53
-31 62 -31 24 0 89 -71 170 -188 39 -57 127 -161 194 -233 145 -153 218 -257
235 -338 15 -66 14 -245 -1 -316 -6 -27 -19 -99 -30 -160 -48 -260 -175 -554
-347 -799 -199 -283 -284 -386 -319 -386 -7 0 -22 29 -34 64 -24 75 -53 120
-93 150 -24 17 -43 21 -112 21 l-84 0 -48 -46 c-84 -80 -133 -109 -133 -78 0
21 156 218 312 393 41 46 118 165 118 183 0 16 -24 -8 -60 -59 -24 -35 -69
-90 -100 -123 -31 -33 -90 -103 -133 -155 -138 -170 -222 -264 -277 -307 -30
-23 -70 -54 -87 -69 -30 -24 -33 -24 -33 -7 0 11 9 28 20 38 11 10 20 25 20
34 -1 14 -2 14 -13 1 -15 -19 -170 -148 -212 -177 -43 -29 -75 -38 -75 -20 0
8 6 17 14 20 22 9 49 55 42 73 -5 12 -21 0 -71 -52 -57 -59 -65 -71 -60 -95 6
-25 2 -30 -31 -44 l-36 -15 4 -55 c8 -92 43 -122 123 -104 13 2 20 -1 20 -11
0 -14 -63 -43 -117 -55 -21 -4 -30 -14 -36 -38 -8 -32 -9 -32 -68 -32 l-59 0
-7 -50 c-21 -143 -27 -151 -73 -85 l-27 40 31 35 c38 43 40 65 6 65 -19 0 -28
9 -45 46 -23 54 -62 94 -90 94 -32 0 -53 -43 -45 -90 4 -25 2 -52 -5 -69 -9
-23 -8 -37 9 -82 27 -70 27 -76 -9 -106 -16 -13 -30 -31 -30 -39 0 -22 -59
-44 -88 -33 -37 14 -64 11 -87 -11 -21 -19 -21 -19 -87 2 -77 25 -98 20 -98
-21 0 -37 16 -48 39 -27 22 20 85 21 101 1 8 -10 10 -30 6 -58 -5 -34 -3 -47
9 -57 13 -11 20 -9 44 14 15 14 30 24 33 21 8 -8 -3 -109 -13 -119 -5 -6 -25
-4 -49 4 -48 16 -60 7 -60 -43 0 -25 -4 -28 -27 -26 -60 4 -64 2 -62 -40 2
-29 -4 -46 -24 -71 -15 -17 -27 -39 -27 -47 0 -13 -8 -14 -42 -8 -24 4 -81 11
-128 15 -80 7 -87 6 -122 -18 -31 -20 -41 -22 -53 -12 -23 19 -19 80 7 107
l22 23 -22 30 c-29 39 -28 60 3 60 29 0 32 16 8 50 -10 14 -21 50 -24 80 -4
30 -11 70 -17 88 -9 28 -8 34 6 38 9 3 29 12 44 20 34 18 68 18 68 -1 0 -39
82 -47 106 -10 22 34 11 71 -29 95 -27 17 -42 19 -98 14 -69 -7 -109 5 -109
30 0 26 25 37 46 21 10 -8 27 -15 38 -15 16 0 18 5 13 45 -6 40 -5 45 13 45
11 0 25 -9 32 -20 15 -24 36 -25 100 -6 86 27 88 29 88 102 l0 65 38 -3 c37
-3 37 -3 40 -53 4 -60 15 -74 39 -53 23 20 80 28 116 16 35 -13 57 4 57 43 0
22 5 29 19 29 10 0 25 7 32 16 11 13 10 22 -6 52 -31 55 -68 77 -126 75 -33
-1 -49 3 -49 11 0 17 30 43 55 48 12 2 21 13 23 27 3 21 7 23 40 17 53 -8 66
4 58 49 -6 33 -5 37 9 31 70 -27 85 -12 35 34 -28 27 -41 70 -20 70 11 0 60
-51 60 -62 0 -5 9 -8 20 -8 45 0 57 69 80 434 6 93 8 176 5 184 -14 37 -27
-14 -36 -139 -5 -74 -14 -156 -19 -182 -6 -26 -10 -75 -10 -108 0 -58 -12 -99
-29 -99 -15 0 -31 51 -31 98 0 27 -7 57 -16 70 -13 19 -17 63 -20 265 -2 133
-8 280 -14 327 -6 47 -15 128 -20 180 -12 129 -46 349 -59 383 -6 15 -16 27
-22 27 -7 0 -9 -10 -5 -27 32 -141 76 -597 78 -813 2 -183 -15 -422 -33 -470
-7 -20 -4 -37 16 -79 14 -29 25 -57 23 -63 -2 -5 -19 1 -38 14 l-35 24 -3 174
c-2 96 -6 197 -10 225 -6 44 -10 50 -31 50 -25 0 -30 12 -61 145 -63 277 -259
704 -394 858 -23 26 -53 65 -68 87 -41 62 -166 184 -251 245 -94 68 -104 92
-82 196 47 226 164 438 298 541 82 63 195 142 232 162 21 11 68 41 104 67 36
25 115 77 175 115 123 77 134 80 258 54z m1018 -290 c0 -21 -227 -185 -256
-185 -30 0 -7 26 87 98 117 90 169 117 169 87z m-2012 -302 c-38 -80 -73 -170
-97 -246 -11 -38 -26 -76 -31 -85 -17 -27 -5 156 12 198 17 39 97 140 110 140
5 0 8 -3 6 -7z m-603 -269 c49 -12 115 -42 115 -54 0 -24 -112 0 -168 36 -25
16 -20 38 6 30 10 -3 31 -8 47 -12z m-90 -58 c55 -20 136 -46 180 -57 100 -26
266 -93 410 -167 101 -51 120 -66 226 -173 300 -303 394 -516 500 -1139 7 -36
18 -79 25 -97 18 -39 18 -73 1 -73 -23 0 -37 23 -37 62 0 27 -4 38 -15 38 -8
0 -21 16 -29 35 -16 38 -36 47 -36 15 0 -34 58 -258 80 -307 25 -58 25 -89 0
-103 -11 -6 -28 -27 -38 -48 -23 -47 -45 -82 -52 -82 -3 0 -36 22 -74 50 -81
59 -109 65 -48 11 23 -21 42 -46 42 -55 0 -30 -33 -17 -115 44 -27 20 -104 76
-170 124 -66 48 -179 146 -252 217 -116 114 -162 150 -151 119 9 -25 189 -207
256 -259 43 -32 91 -73 107 -91 17 -18 57 -50 90 -73 33 -22 74 -52 90 -65 17
-14 53 -35 81 -48 54 -24 104 -74 104 -104 0 -12 -10 -21 -31 -25 -17 -4 -33
-13 -36 -21 -10 -25 -74 -15 -153 24 -63 31 -75 41 -74 61 1 25 -46 65 -126
106 -71 36 -219 139 -430 297 -194 146 -323 264 -521 476 -85 92 -119 118
-119 94 0 -15 305 -342 388 -416 18 -16 30 -31 28 -34 -11 -10 -133 83 -211
162 -44 45 -114 113 -155 153 -109 104 -211 227 -337 403 -109 153 -153 205
-153 181 0 -14 96 -170 175 -282 122 -176 445 -506 637 -652 40 -31 96 -77
123 -102 28 -26 72 -58 99 -72 27 -14 90 -55 140 -91 157 -114 238 -167 346
-229 148 -85 165 -93 255 -123 70 -24 80 -31 83 -53 5 -37 -29 -67 -75 -67
-106 0 -362 40 -408 63 -24 12 -95 78 -173 162 -135 145 -272 275 -310 294
-22 11 -107 37 -189 57 -187 46 -270 44 -403 -7 -77 -30 -95 -33 -195 -33
-145 -1 -179 16 -269 128 -84 107 -133 198 -151 282 -14 70 -9 292 15 624 17
231 75 402 194 573 24 34 46 71 50 82 12 40 130 142 218 189 102 55 169 66
368 62 115 -3 133 -6 225 -40z m-895 -257 c0 -6 -14 -30 -30 -54 -17 -24 -53
-91 -80 -147 -61 -125 -88 -243 -99 -420 -4 -70 -10 -131 -14 -134 -20 -20
-32 23 -35 123 -4 111 0 135 50 284 15 48 28 93 28 101 0 31 151 256 173 258
4 0 7 -5 7 -11z m2897 -51 c-3 -35 -13 -106 -21 -158 -9 -52 -16 -127 -16
-166 0 -110 -11 -194 -25 -194 -22 0 -25 40 -19 205 6 153 16 223 50 328 22
68 38 61 31 -15z m2565 -340 c54 -23 105 -80 149 -166 49 -97 38 -198 -40
-379 -67 -153 -71 -181 -71 -452 0 -214 -2 -248 -20 -300 -31 -92 -104 -205
-163 -252 -53 -41 -313 -154 -517 -224 -69 -24 -161 -59 -205 -78 -88 -39
-198 -73 -555 -170 -30 -8 -72 -17 -92 -20 -36 -5 -38 -4 -38 20 0 43 38 110
68 121 15 6 74 18 132 27 110 16 190 40 190 56 0 12 -43 11 -77 -2 -15 -6 -64
-15 -108 -21 -135 -16 -130 -16 -133 14 -3 25 -1 27 55 33 149 19 613 189 613
225 0 16 -32 11 -66 -9 -34 -20 -221 -93 -352 -136 -52 -17 -108 -28 -150 -28
l-67 -2 -3 33 c-4 45 36 105 88 132 45 23 52 40 15 40 -14 0 -25 4 -25 9 0 13
41 41 60 41 25 1 121 65 133 90 7 13 35 35 62 49 104 54 425 286 425 307 0 18
-9 12 -302 -193 -65 -45 -172 -98 -237 -117 -30 -9 -56 -16 -58 -16 -3 0 -3
12 -1 26 2 21 18 36 73 68 104 62 182 141 315 321 94 128 136 196 190 307 66
138 127 321 160 483 23 116 34 130 111 155 132 43 350 46 441 8z m147 -744
c25 -204 5 -423 -40 -432 -14 -2 -17 21 -23 192 -6 190 -1 251 26 319 16 41
24 23 37 -79z m-3351 23 c22 -48 56 -247 43 -260 -16 -16 -31 22 -56 138 -27
127 -30 165 -16 165 5 0 18 -19 29 -43z m116 -223 c9 -25 7 -72 -4 -79 -14 -9
-32 44 -25 72 6 27 20 30 29 7z m1605 -140 c67 -60 71 -154 17 -410 -8 -38
-19 -95 -26 -128 -16 -78 -69 -206 -119 -289 -23 -37 -49 -83 -58 -102 -9 -19
-20 -35 -25 -35 -4 0 -10 23 -14 50 -4 28 -10 50 -14 50 -4 0 -10 -26 -13 -58
-12 -111 -49 -237 -73 -246 -17 -7 -18 42 -4 154 12 88 16 298 6 308 -16 15
-23 -27 -29 -161 -7 -168 -28 -298 -68 -422 -29 -90 -99 -215 -120 -215 -7 0
-10 17 -7 47 5 74 -16 62 -51 -30 -26 -70 -41 -94 -89 -141 -65 -64 -101 -91
-109 -82 -3 3 2 29 11 58 16 51 13 118 -4 118 -4 0 -10 -14 -14 -31 -11 -56
-31 -28 -36 52 -3 41 -9 80 -13 87 -19 29 -24 6 -19 -82 5 -109 -16 -218 -54
-277 -24 -38 -39 -45 -265 -130 -83 -30 -112 -29 -175 10 -53 33 -144 159
-144 201 0 9 14 38 32 66 17 27 62 113 99 191 85 179 115 210 299 313 164 91
245 167 369 345 46 66 106 145 132 176 26 31 62 80 79 110 18 29 45 72 60 94
15 22 37 60 50 85 61 120 221 312 285 341 54 25 59 24 104 -17z m-2864 -30
c58 -38 105 -84 86 -84 -14 0 -155 103 -166 120 -10 16 25 0 80 -36z m-452
-123 c14 -14 -27 -29 -131 -48 -85 -16 -106 -13 -81 11 41 41 184 65 212 37z
m2891 -44 c-39 -54 -143 -139 -168 -135 -11 2 -21 8 -23 15 -4 11 208 175 216
167 3 -2 -9 -23 -25 -47z m-2618 -52 c88 -63 164 -134 241 -228 38 -45 79 -92
93 -104 61 -54 223 -156 281 -177 88 -33 88 -46 -3 -46 -214 2 -461 20 -593
45 -169 31 -197 39 -255 75 -25 15 -56 31 -70 35 -14 4 -54 35 -90 69 -36 33
-105 89 -153 124 -47 34 -98 78 -113 97 -14 19 -50 50 -80 70 -62 41 -69 60
-21 52 154 -23 211 -28 271 -22 72 7 183 27 251 46 69 19 129 25 154 17 14 -5
53 -29 87 -53z m1850 47 c18 -12 36 -54 27 -62 -4 -4 -18 -4 -30 1 -17 6 -23
16 -23 39 0 30 6 36 26 22z m-1727 -53 c34 -22 67 -49 74 -58 6 -10 49 -58 93
-107 109 -119 138 -154 131 -160 -14 -14 -74 35 -150 123 -46 54 -113 125
-149 158 -102 96 -102 113 1 44z m1854 14 c2 -5 7 -20 11 -36 5 -20 2 -29 -10
-34 -20 -7 -34 13 -34 50 0 25 22 39 33 20z m-600 -60 c57 -42 61 -58 10 -48
-37 7 -38 7 -20 -13 24 -26 19 -67 -8 -67 -14 0 -21 9 -26 33 -4 18 -2 35 3
38 14 9 -10 32 -43 39 -34 8 -36 14 -8 43 22 24 22 24 92 -25z m-2152 -12 c63
-41 115 -88 107 -96 -10 -10 -83 35 -138 84 -53 47 -35 55 31 12z m2073 -77
c10 -26 7 -54 -7 -54 -10 0 -42 17 -66 36 -2 2 2 10 9 19 16 20 56 19 64 -1z
m866 -69 c45 -23 55 -50 29 -76 -18 -18 -23 -19 -42 -6 -22 14 -40 63 -32 85
6 15 10 15 45 -3z m-1000 -114 c16 -32 12 -43 -16 -39 -34 4 -56 34 -34 48 23
15 38 12 50 -9z m354 -13 c8 -13 7 -21 -2 -30 -17 -17 -46 1 -50 31 -3 18 1
22 19 19 12 -2 27 -11 33 -20z m-134 -18 c0 -22 -34 -44 -56 -36 -22 8 -17 36
9 46 35 14 47 12 47 -10z m2840 -14 c0 -22 -108 -72 -123 -57 -15 15 8 38 59
56 50 18 64 18 64 1z m-2441 -25 c12 -16 21 -40 21 -53 0 -13 7 -34 16 -46 21
-30 10 -40 -24 -22 -23 14 -39 44 -68 133 -9 29 32 20 55 -12z m-2529 -11
c276 -38 523 -88 616 -124 22 -8 66 -22 100 -30 33 -9 92 -34 130 -55 111 -64
280 -112 447 -127 107 -9 96 -27 -21 -35 -91 -6 -113 -12 -98 -26 13 -14 169
-6 232 11 89 23 104 22 104 -12 0 -26 -10 -32 -137 -94 -207 -100 -371 -158
-553 -199 -86 -18 -100 -23 -100 -34 -1 -20 42 -16 165 16 115 29 129 31 165
19 79 -26 274 12 412 81 32 16 63 29 71 29 7 0 24 -14 37 -32 l23 -32 -49 -43
c-27 -23 -85 -68 -129 -100 -44 -31 -91 -67 -105 -79 -30 -28 -167 -104 -186
-104 -30 0 -11 29 46 73 58 46 76 77 44 77 -8 0 -33 -18 -54 -39 -52 -52 -260
-161 -380 -199 -95 -30 -290 -72 -335 -72 -20 0 -23 -5 -22 -27 2 -34 -14 -38
-221 -54 -98 -8 -151 -17 -149 -23 6 -15 197 -10 327 9 474 69 815 203 1104
434 42 33 76 40 76 16 0 -24 -78 -173 -120 -229 -56 -76 -167 -179 -232 -215
-32 -18 -58 -37 -58 -41 0 -14 24 -17 53 -7 15 5 31 6 34 3 10 -9 -102 -120
-171 -169 -32 -23 -82 -61 -111 -84 -66 -53 -322 -195 -400 -222 -140 -48
-290 -91 -362 -105 -43 -8 -100 -22 -128 -30 -59 -18 -138 -21 -167 -5 -11 6
-84 35 -162 64 -159 59 -369 150 -520 226 -55 28 -123 59 -149 70 -27 11 -85
41 -130 67 -45 26 -91 52 -101 57 -30 15 -119 129 -167 213 -53 92 -87 185
-105 287 -22 123 -18 197 11 258 29 63 89 135 121 148 13 4 146 82 296 172
373 224 569 321 668 330 112 9 206 6 340 -13z m4774 -49 c9 -14 -10 -25 -132
-79 -140 -63 -312 -108 -312 -83 0 13 248 120 341 146 99 28 96 27 103 16z
m-3193 -22 c32 -17 5 -42 -35 -33 -41 8 -55 22 -36 34 20 13 47 12 71 -1z
m968 -98 c32 -30 42 -71 17 -71 -26 0 -76 50 -76 76 0 32 21 31 59 -5z m409
-29 c2 -22 -2 -34 -12 -38 -22 -8 -46 13 -46 41 0 28 9 37 35 33 15 -2 21 -12
23 -36z m-3864 9 c4 -5 -11 -20 -31 -32 -21 -13 -48 -29 -60 -37 -20 -13 -23
-12 -23 2 0 17 74 76 96 76 7 0 15 -4 18 -9z m1942 -26 c27 -3 74 -11 104 -17
30 -6 100 -13 155 -17 91 -5 100 -8 100 -26 0 -18 -8 -20 -70 -23 -132 -7
-390 56 -370 88 4 6 13 9 20 6 7 -2 34 -7 61 -11z m1727 4 c35 -18 77 -61 77
-80 0 -41 -62 -52 -68 -12 -2 13 -13 24 -27 27 -28 7 -48 37 -39 60 7 19 27
20 57 5z m-1183 -53 c0 -8 -8 -24 -19 -37 -16 -20 -21 -21 -35 -10 -9 7 -16
17 -16 20 0 6 52 36 68 40 1 1 2 -5 2 -13z m1068 -93 c3 -37 0 -43 -16 -43
-20 0 -42 37 -42 71 0 16 6 20 28 17 24 -3 27 -7 30 -45z m978 -40 c-29 -54
-64 -99 -72 -91 -8 9 46 131 69 156 21 23 22 23 25 4 2 -11 -8 -42 -22 -69z
m-1062 25 c16 -26 -16 -57 -38 -38 -17 13 -21 42 -9 54 11 11 35 3 47 -16z
m-970 -24 c20 -8 21 -54 1 -54 -17 0 -39 36 -30 50 7 12 8 12 29 4z m767 -134
c16 0 27 -43 17 -63 -14 -27 -50 -17 -61 16 -11 35 -2 61 19 53 9 -3 20 -6 25
-6z m-943 -39 c-3 -22 -12 -29 -70 -49 -80 -26 -204 -49 -215 -39 -13 13 14
28 133 76 129 52 157 54 152 12z m847 -81 c25 -26 27 -32 15 -40 -26 -16 -40
-11 -60 23 -11 17 -20 35 -20 40 0 18 39 4 65 -23z m145 -39 c0 -16 -9 -41
-41 -116 -19 -44 -67 -119 -79 -123 -10 -4 -11 6 -6 39 7 44 60 183 78 207 16
19 48 15 48 -7z m-3900 -68 c0 -21 5 -66 10 -101 13 -81 2 -106 -28 -67 -25
32 -29 103 -10 166 14 49 28 50 28 2z m3750 22 c16 -19 4 -35 -25 -35 -24 0
-55 23 -55 41 0 15 66 10 80 -6z m-159 -85 c23 -13 25 -46 3 -54 -22 -9 -44
11 -44 40 0 26 11 30 41 14z m-353 -129 c4 -28 -28 -29 -53 -1 -15 16 -16 22
-5 35 11 13 16 14 34 2 12 -8 22 -24 24 -36z m472 -6 c9 -11 11 -43 6 -123 -7
-123 2 -175 38 -211 23 -23 37 -27 108 -31 89 -6 106 -17 94 -64 -16 -66 -123
-146 -233 -175 -51 -14 -59 -36 -10 -29 39 6 57 1 57 -17 0 -14 -351 -195
-379 -195 -10 0 -25 -7 -32 -17 -13 -15 -10 -16 33 -10 31 4 118 42 243 103
208 103 239 110 197 42 -38 -61 -136 -141 -224 -182 -20 -10 -39 -24 -42 -32
-7 -19 -4 -18 75 16 72 32 96 32 80 1 -10 -18 -208 -124 -252 -135 -18 -4 -30
-17 -41 -43 -12 -31 -27 -45 -74 -70 -70 -37 -250 -82 -354 -89 -93 -6 -122
-12 -116 -23 15 -24 187 -13 296 19 43 12 40 13 40 -4 0 -8 -44 -45 -97 -82
-54 -37 -129 -89 -168 -116 -61 -41 -229 -124 -415 -204 -77 -33 -117 -32
-132 4 -6 15 -11 47 -12 72 -1 41 7 58 75 160 42 63 99 151 127 195 28 44 91
133 140 198 97 130 187 294 253 460 23 60 57 132 75 160 18 29 46 77 62 107
70 130 302 284 477 315 92 17 91 17 105 0z m-1120 -14 c0 -13 -50 -51 -67 -51
-8 0 -13 7 -11 17 5 27 78 58 78 34z m530 -8 c0 -17 -84 -132 -135 -183 -29
-30 -70 -74 -91 -98 -32 -37 -120 -109 -269 -219 -17 -12 -51 -38 -77 -58 -50
-36 -58 -33 -33 14 9 18 32 36 65 50 27 12 50 26 50 30 0 5 39 47 86 93 47 46
153 149 235 231 138 135 169 160 169 140z m-20 -192 c0 -4 -13 -22 -30 -39
-16 -18 -30 -37 -30 -43 0 -6 -33 -41 -72 -78 -40 -36 -91 -83 -113 -104 -22
-22 -59 -50 -82 -64 -44 -26 -55 -43 -27 -43 18 0 143 93 188 139 45 48 50 25
7 -37 -63 -92 -226 -248 -371 -355 -74 -55 -145 -109 -158 -121 -13 -11 -57
-39 -99 -61 -73 -38 -105 -67 -91 -81 15 -15 261 145 431 280 60 47 113 86
118 86 5 0 2 -14 -7 -31 -17 -34 -87 -107 -193 -202 -35 -31 -62 -60 -58 -63
10 -10 43 14 163 116 64 56 118 99 121 96 6 -6 -20 -55 -70 -128 -24 -35 -56
-89 -72 -121 -17 -33 -50 -77 -75 -100 -64 -59 -297 -374 -315 -426 -30 -88
-17 -143 42 -167 29 -12 48 -13 116 -3 45 6 97 18 116 25 18 8 42 14 53 14 20
0 21 -9 3 -53 -16 -38 12 -13 50 44 57 88 136 118 117 45 -20 -77 -158 -283
-259 -384 -84 -84 -96 -102 -67 -102 28 0 101 83 216 245 119 168 138 201 161
275 11 38 21 49 60 70 70 37 75 25 48 -107 -34 -166 -60 -228 -128 -305 -18
-21 -48 -71 -67 -111 -56 -117 -211 -249 -411 -349 -129 -65 -291 -94 -430
-77 -153 19 -218 53 -255 134 -46 103 -92 218 -120 300 -18 50 -42 108 -55
130 -29 50 -215 235 -255 254 -17 8 -30 17 -30 20 0 14 74 46 214 92 137 46
159 51 270 55 126 6 276 38 346 74 72 37 179 120 214 167 139 181 140 183 108
183 -10 0 -56 -33 -103 -72 -167 -144 -253 -202 -384 -265 l-80 -38 -245 -6
c-262 -7 -248 -5 -491 -79 -82 -25 -115 -25 -173 -1 -57 25 -86 76 -86 154 0
73 78 339 124 421 52 93 49 92 169 68 160 -33 253 -45 301 -40 25 3 71 -1 103
-8 90 -21 324 -18 426 5 259 61 442 166 895 514 98 75 162 134 207 188 50 60
72 79 90 79 14 0 25 -4 25 -9z m720 -46 c33 -48 32 -65 -2 -65 -34 0 -68 39
-68 77 0 49 31 44 70 -12z m877 -275 c77 -82 154 -166 169 -187 15 -21 57 -68
93 -105 61 -64 75 -92 34 -70 -40 22 -463 479 -463 501 0 29 37 -1 167 -139z
m-4046 -116 c57 -25 122 -57 144 -69 22 -13 74 -36 115 -51 41 -14 93 -37 115
-49 22 -13 63 -30 90 -39 58 -19 115 -51 115 -66 0 -40 -356 63 -518 150 -80
42 -234 159 -226 172 10 15 52 3 165 -48z m1759 -23 c-23 -45 -311 -200 -460
-250 -67 -22 -180 -39 -212 -33 -10 2 -18 9 -18 16 0 12 136 61 240 86 94 23
184 61 307 129 136 75 161 84 143 52z m2680 -309 c-15 -5 -82 47 -75 59 4 5
24 -6 46 -23 22 -18 35 -34 29 -36z m100 -89 c14 -10 34 -25 44 -35 18 -16 18
-18 3 -18 -10 0 -34 16 -55 35 -39 36 -34 47 8 18z m-3895 -503 c14 -22 -183
-94 -258 -93 -47 1 -66 7 -55 19 10 9 260 82 285 83 12 1 24 -3 28 -9z m1065
-67 c12 -71 6 -85 -31 -76 -32 9 -42 39 -28 81 29 91 42 90 59 -5z m-965 -323
c59 -81 76 -130 45 -130 -4 0 -23 24 -40 53 -18 28 -43 63 -55 77 -13 14 -28
38 -34 53 l-11 28 31 -18 c17 -10 46 -38 64 -63z m1105 -457 c-1 -20 -58 -64
-190 -145 -88 -53 -283 -90 -377 -70 -55 11 -83 26 -83 43 0 5 39 9 88 9 93 0
221 19 287 43 22 8 90 40 150 70 113 58 125 62 125 50z"/>
<path d="M5482 6155 c-7 -14 -8 -25 -4 -25 12 0 32 39 23 44 -4 3 -13 -6 -19
-19z"/>
<path d="M3880 5804 c0 -21 24 -94 31 -94 12 0 11 31 -2 69 -9 26 -29 44 -29
25z"/>
<path d="M4866 4575 c-8 -9 -37 -44 -63 -78 -26 -34 -55 -68 -65 -75 -10 -7
-24 -25 -32 -40 -8 -15 -48 -62 -90 -104 -78 -79 -89 -98 -58 -98 27 0 66 31
103 80 97 128 231 321 227 326 -3 3 -13 -2 -22 -11z"/>
<path d="M3915 3698 c-72 -38 -51 -109 36 -123 70 -12 93 38 42 89 -38 39 -55
46 -78 34z"/>
<path d="M3445 3356 c-30 -31 -31 -45 -4 -75 27 -29 43 -23 43 19 1 49 24 49
43 1 18 -46 43 -55 43 -16 0 29 -45 80 -77 90 -16 4 -30 -1 -48 -19z"/>
<path d="M3774 3355 c-11 -27 6 -64 36 -80 16 -8 31 -15 35 -15 12 0 4 34 -15
65 -24 38 -48 51 -56 30z"/>
<path d="M3622 3211 l-22 -19 31 -27 c26 -21 40 -25 77 -23 48 3 73 28 29 28
-41 0 -57 10 -57 36 0 29 -25 31 -58 5z"/>
<path d="M6269 4040 c-23 -18 -23 -19 -4 -19 20 0 55 21 55 33 0 13 -29 5 -51
-14z"/>
<path d="M1950 2671 c0 -10 54 -31 81 -31 30 0 22 15 -14 28 -40 14 -67 15
-67 3z"/>
<path d="M1496 2582 c-23 -5 -20 -19 7 -26 58 -15 278 1 237 17 -16 7 -218 14
-244 9z"/>
</g>
</svg>
