<?xml version="1.0" standalone="no"?>
<!DOCTYPE svg PUBLIC "-//W3C//DTD SVG 20010904//EN"
 "http://www.w3.org/TR/2001/REC-SVG-20010904/DTD/svg10.dtd">
<svg version="1.0" xmlns="http://www.w3.org/2000/svg"
 width="736.000000pt" height="736.000000pt" viewBox="0 0 736.000000 736.000000"
 preserveAspectRatio="xMidYMid meet">

<g transform="translate(0.000000,736.000000) scale(0.100000,-0.100000)"
fill="currentColor" stroke="none">
<path d="M3850 7238 c-238 -182 -197 -135 -420 -484 -30 -47 -97 -138 -148
-202 -132 -164 -169 -215 -199 -275 -36 -72 -72 -117 -94 -117 -10 0 -40 19
-66 43 -71 62 -145 107 -216 129 -143 45 -604 50 -766 8 -141 -36 -247 -97
-351 -200 -34 -34 -53 -66 -77 -130 -18 -47 -35 -98 -38 -115 -6 -34 -27 -305
-27 -350 1 -103 24 -359 37 -405 20 -74 20 -174 -1 -194 -9 -10 -33 -16 -57
-16 -23 0 -82 -7 -132 -15 -52 -8 -115 -12 -150 -9 -75 7 -281 -11 -360 -31
-75 -20 -216 -112 -257 -169 -45 -61 -82 -140 -119 -251 -31 -94 -33 -110 -37
-267 -4 -190 3 -228 68 -356 26 -52 51 -126 76 -227 52 -218 116 -328 284
-488 81 -79 96 -109 55 -115 -18 -3 -277 -83 -381 -119 -97 -32 -252 -170
-298 -265 -33 -67 -77 -230 -77 -283 0 -22 5 -80 10 -130 6 -49 11 -113 11
-141 0 -137 115 -435 223 -579 25 -33 92 -105 148 -160 81 -78 129 -115 219
-166 157 -91 163 -94 265 -119 71 -18 106 -21 170 -17 81 6 188 -2 370 -29 97
-14 103 -14 218 11 64 14 122 25 127 25 21 0 8 -34 -34 -88 -83 -107 -119
-207 -120 -332 -1 -95 13 -157 57 -245 67 -135 140 -201 275 -246 102 -34 242
-32 342 5 121 44 171 56 244 56 79 0 182 -17 368 -62 38 -10 67 -8 151 5 58 9
125 17 149 17 41 0 58 9 174 91 134 95 226 177 271 242 35 50 54 47 77 -11 30
-72 95 -183 129 -219 59 -63 164 -76 345 -44 114 21 310 51 485 76 252 34 373
131 665 530 90 124 192 251 232 290 40 39 90 97 113 130 167 246 189 288 197
370 l5 60 40 9 c249 54 299 76 519 232 178 125 353 287 402 370 83 141 119
385 77 524 -35 121 -28 201 30 329 50 112 67 199 67 348 0 121 -2 138 -24 181
-35 69 -99 137 -188 199 -43 30 -81 59 -84 65 -4 6 27 43 69 82 94 88 101 104
137 313 12 70 -1 215 -27 298 -15 50 -106 231 -168 335 -49 81 -65 149 -74
300 -6 110 -13 147 -33 198 -47 115 -127 196 -258 260 -70 34 -81 36 -170 36
-61 0 -121 -6 -166 -18 -98 -26 -104 -22 -104 61 0 161 -70 312 -228 490 -39
44 -86 115 -122 182 -108 203 -200 349 -247 391 -93 82 -236 109 -364 70 -129
-39 -186 -74 -282 -174 -49 -50 -102 -114 -118 -142 -16 -28 -38 -59 -49 -69
-19 -17 -21 -17 -39 -1 -10 9 -21 31 -25 49 -8 45 -43 172 -82 303 -50 166
-150 300 -267 361 -47 24 -65 27 -182 31 l-131 4 -44 -34z m291 -34 c125 -78
197 -213 264 -491 22 -94 69 -185 186 -363 189 -287 276 -463 384 -771 66
-190 74 -245 57 -434 -6 -60 -17 -120 -30 -150 -11 -27 -30 -81 -42 -119 -30
-100 -65 -164 -175 -324 -76 -112 -112 -155 -162 -194 -41 -32 -83 -79 -115
-127 -28 -42 -76 -103 -106 -136 -95 -105 -220 -310 -252 -412 -23 -77 -50
-85 -50 -16 0 35 -3 44 -10 33 -5 -8 -10 -50 -10 -92 0 -75 -1 -78 -23 -78
-36 0 -47 19 -47 81 0 58 -12 84 -24 52 -12 -30 -23 3 -37 108 -9 76 -10 126
-1 221 7 71 8 126 3 131 -12 12 -22 -83 -30 -283 -3 -88 -10 -161 -15 -161 -6
0 -17 18 -26 41 -9 23 -26 50 -37 59 -33 26 -49 67 -83 216 -17 77 -49 210
-70 295 -22 85 -49 211 -61 280 -12 69 -26 148 -31 175 -7 42 -21 322 -29 593
-1 39 -6 72 -10 72 -5 0 -9 -132 -9 -294 0 -324 14 -457 70 -691 37 -151 99
-426 110 -485 4 -25 24 -92 42 -150 19 -58 43 -136 53 -174 l19 -69 -24 -19
c-21 -17 -24 -18 -41 -2 -11 10 -50 79 -88 154 -135 266 -257 451 -401 605
-72 77 -240 351 -240 391 0 7 -27 95 -59 196 -95 294 -95 292 -95 483 0 171 6
220 61 485 15 74 82 261 121 336 11 22 46 68 77 104 32 36 96 124 142 195 197
301 210 320 405 541 157 178 212 214 326 214 61 0 79 -4 113 -26z m231 -171
c26 -32 68 -143 108 -290 22 -78 40 -150 40 -158 0 -29 -31 -14 -47 23 -20 48
-63 192 -63 213 0 10 -13 50 -30 90 -47 116 -51 172 -8 122z m955 -214 c93
-47 162 -122 224 -242 29 -56 85 -158 124 -227 136 -235 240 -449 268 -552 15
-54 27 -104 27 -112 0 -9 -50 -39 -122 -75 -298 -147 -502 -283 -654 -438 -45
-45 -84 -80 -88 -76 -14 14 -4 41 33 86 54 64 83 114 79 131 -2 9 -20 -7 -48
-42 -25 -31 -50 -56 -55 -55 -22 5 -15 74 14 145 17 40 31 78 31 85 0 22 -16
15 -28 -12 -25 -53 -47 -14 -26 45 7 19 34 103 59 185 26 83 53 169 61 193 16
50 17 62 5 62 -9 0 -15 -13 -61 -145 -54 -156 -93 -255 -101 -255 -16 0 -32
33 -31 63 1 18 15 69 31 114 17 45 27 85 22 87 -11 7 -23 -8 -50 -69 l-23 -49
-22 25 c-13 15 -42 71 -65 125 -72 167 -222 464 -259 512 -27 36 -33 51 -28
75 13 63 125 225 223 322 69 67 125 102 211 131 60 20 68 21 125 8 34 -8 90
-28 124 -45z m-3102 -514 c50 -4 108 -11 130 -17 22 -5 76 -18 120 -27 135
-31 168 -42 222 -72 28 -16 87 -39 130 -50 117 -31 129 -38 125 -77 -2 -18
-24 -92 -50 -165 l-46 -132 -4 -290 c-6 -479 23 -594 258 -1010 66 -117 114
-214 141 -285 15 -41 62 -123 94 -166 13 -17 48 -78 77 -135 74 -144 121 -212
206 -297 67 -67 80 -92 49 -92 -7 0 -68 41 -137 91 -168 122 -170 123 -177
115 -4 -4 58 -69 138 -146 116 -112 142 -141 131 -151 -13 -14 -11 -14 -104
24 -33 14 -43 6 -28 -22 9 -17 8 -22 -5 -27 -47 -18 -362 178 -512 319 -79 74
-91 52 -13 -25 88 -87 178 -153 331 -245 71 -42 129 -80 129 -85 0 -33 -156
23 -271 97 -86 56 -114 55 -38 -2 92 -69 197 -118 309 -146 62 -16 78 -41 36
-57 -35 -13 -320 59 -431 108 -183 82 -445 222 -520 278 -16 12 -97 57 -180
98 -210 107 -353 217 -491 379 -86 100 -125 161 -193 302 -105 218 -112 264
-111 720 1 459 5 560 29 680 28 142 74 288 104 334 28 43 120 110 193 143 43
19 223 49 254 43 8 -2 56 -6 105 -10z m461 -10 c54 -16 174 -88 174 -105 0
-21 -65 -8 -144 29 -44 21 -112 49 -149 62 -37 12 -67 27 -67 32 0 13 122 1
186 -18z m-1096 -269 c0 -13 -7 -43 -15 -67 -27 -77 -44 -163 -50 -264 -7
-122 -16 -167 -34 -173 -10 -3 -12 6 -7 44 4 27 10 119 14 204 7 141 10 161
36 218 29 63 56 82 56 38z m4367 -62 c15 -48 13 -78 -3 -62 -12 13 -52 123
-47 131 10 16 33 -16 50 -69z m433 -277 c19 -7 35 -19 35 -27 0 -15 -12 -19
-155 -39 -115 -17 -306 -81 -367 -123 -24 -16 -73 -41 -111 -56 -67 -28 -130
-66 -207 -126 -22 -18 -74 -51 -115 -75 -41 -24 -121 -75 -177 -112 -106 -72
-123 -79 -123 -54 0 36 101 133 261 251 130 96 192 133 375 227 230 117 471
172 584 134z m168 -122 c62 -27 80 -52 119 -169 29 -90 36 -128 38 -201 2
-110 50 -280 123 -438 65 -139 92 -246 92 -360 0 -139 -51 -287 -130 -381 -22
-27 -45 -56 -50 -65 -7 -13 -35 -17 -142 -22 -225 -11 -341 -41 -425 -111 -23
-19 -83 -57 -134 -83 -51 -27 -123 -68 -160 -92 -70 -44 -273 -139 -344 -160
-113 -34 -315 -89 -435 -119 -127 -32 -250 -44 -250 -26 0 5 42 21 93 36 93
28 177 69 177 86 0 13 -6 13 -38 -4 -51 -26 -209 -75 -318 -99 -220 -49 -234
-51 -247 -38 -9 10 -6 18 16 35 26 21 28 25 16 44 -12 20 -10 25 26 62 21 22
36 42 33 45 -3 3 -27 -8 -54 -24 -47 -30 -84 -40 -84 -22 0 4 58 63 128 130
70 67 134 132 141 143 30 48 -6 23 -121 -84 -68 -63 -133 -120 -145 -127 -24
-12 -37 -2 -27 23 10 25 -10 19 -45 -16 -30 -30 -154 -108 -171 -108 -27 0
-11 38 46 111 69 87 111 159 94 159 -5 0 -30 -28 -55 -62 -57 -79 -154 -180
-166 -172 -18 11 -7 40 55 148 35 61 79 143 98 181 66 132 110 189 263 340
161 159 204 210 250 290 15 28 38 61 50 75 37 42 65 99 130 258 35 84 73 167
85 185 25 36 177 144 363 257 68 41 152 96 188 121 59 43 292 162 384 196 151
56 228 72 363 72 98 1 142 -3 170 -14z m-5148 -687 c0 -15 -107 -58 -162 -66
-21 -2 -72 1 -113 7 -42 7 -106 12 -143 12 -37 0 -79 2 -95 5 -63 13 -6 22
180 29 109 4 218 11 243 15 69 12 90 11 90 -2z m95 -130 c4 -57 14 -137 21
-178 8 -41 19 -109 23 -151 10 -82 25 -120 74 -184 57 -74 191 -207 283 -280
50 -40 120 -99 155 -130 35 -32 99 -84 143 -117 43 -32 101 -78 130 -102 93
-78 253 -195 312 -229 134 -75 351 -139 563 -166 47 -6 89 -15 95 -21 21 -21
-14 -31 -130 -36 -114 -5 -146 -2 -424 36 -113 16 -383 99 -557 172 -39 16
-82 28 -95 26 -39 -5 266 -122 522 -199 194 -58 645 -91 735 -53 43 18 80 15
80 -6 0 -20 -56 -28 -232 -33 -137 -4 -148 -6 -161 -26 -13 -20 -23 -21 -138
-21 -121 0 -183 -16 -84 -22 62 -4 66 -19 8 -36 -50 -15 -165 -54 -258 -89
-231 -85 -343 -101 -483 -68 -38 9 -124 22 -192 30 -68 8 -172 26 -230 40
-178 42 -296 64 -482 91 l-178 25 -70 47 c-38 26 -106 83 -151 127 -94 94
-128 155 -205 375 l-51 145 -10 195 c-5 107 -9 229 -8 270 0 42 -6 108 -14
147 -11 56 -12 85 -4 140 24 150 43 184 143 252 109 73 107 73 399 70 l261 -2
80 30 c126 48 122 51 130 -69z m3408 -114 c11 -11 -12 -53 -77 -147 -127 -180
-170 -233 -244 -297 -87 -75 -92 -78 -92 -53 0 37 60 121 134 187 42 37 104
107 138 154 113 159 125 172 141 156z m2071 -112 c3 -29 9 -69 12 -90 7 -47
-11 -211 -31 -272 -17 -50 -59 -109 -70 -98 -7 7 0 31 38 133 25 67 38 206 26
296 -9 77 -5 110 11 92 5 -4 11 -32 14 -61z m-6530 -169 c5 -18 29 -370 30
-447 1 -53 -18 -56 -43 -8 -28 56 -44 196 -36 327 7 127 11 145 30 145 8 0 16
-8 19 -17z m2924 -219 c82 -102 252 -389 292 -492 22 -56 -2 -58 -46 -5 -56
67 -147 199 -174 253 -12 25 -29 52 -37 61 -8 9 -32 51 -53 94 -22 42 -47 89
-56 105 -10 15 -14 35 -11 45 6 14 9 14 26 2 11 -7 38 -35 59 -63z m3457 -293
c48 -21 146 -126 195 -207 32 -53 35 -66 34 -129 0 -70 -5 -86 -57 -180 -9
-16 -28 -69 -43 -118 -26 -86 -26 -89 -15 -230 6 -78 16 -178 21 -222 15 -133
12 -225 -9 -272 -29 -62 -97 -151 -131 -168 -32 -16 -84 -77 -245 -287 -93
-121 -114 -142 -173 -176 -117 -69 -137 -76 -344 -126 -85 -20 -113 -11 -178
61 -25 27 -72 69 -105 93 -112 80 -234 213 -371 404 -28 39 -78 101 -111 137
-33 36 -81 95 -107 132 -69 97 -135 143 -301 207 -84 32 -92 40 -67 61 20 15
16 17 -86 37 -59 12 -131 24 -160 28 -38 4 -55 11 -63 26 -8 14 -8 23 0 31 10
10 39 7 191 -23 132 -26 413 -60 580 -71 74 -4 194 -13 265 -19 72 -6 177 -8
235 -5 115 6 274 28 266 35 -2 3 -46 1 -98 -4 -192 -18 -616 -7 -688 18 -8 3
-76 10 -150 16 -132 11 -434 55 -451 66 -16 10 -9 22 19 32 l27 10 -30 6 c-16
4 -40 9 -52 12 -12 2 -29 11 -38 20 -36 36 -7 39 398 40 359 0 456 4 512 21
18 6 18 7 -5 13 -14 3 -43 3 -65 -1 -53 -11 -495 -10 -666 0 -144 9 -179 19
-179 52 0 19 6 20 108 17 59 -2 166 3 237 11 244 25 410 78 559 179 45 30 110
68 146 85 36 16 99 50 140 75 41 25 104 59 140 76 36 17 103 52 150 78 100 55
145 72 340 128 80 23 150 43 155 45 6 2 60 4 120 4 86 0 119 -3 150 -18z
m-2575 -70 c0 -21 -31 -81 -42 -81 -17 0 -16 20 3 58 22 45 39 54 39 23z
m-1719 -211 c60 -39 190 -112 289 -162 99 -49 180 -95 180 -100 0 -27 -196 33
-312 94 -100 53 -308 204 -308 224 0 29 47 12 151 -56z m1327 -107 c2 -16 -6
-28 -33 -45 -43 -28 -53 -59 -31 -93 21 -32 37 -24 29 15 -7 37 4 38 53 5 20
-14 41 -25 45 -25 16 0 9 26 -16 60 -14 19 -25 40 -25 47 0 39 86 17 96 -23 8
-30 21 -30 43 -2 22 27 34 20 72 -45 38 -66 47 -78 87 -106 17 -12 32 -30 32
-40 0 -10 9 -35 19 -57 11 -21 17 -42 15 -46 -2 -4 -29 -18 -60 -32 -34 -16
-54 -31 -51 -38 2 -7 8 -12 13 -11 5 1 25 4 45 8 30 6 40 3 58 -16 40 -43 17
-94 -31 -68 -29 15 -34 4 -20 -46 7 -25 12 -55 12 -68 1 -19 6 -17 39 21 48
55 76 54 108 -3 12 -22 23 -46 23 -52 0 -17 -25 -16 -59 1 -65 34 -91 -11 -49
-85 18 -32 20 -43 10 -64 -14 -29 -39 -42 -53 -28 -7 7 -7 17 2 31 10 17 9 24
-9 47 -12 15 -24 41 -27 59 -6 31 -7 32 -70 34 -69 2 -95 -12 -95 -50 0 -19 2
-20 18 -6 29 26 42 11 42 -48 0 -58 5 -64 72 -78 31 -7 46 -40 28 -61 -7 -8
-27 -15 -46 -15 -18 0 -36 -5 -39 -11 -4 -5 -14 -9 -22 -7 -12 2 -17 18 -18
61 -3 69 -7 76 -24 39 -25 -52 -27 -56 -40 -60 -9 -3 -12 10 -9 49 3 48 1 55
-20 64 -30 13 -59 115 -32 115 5 0 14 9 20 21 18 32 -5 52 -51 44 -27 -5 -48
-1 -78 14 -23 12 -41 20 -41 17 0 -19 65 -122 83 -131 26 -13 34 -57 13 -74
-12 -10 -25 -6 -68 18 -37 21 -68 31 -96 31 -38 0 -43 -3 -62 -40 -23 -46 -46
-51 -60 -14 -11 29 -24 25 -45 -17 -9 -16 -22 -29 -31 -29 -26 0 -28 30 -4 55
27 29 22 39 -23 39 -30 1 -32 3 -35 42 -3 35 0 42 23 52 36 17 49 15 70 -8 10
-11 22 -20 27 -20 12 0 10 35 -3 64 -10 21 -9 30 7 53 10 15 17 36 16 46 -2
11 3 17 16 17 22 0 46 23 35 33 -10 10 -39 8 -67 -4 -19 -9 -30 -26 -41 -65
-11 -39 -20 -54 -33 -54 -31 0 -41 20 -35 70 5 46 -8 90 -27 90 -6 0 -10 -38
-10 -88 0 -92 -7 -109 -52 -125 -10 -4 -18 -11 -18 -16 0 -5 -23 -26 -52 -48
-28 -21 -86 -64 -127 -95 -42 -31 -140 -96 -218 -145 -132 -81 -160 -103 -132
-103 18 0 431 252 485 296 115 94 70 -8 -63 -145 -59 -60 -71 -77 -63 -92 6
-10 10 -25 10 -33 0 -54 -433 -654 -593 -823 -66 -69 -202 -173 -397 -303 -52
-35 -122 -84 -155 -110 -34 -26 -70 -52 -82 -58 -14 -8 -113 -13 -280 -16
-211 -3 -271 -7 -328 -22 -97 -26 -193 -22 -357 15 -189 41 -265 65 -319 99
-59 38 -217 219 -353 404 -86 119 -115 166 -146 246 -70 181 -78 343 -25 551
28 109 32 117 80 166 38 39 70 60 139 88 212 89 555 179 756 199 123 12 117
12 330 -1 136 -8 183 -15 265 -40 268 -80 314 -93 362 -98 64 -7 145 8 283 53
58 19 152 46 210 59 58 13 139 38 180 55 112 46 207 70 282 70 37 0 78 5 90
11 28 12 78 -3 78 -25 0 -22 -83 -47 -202 -61 -32 -4 -58 -12 -58 -17 0 -6 17
-8 43 -4 112 16 159 18 170 7 18 -18 53 -13 99 14 24 14 62 35 85 47 23 12 45
28 47 35 5 13 -25 31 -78 48 -11 3 -15 9 -10 14 14 12 194 53 210 47 32 -12
41 3 30 49 -8 33 -16 45 -31 47 -27 4 -31 40 -6 62 29 27 52 14 45 -24 -6 -25
-3 -30 13 -30 10 0 28 -7 39 -15 30 -23 47 -19 40 10 -3 14 -9 36 -12 50 -4
17 -1 32 11 45 11 13 16 30 13 50 -5 32 5 46 37 52 14 2 21 13 25 38 5 31 8
35 31 32 15 -1 32 5 39 13 18 21 44 15 48 -12z m556 -69 c15 -14 14 -18 -5
-45 -17 -24 -24 -27 -35 -18 -26 21 -11 73 23 79 1 0 9 -7 17 -16z m1010 7
c19 -30 -169 -107 -319 -130 -347 -54 -389 -57 -383 -23 3 16 38 26 183 51
172 31 367 77 427 100 30 12 85 14 92 2z m-1117 -56 c25 -18 47 -77 38 -104
-10 -34 -34 -33 -49 2 -7 18 -23 41 -35 51 -26 23 -27 42 -3 55 23 14 24 13
49 -4z m2758 -35 c13 -22 -53 -200 -75 -200 -15 0 -12 64 6 117 26 78 52 110
69 83z m-2645 -29 c13 -31 6 -49 -45 -119 -20 -28 -23 -42 -19 -76 6 -41 5
-43 -25 -56 -41 -17 -54 -5 -54 50 0 35 7 48 42 84 30 30 44 56 53 94 14 58
30 66 48 23z m205 -1 c3 -5 -7 -12 -22 -16 -15 -3 -36 -8 -45 -11 -10 -2 -18
0 -18 6 0 24 72 42 85 21z m-111 -62 c7 -12 6 -24 -4 -42 -12 -23 -11 -30 5
-59 12 -22 16 -43 11 -60 -8 -34 -48 -61 -76 -52 -20 6 -21 11 -14 53 5 26 8
68 9 93 0 32 6 54 19 68 21 24 34 23 50 -1z m-3329 -249 c61 -12 89 -25 80
-39 -2 -4 -53 -10 -112 -14 -191 -12 -291 -33 -573 -122 -63 -20 -142 -49
-175 -64 -108 -50 -134 -59 -140 -49 -15 23 91 116 185 163 49 25 225 81 410
131 61 17 220 14 325 -6z m3183 -23 c39 -20 65 -53 58 -71 -5 -14 -14 -10 -51
22 -24 21 -44 44 -45 51 0 15 5 15 38 -2z m282 -150 c136 -44 202 -73 329
-149 183 -107 248 -183 377 -437 62 -123 76 -143 159 -225 71 -71 115 -103
202 -153 113 -63 170 -114 200 -177 30 -62 6 -90 -182 -220 -38 -26 -83 -60
-100 -76 -59 -54 -110 -72 -224 -80 -149 -11 -285 -36 -334 -61 -44 -22 -214
-127 -377 -233 -52 -34 -117 -84 -143 -111 -49 -50 -193 -266 -242 -364 -27
-54 -85 -133 -115 -157 -8 -7 -44 -22 -80 -33 -36 -12 -72 -24 -80 -27 -11 -4
-9 -8 10 -16 24 -11 24 -11 -15 -15 -36 -3 -43 0 -72 33 -35 41 -84 132 -115
214 -18 48 -20 66 -13 155 13 155 11 416 -3 566 -8 74 -16 243 -19 375 -5 231
-5 244 22 385 15 80 34 166 41 192 8 26 14 64 14 85 1 102 40 163 104 163 27
0 36 -5 44 -27 17 -44 44 -162 53 -228 16 -122 29 -201 39 -235 5 -19 10 -49
10 -67 0 -17 5 -35 10 -38 6 -4 10 8 10 28 0 35 -36 288 -46 319 -6 21 -44
239 -44 255 0 7 28 27 62 44 75 38 99 31 129 -36 11 -25 24 -45 29 -45 18 0
10 34 -20 89 -35 63 -36 71 -12 71 12 0 26 -16 41 -47 12 -27 31 -59 41 -73
16 -21 20 -22 20 -7 0 10 -9 35 -20 57 -36 70 -17 96 30 43 21 -24 25 -25 28
-10 2 9 -8 31 -22 48 -26 31 -34 59 -17 59 5 0 29 -16 52 -36 66 -55 62 -21
-5 44 -60 58 -66 69 -38 79 9 4 28 15 41 25 13 10 28 18 33 18 5 0 39 -28 75
-62 63 -61 65 -62 59 -31 -14 61 14 46 139 -78 116 -114 164 -148 117 -82 -37
52 -236 239 -284 267 -51 30 -63 56 -25 56 12 0 69 -16 127 -34z m-900 -101
c15 -18 5 -32 -25 -37 -23 -4 -34 30 -13 43 18 12 24 11 38 -6z m-264 -100 c3
-8 1 -29 -6 -47 -6 -18 -18 -57 -26 -86 -8 -29 -23 -72 -34 -94 -22 -47 -25
-68 -9 -68 11 0 57 96 83 177 20 61 34 73 53 48 19 -27 16 -64 -12 -133 -27
-66 -30 -82 -16 -82 5 0 21 27 37 60 16 33 32 60 37 60 26 0 -19 -211 -88
-410 -20 -58 -39 -118 -42 -134 -8 -43 17 -29 34 20 34 93 124 415 134 474 15
96 50 135 87 98 18 -18 14 -38 -8 -38 -18 0 -20 -6 -19 -62 0 -35 3 -71 5 -81
8 -26 24 -10 24 22 0 16 9 39 19 52 16 20 23 22 38 13 15 -10 18 -25 17 -110
0 -81 -6 -119 -32 -208 -38 -130 -40 -146 -12 -139 19 5 20 0 20 -73 0 -75 -6
-139 -51 -514 -33 -285 -27 -403 37 -691 5 -21 -8 -44 -69 -126 -95 -125 -136
-162 -236 -212 -159 -80 -299 -98 -510 -64 -67 11 -157 17 -246 16 -137 -1
-180 -5 -433 -38 -196 -26 -305 1 -411 100 -59 55 -90 117 -103 205 -19 127
-8 163 93 315 88 132 93 137 262 278 95 79 228 188 297 244 192 154 363 341
524 573 33 47 78 108 101 135 22 28 75 102 117 165 84 126 145 199 251 303 73
70 84 77 93 52z m162 -7 c19 -23 18 -52 -1 -56 -32 -7 -67 7 -67 26 0 36 46
56 68 30z m222 -28 c40 -13 55 -24 55 -37 0 -11 -6 -16 -15 -14 -54 14 -72 13
-96 -10 -20 -18 -29 -21 -42 -13 -31 20 -26 52 10 74 18 11 33 20 33 20 0 -1
25 -9 55 -20z m3040 -243 c0 -27 -59 -105 -116 -152 -32 -28 -67 -58 -78 -67
-23 -21 -46 -23 -46 -5 0 22 119 159 172 199 53 40 68 46 68 25z m-1420 -219
c0 -10 -4 -18 -8 -18 -23 0 -88 101 -74 115 10 10 82 -76 82 -97z m-1687 -899
c17 -202 13 -437 -7 -457 -9 -9 -18 -13 -22 -10 -3 4 -15 64 -26 135 -19 116
-19 142 -9 285 19 259 44 278 64 47z m1977 145 c0 -8 -20 -36 -44 -62 -56 -61
-164 -188 -197 -232 -14 -19 -63 -75 -108 -125 -46 -49 -99 -117 -119 -150
-51 -84 -163 -233 -209 -276 -32 -31 -82 -60 -267 -157 -19 -10 -63 -16 -120
-18 -124 -4 -209 -13 -286 -31 -118 -27 -222 -43 -235 -35 -10 5 4 27 46 77
68 80 89 111 185 283 85 153 109 181 242 288 134 107 219 148 437 213 33 10
79 28 101 39 22 11 64 25 94 30 30 6 80 20 110 31 30 11 90 29 133 40 43 12
107 38 145 60 73 44 92 49 92 25z m-603 -150 c5 -16 -75 -40 -88 -27 -8 8 -3
15 18 26 31 17 65 18 70 1z m-3413 -115 c6 -5 4 -10 -5 -13 -89 -28 -205 -34
-270 -14 -69 20 -44 36 66 40 87 4 198 -3 209 -13z"/>
<path d="M3422 5498 c-29 -137 -15 -712 21 -868 30 -128 42 -172 63 -238 14
-42 29 -81 34 -86 22 -22 20 7 -3 76 -72 207 -98 393 -104 738 -2 146 0 299 5
340 11 88 0 114 -16 38z"/>
<path d="M3987 4310 c-23 -60 -34 -135 -19 -126 12 7 36 110 29 127 -4 12 -6
11 -10 -1z"/>
<path d="M4031 3862 c-5 -10 -12 -47 -15 -82 -6 -61 -5 -63 8 -35 15 32 32
135 22 135 -3 0 -10 -8 -15 -18z"/>
<path d="M3690 3846 c-1 -65 78 -266 104 -266 20 0 20 2 -4 42 -23 40 -70 166
-70 189 0 8 -7 24 -15 35 -14 18 -14 18 -15 0z"/>
<path d="M5317 6283 c-10 -16 -70 -278 -74 -318 l-3 -40 16 34 c15 34 46 164
64 270 9 52 8 72 -3 54z"/>
<path d="M2181 5508 c-2 -94 137 -416 254 -594 137 -206 278 -388 392 -506 66
-69 103 -94 103 -70 0 4 -42 50 -93 102 -76 79 -178 208 -322 405 -112 154
-229 392 -306 625 l-28 85 0 -47z"/>
<path d="M2510 5045 c0 -37 144 -266 182 -289 37 -22 28 7 -24 76 -30 40 -73
106 -97 146 -46 77 -61 93 -61 67z"/>
<path d="M2559 4063 c18 -33 279 -285 290 -282 6 2 -55 70 -135 152 -135 137
-179 173 -155 130z"/>
<path d="M3220 3820 c0 -12 100 -110 112 -110 18 0 5 20 -46 69 -56 52 -66 58
-66 41z"/>
<path d="M5318 4413 c-26 -31 -30 -43 -14 -43 9 0 22 14 31 30 17 33 7 40 -17
13z"/>
<path d="M5970 4281 c-19 -21 -102 -91 -183 -157 -81 -65 -174 -140 -205 -166
-51 -41 -175 -128 -392 -275 -41 -28 -117 -72 -167 -98 -51 -26 -93 -54 -93
-61 0 -8 3 -14 7 -14 3 0 52 24 107 54 140 74 458 290 583 394 58 48 139 113
181 145 124 94 141 110 178 158 19 26 34 49 34 53 0 14 -17 3 -50 -33z"/>
<path d="M5115 4163 c-35 -36 -43 -53 -26 -53 11 0 71 67 71 80 0 16 -7 12
-45 -27z"/>
<path d="M4931 3957 c-92 -95 -113 -143 -25 -59 54 52 101 112 86 112 -5 0
-32 -24 -61 -53z"/>
<path d="M5225 3517 c-48 -25 -55 -32 -38 -35 23 -3 113 43 113 59 0 14 -10
11 -75 -24z"/>
<path d="M1525 3760 c-5 -9 63 -50 85 -50 23 0 8 21 -30 40 -45 23 -47 23 -55
10z"/>
<path d="M1830 3601 c47 -38 288 -131 340 -131 41 0 38 16 -4 23 -19 3 -94 31
-168 62 -73 31 -146 59 -163 62 l-30 5 25 -21z"/>
<path d="M1736 3520 c6 -6 28 -13 50 -16 39 -5 39 -5 14 10 -29 18 -80 22 -64
6z"/>
<path d="M1934 3441 c7 -11 98 -43 104 -37 2 3 -11 14 -29 25 -34 21 -85 29
-75 12z"/>
<path d="M5325 2730 c-8 -13 43 -33 64 -25 14 6 14 7 1 14 -30 17 -58 22 -65
11z"/>
<path d="M3891 3199 c-38 -65 -47 -97 -33 -111 18 -18 36 5 61 77 17 46 20 70
13 77 -7 7 -20 -6 -41 -43z"/>
<path d="M4005 3219 c-13 -24 -14 -33 -4 -45 8 -10 15 -12 23 -4 5 5 18 10 28
10 20 0 58 37 58 57 0 9 -14 13 -45 13 -40 0 -46 -3 -60 -31z"/>
<path d="M3814 2985 c-8 -20 3 -48 16 -40 13 8 13 55 0 55 -6 0 -13 -7 -16
-15z"/>
<path d="M4062 2928 c2 -21 8 -33 18 -33 19 0 25 32 10 50 -20 24 -31 17 -28
-17z"/>
<path d="M3646 2875 c-7 -20 4 -47 18 -42 17 6 20 57 3 57 -8 0 -17 -7 -21
-15z"/>
<path d="M3355 2857 c-11 -8 -45 -28 -76 -45 -32 -16 -68 -37 -80 -45 -84 -55
-386 -206 -509 -255 -41 -16 -167 -67 -280 -112 -361 -145 -552 -213 -790
-281 -96 -28 -177 -53 -180 -56 -11 -12 111 8 220 36 181 47 511 165 780 278
91 39 217 92 280 118 126 52 450 213 545 271 33 20 75 43 93 50 21 9 32 21 32
34 0 23 -8 25 -35 7z"/>
<path d="M3142 2448 c-7 -7 -12 -18 -12 -25 0 -11 4 -11 20 -1 11 7 22 18 24
25 7 16 -16 17 -32 1z"/>
<path d="M2704 2350 c-30 -12 -40 -30 -16 -30 10 0 27 9 37 20 19 21 13 24
-21 10z"/>
<path d="M1825 2300 c-11 -5 -59 -21 -107 -35 -83 -24 -121 -45 -81 -45 56 1
224 57 238 80 8 12 -23 12 -50 0z"/>
<path d="M4870 2432 c0 -6 11 -24 25 -39 17 -20 24 -23 25 -12 0 8 -11 26 -25
39 -14 13 -25 18 -25 12z"/>
<path d="M4156 2398 c4 -13 11 -34 17 -48 l11 -25 4 27 c4 29 -13 68 -29 68
-6 0 -7 -9 -3 -22z"/>
<path d="M4391 2348 c10 -38 29 -60 29 -36 0 25 -18 68 -29 68 -6 0 -6 -12 0
-32z"/>
<path d="M4316 2333 c18 -74 63 -223 72 -239 11 -18 11 -18 12 1 0 36 -29 159
-51 213 -22 55 -44 71 -33 25z"/>
<path d="M4724 2284 c4 -15 22 -44 39 -64 55 -61 122 -152 166 -227 44 -74 71
-106 71 -84 0 34 -105 199 -202 318 -70 87 -84 97 -74 57z"/>
<path d="M4434 2237 c4 -20 17 -58 29 -84 30 -66 35 -26 7 50 -25 68 -46 87
-36 34z"/>
<path d="M4010 2216 c0 -7 9 -42 21 -77 31 -95 49 -187 49 -251 0 -31 5 -60
11 -64 8 -5 10 24 7 102 -4 88 -11 128 -37 207 -17 53 -36 97 -41 97 -6 0 -10
-6 -10 -14z"/>
<path d="M4494 2063 c11 -28 35 -105 46 -150 16 -62 24 -52 16 19 -8 77 -34
148 -53 148 -10 0 -13 -6 -9 -17z"/>
<path d="M5010 1869 c0 -17 114 -229 123 -229 13 0 -1 38 -56 143 -46 88 -67
116 -67 86z"/>
<path d="M4176 1712 c-10 -31 -23 -212 -15 -212 22 0 40 117 30 190 -6 38 -8
42 -15 22z"/>
<path d="M4590 1656 c0 -37 4 -66 10 -66 6 0 10 26 10 59 0 33 -4 63 -10 66
-6 4 -10 -18 -10 -59z"/>
<path d="M3557 1788 c-10 -35 -20 -76 -23 -93 l-5 -30 20 23 c19 22 51 113 51
146 0 9 -6 16 -13 16 -7 0 -20 -28 -30 -62z"/>
<path d="M3452 1812 c-20 -35 -62 -150 -62 -169 0 -26 27 16 56 89 27 65 31
125 6 80z"/>
<path d="M3272 1699 c-11 -24 -22 -55 -27 -69 -4 -14 -23 -59 -42 -100 -53
-112 -64 -140 -56 -140 21 0 116 181 148 278 12 38 14 57 6 65 -7 7 -16 -2
-29 -34z"/>
<path d="M3478 1594 c-14 -27 -29 -60 -33 -74 -8 -25 -7 -25 13 -6 23 20 56
98 50 116 -2 7 -15 -10 -30 -36z"/>
<path d="M3305 1478 c-91 -185 -105 -218 -95 -218 17 0 170 291 170 325 0 34
-18 8 -75 -107z"/>
<path d="M3130 1162 c-67 -99 -73 -112 -57 -112 13 0 117 152 117 171 0 22
-18 4 -60 -59z"/>
<path d="M2941 904 c-37 -47 -22 -62 19 -19 17 18 21 28 13 36 -7 7 -17 2 -32
-17z"/>
<path d="M2821 759 c-67 -73 -85 -104 -48 -82 16 9 147 150 147 158 0 21 -36
-7 -99 -76z"/>
</g>
</svg>
