<?xml version="1.0" standalone="no"?>
<!DOCTYPE svg PUBLIC "-//W3C//DTD SVG 20010904//EN"
 "http://www.w3.org/TR/2001/REC-SVG-20010904/DTD/svg10.dtd">
<svg version="1.0" xmlns="http://www.w3.org/2000/svg"
 width="736.000000pt" height="736.000000pt" viewBox="0 0 736.000000 736.000000"
 preserveAspectRatio="xMidYMid meet">

<g transform="translate(0.000000,736.000000) scale(0.100000,-0.100000)"
fill="currentColor" stroke="none">
<path d="M2880 7049 c-91 -10 -316 -85 -415 -138 -38 -21 -106 -49 -150 -61
-44 -12 -109 -34 -145 -48 -64 -25 -81 -26 -310 -33 -14 -1 -55 2 -92 6 -61 7
-72 5 -131 -23 -57 -26 -68 -36 -95 -86 -51 -94 -62 -140 -62 -252 0 -184 -41
-249 -188 -304 -123 -46 -177 -75 -229 -123 -52 -48 -71 -83 -106 -192 -14
-44 -40 -116 -59 -160 l-33 -80 1 -170 c1 -261 27 -348 173 -568 39 -59 71
-114 71 -121 0 -23 -51 -35 -403 -96 -210 -36 -267 -60 -343 -142 -27 -30 -64
-84 -82 -120 -19 -36 -49 -87 -68 -113 -48 -68 -73 -142 -84 -252 -8 -76 -7
-106 5 -153 24 -94 16 -280 -20 -437 -13 -56 -12 -67 6 -135 27 -95 72 -184
117 -231 21 -22 71 -59 112 -83 68 -40 80 -44 143 -44 49 0 83 7 126 25 116
48 195 51 244 7 34 -31 21 -75 -48 -157 -60 -71 -115 -160 -136 -221 -29 -83
-25 -142 23 -284 38 -115 46 -130 97 -184 106 -112 209 -160 481 -222 115 -27
324 -35 390 -15 41 13 206 15 214 3 3 -4 -4 -41 -15 -82 -23 -89 -25 -225 -4
-361 18 -120 45 -194 101 -272 91 -130 159 -245 195 -334 71 -172 98 -210 222
-305 118 -91 125 -94 258 -138 l121 -40 45 20 c65 29 165 136 208 223 19 40
44 108 55 152 24 97 51 124 94 92 11 -8 28 -55 47 -126 29 -117 77 -210 122
-242 30 -22 180 -69 217 -69 16 0 51 9 79 19 27 11 100 27 163 36 160 22 233
42 313 84 85 45 273 179 313 224 34 36 184 258 226 333 79 141 146 335 146
423 0 36 5 141 12 234 12 170 20 192 50 148 43 -61 267 -306 306 -335 60 -43
313 -157 413 -185 90 -25 266 -41 343 -30 59 8 168 47 301 109 102 47 421 256
458 300 97 115 197 378 197 520 0 90 -31 191 -87 280 -104 166 -119 230 -75
302 27 43 110 96 193 123 68 22 164 70 207 102 19 14 48 48 66 77 54 84 68
137 73 281 5 114 3 137 -15 185 -43 115 -61 168 -90 260 -55 172 -83 218 -178
290 -32 24 -79 62 -104 83 -58 50 -121 87 -184 107 -27 9 -51 21 -53 26 -1 5
28 29 66 52 37 24 105 77 150 119 69 64 87 88 126 166 l45 92 10 162 c10 163
4 259 -21 333 -33 96 -139 218 -224 256 -27 12 -97 29 -155 38 -183 27 -210
41 -230 118 -16 59 0 106 64 187 121 154 156 222 156 303 0 120 -43 231 -122
314 -129 137 -311 238 -465 259 -27 4 -75 13 -108 20 -33 7 -123 18 -200 25
-130 11 -144 10 -205 -8 -36 -11 -103 -22 -150 -25 -55 -4 -120 -17 -180 -36
-52 -17 -153 -44 -224 -61 -89 -21 -143 -40 -170 -59 -235 -160 -307 -227
-437 -401 -95 -128 -165 -241 -230 -373 -24 -48 -48 -86 -53 -84 -6 2 -20 41
-31 88 -12 46 -31 113 -43 149 -12 36 -28 101 -37 145 -22 117 -39 162 -131
350 -168 344 -268 460 -463 534 -70 26 -90 29 -241 33 -91 3 -199 1 -240 -3z
m309 -70 c73 -31 196 -123 256 -191 26 -30 89 -124 138 -209 50 -85 118 -202
152 -260 34 -59 73 -122 87 -140 14 -19 31 -50 38 -69 7 -19 30 -66 51 -105
56 -104 99 -261 99 -357 0 -65 -7 -97 -40 -193 -41 -120 -79 -295 -103 -479
-16 -116 -21 -126 -73 -126 -17 0 -52 -11 -77 -26 l-46 -25 -17 26 c-12 19
-20 60 -25 137 -14 182 -98 499 -212 798 -44 114 -159 340 -173 340 -8 0 -14
-6 -14 -12 0 -7 38 -89 85 -183 139 -280 237 -596 275 -887 20 -155 19 -188
-4 -188 -28 0 -48 33 -120 190 -41 90 -80 166 -87 169 -8 2 -10 -4 -6 -20 4
-13 12 -51 18 -84 6 -33 25 -97 42 -143 28 -76 29 -87 18 -119 -10 -28 -10
-40 0 -65 12 -29 11 -32 -29 -65 -59 -49 -57 -73 12 -112 34 -19 67 -48 86
-76 35 -51 32 -63 -20 -85 -17 -7 -30 -16 -30 -21 0 -22 -34 -5 -73 35 -23 24
-57 51 -75 60 -39 20 -40 30 -4 61 22 19 25 27 16 42 -18 30 -56 44 -103 40
-23 -3 -50 -12 -60 -21 -15 -16 -14 -20 6 -56 19 -31 21 -44 13 -65 -15 -39
-12 -98 6 -123 8 -12 34 -27 60 -33 41 -11 85 -47 96 -80 6 -17 28 -2 28 18 0
8 -16 38 -36 65 -32 43 -35 52 -26 74 15 32 21 30 57 -15 17 -21 42 -47 57
-57 16 -11 28 -25 28 -33 0 -8 -18 -38 -41 -67 l-40 -53 20 -20 c12 -12 21
-25 21 -29 0 -5 17 -16 38 -24 l38 -15 -1 -72 c-2 -78 -14 -103 -40 -81 -11 9
-13 24 -9 64 8 63 -8 82 -60 73 -56 -9 -72 23 -36 73 l20 28 -31 7 c-17 4 -59
20 -94 37 -46 21 -65 36 -69 53 -9 35 -52 64 -221 149 -218 109 -351 158 -622
228 l-168 43 -390 0 c-214 0 -428 -4 -476 -9 l-85 -9 -47 54 c-98 111 -179
251 -216 370 -60 195 -49 359 38 585 55 142 89 179 284 308 166 109 230 164
260 223 8 15 27 68 42 117 30 99 72 197 111 255 20 31 41 45 100 70 68 29 78
30 113 20 32 -10 48 -9 87 5 27 9 102 25 166 36 164 27 181 32 288 96 252 149
379 187 605 180 68 -2 103 -9 144 -27z m223 -35 c53 -17 149 -100 203 -174 41
-56 215 -391 252 -484 26 -68 28 -86 11 -86 -18 1 -66 75 -130 200 -122 236
-281 449 -403 538 l-30 21 26 1 c14 0 46 -7 71 -16z m2455 -209 c-6 -18 -150
-35 -271 -33 -121 3 -150 13 -104 36 29 14 380 12 375 -3z m-4166 -61 c-39
-35 -62 -68 -95 -138 -24 -50 -49 -108 -55 -128 -22 -66 -34 -45 -29 50 5 96
29 166 76 216 34 35 56 45 111 45 l43 1 -51 -46z m4441 -8 c95 -17 150 -49
227 -132 99 -105 138 -207 127 -327 -5 -60 -4 -68 8 -58 8 7 19 35 26 64 18
82 21 86 35 47 21 -56 18 -111 -10 -167 -15 -28 -33 -57 -40 -63 -13 -11 -15
-7 -15 25 0 52 -16 42 -67 -41 -57 -93 -79 -153 -103 -286 -37 -204 -25 -240
85 -277 37 -12 127 -35 201 -51 154 -34 176 -43 231 -102 147 -160 165 -380
46 -576 -80 -132 -162 -212 -302 -298 -64 -39 -66 -39 -195 -46 -72 -4 -167
-12 -211 -16 -115 -13 -407 -8 -492 8 -63 12 -85 12 -180 -3 -59 -9 -153 -19
-208 -22 -212 -11 -492 -111 -576 -206 l-26 -30 -12 46 c-13 51 -30 63 -69 49
-19 -7 -32 -23 -43 -54 l-17 -45 -80 0 c-115 0 -140 28 -111 125 10 32 8 42
-11 79 l-22 43 26 27 c31 32 32 41 8 41 -10 0 -33 -16 -52 -35 -38 -40 -55
-43 -69 -16 -12 21 11 115 30 127 6 3 9 23 8 44 -2 28 3 45 24 69 19 23 27 44
27 71 0 50 -20 70 -63 64 -28 -5 -35 -1 -57 32 -14 20 -29 43 -34 50 -11 14
38 90 143 227 63 81 71 97 47 97 -27 0 -215 -253 -261 -351 -29 -63 -31 -96
-9 -127 14 -20 21 -22 60 -16 40 6 44 4 44 -14 0 -16 -9 -22 -40 -27 -49 -8
-77 -41 -86 -101 -7 -46 -18 -63 -61 -91 -21 -14 -25 -14 -41 1 -10 8 -33 21
-50 27 -37 13 -45 33 -40 105 l3 49 40 0 40 0 5 -55 c3 -30 9 -55 14 -55 5 0
19 44 31 97 21 92 21 99 5 113 -14 12 -29 14 -68 9 -30 -4 -52 -2 -56 4 -8 13
13 103 60 257 32 105 37 139 44 275 9 174 24 249 75 380 50 131 100 226 154
294 27 34 54 72 61 86 28 53 129 171 259 301 200 200 290 261 466 316 136 43
271 52 481 33 122 -11 158 -11 260 2 152 20 279 21 376 4z m264 -1072 c25 -26
110 -54 163 -54 61 0 184 -30 228 -55 78 -47 219 -269 150 -239 -7 3 -32 32
-57 64 -63 81 -88 96 -215 119 -258 49 -306 67 -331 126 -18 45 -18 60 3 81
16 16 18 16 28 -2 5 -10 20 -28 31 -40z m-2446 -456 c0 -31 -9 -70 -19 -93
l-19 -40 -1 61 c-1 63 14 124 30 124 5 0 9 -24 9 -52z m-290 -385 c17 -22 21
-37 17 -68 -5 -33 -2 -44 19 -66 14 -14 27 -42 31 -62 5 -33 3 -37 -22 -43
-39 -10 -57 5 -77 62 -12 32 -32 60 -58 82 -22 19 -40 40 -40 48 0 7 18 23 39
34 22 11 42 24 46 30 10 16 22 12 45 -17z m-1478 -112 c178 -37 474 -129 591
-184 147 -70 227 -121 227 -146 0 -37 27 -51 99 -51 61 0 69 -2 78 -23 6 -13
31 -34 57 -47 35 -19 47 -32 51 -55 12 -62 28 -120 37 -130 5 -5 14 -1 24 13
8 12 24 22 35 22 27 0 25 -35 -6 -65 -46 -47 -115 -23 -115 39 0 43 -24 74
-75 96 -33 14 -47 28 -61 59 -23 53 -61 57 -95 10 -12 -17 -49 -49 -82 -70
-67 -44 -118 -50 -180 -24 -77 32 -290 55 -513 55 -124 0 -215 -4 -219 -10 -9
-15 73 -32 134 -28 92 7 393 -11 472 -27 41 -8 108 -25 149 -37 66 -19 81 -28
123 -74 72 -80 136 -92 137 -27 0 27 14 36 65 43 27 3 41 11 43 23 3 14 -5 17
-52 17 -58 0 -76 11 -56 35 20 24 78 30 117 11 l36 -17 -7 -55 c-3 -31 -15
-73 -26 -94 -28 -56 -25 -75 21 -125 35 -38 40 -48 34 -74 -5 -22 0 -41 15
-69 18 -32 20 -43 11 -60 -6 -11 -11 -29 -11 -39 1 -14 6 -12 25 12 46 57 55
65 70 65 19 0 33 -32 17 -38 -15 -5 -16 -61 -2 -98 13 -34 -13 -119 -41 -134
-27 -15 -59 3 -52 29 8 31 -43 91 -77 91 -46 0 -141 -41 -150 -64 -22 -62 62
-102 127 -60 22 14 53 19 53 9 0 -3 -10 -19 -22 -35 -21 -29 -21 -30 -3 -50
21 -23 42 -25 96 -8 46 13 56 7 41 -26 -8 -18 -21 -25 -55 -30 -51 -8 -66 -22
-95 -88 -11 -25 -71 -127 -133 -225 -123 -194 -194 -273 -407 -452 -160 -134
-504 -365 -657 -441 -161 -81 -224 -94 -455 -94 -250 -1 -310 12 -478 97 -130
65 -230 143 -273 213 -19 32 -21 45 -16 117 6 107 37 184 103 256 64 71 105
132 132 200 32 78 29 119 -12 173 l-35 45 -112 7 c-85 6 -127 4 -173 -7 -81
-20 -176 -37 -207 -37 -37 0 -140 53 -182 94 -66 66 -79 103 -90 271 l-10 150
37 149 c34 134 39 172 51 372 14 245 16 252 85 310 156 132 345 223 552 264
57 11 117 25 135 31 18 6 121 21 230 33 163 19 253 24 514 25 278 1 328 -1
411 -18z m1660 -40 c-6 -54 -19 -81 -41 -81 -24 0 -41 28 -41 69 0 34 22 52
60 48 22 -2 25 -6 22 -36z m-224 -95 c4 -17 -14 -46 -28 -46 -13 0 -18 24 -9
48 10 26 32 25 37 -2z m566 3 c30 -23 33 -47 10 -90 -14 -27 -19 -30 -57 -27
-39 3 -42 5 -45 34 -2 18 4 48 12 68 17 42 40 46 80 15z m-3634 3 c0 -11 -163
-122 -179 -122 -35 0 21 56 99 99 56 31 80 38 80 23z m3178 -63 c2 -13 -96
-99 -115 -99 -15 0 10 67 34 93 30 30 76 34 81 6z m-190 -61 c19 -24 24 -74 8
-87 -11 -9 -18 -7 -35 15 -24 30 -27 54 -9 72 15 15 23 15 36 0z m267 -64 c18
-11 35 -14 65 -9 56 10 64 -15 19 -61 -40 -41 -57 -43 -61 -7 -4 38 -49 50
-132 36 -37 -6 -65 -7 -71 -1 -16 14 15 28 65 28 25 0 54 7 64 15 24 18 22 18
51 -1z m395 -10 c11 -13 9 -20 -17 -45 -25 -25 -36 -30 -69 -27 l-39 3 39 43
c40 44 65 52 86 26z m2343 -10 c124 -21 161 -31 201 -56 174 -106 337 -271
302 -305 -3 -4 -23 9 -44 29 -49 46 -114 89 -186 121 -32 15 -73 40 -91 55
-18 16 -68 42 -111 57 -172 61 -268 101 -272 113 -6 18 28 15 201 -14z m-368
-10 c80 -10 198 -40 241 -61 21 -11 64 -28 94 -38 87 -28 171 -65 215 -95 22
-15 74 -44 115 -65 99 -51 223 -174 268 -265 55 -111 77 -314 51 -455 -15 -81
-64 -181 -114 -231 -36 -35 -52 -43 -116 -57 -41 -9 -95 -18 -122 -22 -33 -4
-69 -21 -120 -55 -75 -50 -86 -64 -112 -139 -14 -40 -14 -46 5 -88 10 -24 22
-59 26 -78 5 -26 21 -48 63 -84 71 -62 108 -128 120 -217 23 -157 -44 -353
-161 -477 -28 -29 -68 -77 -91 -107 -123 -165 -176 -208 -309 -250 -198 -63
-442 -78 -647 -40 -58 11 -133 25 -166 31 -115 20 -274 120 -420 264 -99 97
-194 249 -358 575 -60 118 -144 268 -188 333 -44 65 -105 164 -134 220 -50 94
-56 102 -94 113 -23 7 -43 8 -46 3 -8 -12 36 -94 94 -174 135 -184 248 -370
338 -554 104 -212 103 -210 103 -375 0 -77 5 -170 11 -206 19 -117 14 -245
-16 -345 -54 -186 -135 -345 -209 -413 -80 -74 -596 -401 -701 -445 -93 -39
-209 -67 -275 -67 -82 0 -104 21 -134 126 -25 88 -100 236 -138 270 -26 25
-83 45 -128 46 -45 1 -71 -29 -141 -163 -97 -189 -189 -260 -311 -244 -93 13
-257 63 -289 88 -34 26 -122 162 -193 297 -24 47 -67 120 -94 163 -47 73 -52
87 -76 215 -30 165 -43 288 -51 484 -6 175 -22 153 170 226 234 89 345 148
535 283 128 90 178 142 265 273 93 142 113 184 164 335 46 135 59 164 102 228
28 40 30 41 60 30 26 -10 32 -9 40 6 6 10 28 25 50 34 44 17 59 38 59 81 0 16
10 42 22 57 12 16 29 42 38 59 8 17 23 32 32 34 24 5 29 -40 20 -177 l-7 -115
-25 37 c-30 44 -42 46 -76 11 -20 -19 -24 -31 -19 -52 9 -37 31 -69 61 -89 26
-16 27 -16 45 6 11 13 19 34 19 47 0 26 7 29 43 15 17 -7 30 -6 42 3 29 21 17
122 -19 169 -23 30 -27 43 -22 71 4 19 14 37 22 40 27 10 80 7 124 -9 37 -13
46 -13 64 -2 27 18 76 3 76 -22 0 -9 -14 -27 -31 -40 -27 -20 -30 -27 -24 -59
5 -33 2 -41 -28 -71 -55 -52 -71 -41 -77 51 -6 84 -12 97 -34 79 -12 -10 -12
-19 -1 -62 9 -32 12 -76 8 -118 -7 -82 9 -138 43 -153 31 -14 48 0 70 58 9 24
19 44 22 44 2 0 20 -14 39 -31 42 -36 60 -35 90 10 30 44 29 79 -3 160 -30 74
-29 133 2 196 22 44 35 46 48 8 4 -16 21 -45 37 -65 28 -36 29 -40 18 -83 -10
-40 -9 -48 6 -65 10 -11 26 -22 36 -25 31 -10 22 -25 -15 -25 -62 0 -105 -80
-69 -128 32 -43 70 -37 110 18 86 120 104 130 159 88 51 -38 124 -111 185
-185 59 -71 112 -113 143 -113 11 0 -10 27 -57 73 -93 91 -187 216 -187 248 0
14 6 34 14 44 13 19 20 14 118 -81 110 -107 267 -229 395 -306 95 -57 113 -65
113 -47 -1 8 -33 34 -72 59 -162 103 -287 199 -392 300 -61 60 -119 122 -129
139 l-18 30 26 7 c32 8 55 40 55 77 0 45 -35 103 -70 115 -16 6 -35 23 -42 37
-10 23 -9 33 12 71 13 25 37 55 53 66 30 21 31 22 95 5 75 -20 94 -33 90 -59
-2 -14 -22 -26 -71 -42 -37 -13 -72 -27 -78 -33 -13 -13 14 -71 37 -80 21 -8
68 14 100 48 15 16 35 29 43 29 21 1 42 18 70 58 22 31 26 33 66 27 52 -8 60
6 44 71 -18 71 -76 92 -94 35 -5 -16 -12 -19 -39 -14 -22 3 -42 -1 -59 -12
-24 -16 -28 -15 -71 4 -77 33 -72 71 9 71 l39 0 -21 22 c-13 12 -40 24 -65 27
-37 5 -43 9 -43 31 0 20 7 26 38 33 21 5 53 5 75 0 32 -7 39 -15 52 -52 14
-39 14 -44 -3 -56 -15 -11 -16 -14 -2 -25 13 -11 20 -10 43 7 15 11 38 36 51
57 21 31 29 36 51 31 41 -9 65 25 65 91 0 29 -5 58 -11 64 -21 21 -55 0 -75
-47 -16 -37 -22 -44 -37 -37 -9 5 -53 10 -97 11 -115 5 -125 8 -125 42 0 28 1
28 71 35 42 4 87 2 111 -5 59 -15 81 8 86 95 5 77 1 73 157 138 202 83 299
107 445 109 41 0 95 4 120 8 52 9 630 5 705 -5z m-2372 -60 c6 -10 18 -24 26
-31 14 -10 13 -15 -11 -40 -31 -33 -35 -48 -13 -56 14 -6 26 8 80 88 20 29 24
30 97 31 l77 0 -24 -40 c-21 -36 -30 -42 -67 -46 -34 -4 -44 -9 -46 -26 -6
-39 25 -57 86 -50 44 5 58 3 82 -14 34 -24 56 -25 104 -5 46 19 49 2 7 -39
-21 -21 -34 -26 -54 -21 -13 4 -27 3 -30 -3 -10 -16 34 -92 57 -98 19 -5 21
-11 21 -72 l-1 -67 -45 2 c-24 1 -58 4 -74 8 -47 10 -142 -30 -195 -83 -25
-24 -63 -51 -84 -58 -35 -13 -41 -12 -57 2 -16 14 -22 14 -72 0 -65 -19 -87
-41 -87 -89 0 -24 -5 -37 -13 -37 -18 0 -54 40 -59 65 -3 15 -10 19 -31 17
-55 -6 -82 31 -57 78 7 13 6 21 -5 30 -23 19 -18 48 7 52 13 2 24 11 27 23 10
52 166 235 201 235 10 0 21 9 25 20 10 32 -3 42 -35 25 -70 -36 -119 7 -69 61
26 27 18 44 -22 44 -40 0 -37 12 12 43 51 34 69 34 100 1 43 -46 56 -48 100
-20 58 39 50 57 -13 31 -20 -8 -59 42 -41 53 23 15 85 5 96 -14z m497 -46 c0
-17 -51 -88 -62 -88 -6 0 -23 9 -39 21 -25 17 -38 20 -75 14 -35 -5 -45 -3
-50 10 -15 37 38 57 90 34 19 -9 34 -8 68 4 54 19 68 20 68 5z m-4084 -95 c-3
-21 -5 -90 -6 -153 0 -121 -9 -155 -32 -132 -9 9 -13 48 -13 130 0 123 15 192
42 192 11 0 13 -8 9 -37z m4342 -48 c33 -27 52 -31 69 -14 6 6 17 8 23 4 28
-17 -49 -42 -150 -48 -33 -3 -39 34 -11 62 27 27 33 26 69 -4z m-145 -17 c8
-11 4 -24 -11 -46 -30 -41 -28 -62 8 -75 36 -14 39 -38 8 -67 -31 -29 -51 -25
-73 16 -11 20 -30 40 -43 45 -16 6 -22 14 -18 27 4 10 -1 27 -9 38 -21 28 -19
31 24 37 21 2 49 15 61 27 23 23 38 23 53 -2z m-1183 -184 c0 -48 -6 -54 -26
-26 -17 21 -18 54 -2 70 18 18 28 4 28 -44z m1070 -45 c0 -13 -29 -31 -46 -27
-29 5 -39 32 -24 67 l13 32 28 -33 c15 -18 28 -36 29 -39z m-190 -104 c28 -33
-16 -84 -46 -53 -16 16 -16 18 0 42 19 30 29 32 46 11z m238 -41 c3 -30 -30
-94 -48 -94 -21 0 -15 100 8 118 23 18 37 10 40 -24z m-103 -24 c0 -22 -5 -25
-37 -28 -44 -4 -47 3 -16 35 28 30 53 26 53 -7z m-315 -64 c35 -16 37 -57 6
-110 -33 -56 -50 -70 -81 -62 -33 9 -32 28 5 49 56 33 59 67 11 111 -12 11
-21 23 -21 28 0 10 42 1 80 -16z m-506 -32 c56 -31 63 -41 43 -61 -27 -28
-107 19 -107 63 0 30 7 30 64 -2z m225 -94 c-13 -36 -34 -54 -54 -46 -21 8
-19 17 16 54 35 38 52 34 38 -8z m429 18 c-4 -30 -50 -47 -74 -28 -15 13 -13
16 22 31 52 23 56 23 52 -3z m212 -8 c49 -25 60 -45 60 -110 0 -28 5 -60 10
-71 8 -13 7 -25 -1 -40 -9 -18 -17 -20 -47 -14 -58 10 -78 29 -116 110 -41 86
-38 106 17 130 18 8 33 14 35 15 1 0 20 -9 42 -20z m-852 -122 c-5 -32 -13
-58 -17 -58 -13 0 -60 80 -55 93 2 7 17 20 32 29 41 26 53 7 40 -64z m722 -3
c38 -67 38 -87 -2 -120 l-32 -27 -9 28 c-12 37 -26 54 -53 64 -14 6 -24 21
-30 47 -12 57 -12 56 31 69 48 14 55 10 95 -61z m-3188 -432 c16 -27 15 -30
-24 -113 -29 -61 -60 -105 -109 -157 -60 -63 -71 -81 -89 -145 -12 -40 -24
-79 -26 -86 -7 -22 -27 -8 -36 24 -5 16 -6 47 -3 69 8 51 83 186 137 245 69
76 98 129 98 179 0 41 1 43 18 28 9 -9 24 -28 34 -44z m5758 31 c0 -3 -18 -26
-40 -51 -24 -28 -42 -59 -46 -82 -9 -57 -13 -66 -26 -53 -5 5 -10 30 -10 54 1
38 6 48 51 90 44 43 71 59 71 42z m-3706 -183 c8 -12 -130 -250 -184 -318 -49
-61 -170 -166 -267 -231 -118 -79 -352 -191 -488 -233 -72 -22 -65 -22 -65 -6
0 6 54 43 120 80 127 73 318 203 435 296 97 77 364 331 400 380 31 41 40 48
49 32z m3676 -889 c0 -23 -82 -133 -110 -147 -42 -22 -47 -14 -19 32 48 78
129 150 129 115z m-4766 -108 c3 -9 6 -68 6 -132 1 -64 6 -155 13 -202 13 -86
12 -170 -3 -170 -17 0 -50 114 -61 208 -10 88 -6 250 7 295 7 21 30 22 38 1z
m3616 -306 c84 -19 120 -22 305 -20 208 2 210 1 187 -17 -28 -25 -143 -51
-219 -51 -131 0 -394 62 -407 96 -8 20 22 18 134 -8z m-1168 -675 c-30 -42
-57 -64 -190 -152 -117 -78 -227 -131 -273 -131 -38 0 -14 24 77 78 49 30 154
93 234 142 157 96 183 106 152 63z m-1125 -5 c62 -68 125 -278 83 -278 -24 0
-81 108 -104 197 -26 101 -20 125 21 81z m-347 -270 c0 -20 -107 -117 -137
-124 -18 -5 -49 0 -93 16 -103 36 -103 40 1 37 l97 -2 58 42 c64 45 74 49 74
31z"/>
<path d="M2220 6406 c0 -8 17 -21 39 -29 21 -9 60 -30 87 -46 64 -41 87 -41
48 0 -26 29 -138 89 -164 89 -5 0 -10 -6 -10 -14z"/>
<path d="M2430 6282 c0 -11 36 -44 73 -67 39 -25 35 -1 -7 41 -32 32 -66 45
-66 26z"/>
<path d="M2546 6191 c-4 -6 26 -47 66 -91 212 -236 292 -337 382 -482 27 -43
52 -78 57 -78 48 0 -156 296 -348 505 -132 144 -149 160 -157 146z"/>
<path d="M2790 6132 c0 -16 40 -56 48 -48 3 4 -6 19 -21 34 -15 14 -27 21 -27
14z"/>
<path d="M2929 5932 c5 -9 19 -26 30 -36 27 -25 28 -1 2 32 -23 27 -46 30 -32
4z"/>
<path d="M1840 5695 c0 -3 36 -23 79 -45 44 -22 114 -60 156 -85 73 -43 105
-54 105 -37 -1 23 -272 172 -315 172 -14 0 -25 -2 -25 -5z"/>
<path d="M2086 5673 c-13 -13 -4 -21 65 -62 83 -47 115 -54 80 -17 -27 29
-135 88 -145 79z"/>
<path d="M3350 5573 c0 -9 11 -47 24 -83 14 -36 38 -114 55 -174 16 -59 33
-111 36 -114 11 -11 24 22 19 48 -14 61 -78 258 -95 292 -22 43 -39 57 -39 31z"/>
<path d="M3070 5513 c0 -12 11 -35 25 -50 23 -27 24 -27 25 -6 0 12 -11 35
-25 50 -23 27 -24 27 -25 6z"/>
<path d="M2200 5490 c10 -19 77 -70 92 -70 21 0 4 32 -31 59 -46 37 -78 42
-61 11z"/>
<path d="M2462 5395 c37 -34 58 -44 58 -26 0 15 -60 61 -78 61 -12 0 -6 -11
20 -35z"/>
<path d="M2310 5411 c0 -5 30 -37 67 -70 45 -42 70 -58 77 -51 5 5 8 11 5 12
-2 2 -32 29 -66 61 -58 54 -83 68 -83 48z"/>
<path d="M2690 5181 c0 -6 11 -23 25 -38 23 -26 24 -26 25 -7 0 11 -8 28 -18
37 -21 19 -32 22 -32 8z"/>
<path d="M2570 5165 c1 -24 186 -219 200 -210 15 9 -15 46 -114 145 -63 62
-86 79 -86 65z"/>
<path d="M2780 4932 c0 -13 49 -75 78 -99 58 -48 49 -17 -18 60 -39 44 -60 58
-60 39z"/>
<path d="M2574 4901 c4 -6 34 -29 66 -51 92 -62 106 -48 20 20 -38 30 -99 53
-86 31z"/>
<path d="M2900 4790 c0 -14 140 -190 151 -190 19 0 7 30 -34 86 -67 91 -117
135 -117 104z"/>
<path d="M2780 4762 c0 -13 49 -56 56 -49 4 4 1 14 -6 22 -17 21 -50 38 -50
27z"/>
<path d="M2950 4598 c0 -18 98 -148 111 -148 15 0 10 14 -20 61 -36 57 -91
109 -91 87z"/>
<path d="M4860 5685 c-35 -37 -14 -44 23 -7 22 22 27 32 16 32 -9 0 -26 -11
-39 -25z"/>
<path d="M4550 5373 c-15 -20 -18 -29 -9 -32 13 -4 49 33 49 50 0 17 -19 9
-40 -18z"/>
<path d="M5365 5347 c-45 -26 -57 -46 -22 -40 30 6 83 48 71 56 -6 3 -27 -4
-49 -16z"/>
<path d="M4275 5280 c-10 -11 -13 -20 -8 -20 13 0 38 29 31 35 -3 3 -13 -4
-23 -15z"/>
<path d="M5248 5283 c-15 -10 -30 -23 -32 -30 -9 -23 23 -14 56 17 36 33 21
41 -24 13z"/>
<path d="M4454 5258 c-53 -58 -67 -78 -61 -84 11 -11 47 17 77 60 16 25 30 47
30 50 0 14 -18 3 -46 -26z"/>
<path d="M5129 5201 c-13 -11 -20 -23 -16 -27 10 -10 59 16 65 34 6 18 -23 14
-49 -7z"/>
<path d="M6220 5214 c-8 -1 -41 -6 -73 -9 -32 -4 -56 -9 -53 -12 10 -10 175
-13 181 -4 5 8 -27 34 -37 30 -2 -1 -10 -3 -18 -5z"/>
<path d="M5055 5149 c-22 -11 -50 -48 -42 -56 5 -5 67 24 67 31 0 3 3 11 6 20
7 18 -2 19 -31 5z"/>
<path d="M5890 5153 c-14 -3 -56 -17 -95 -33 -38 -15 -88 -34 -109 -41 -44
-16 -66 -46 -25 -34 68 19 279 101 279 108 0 7 -8 7 -50 0z"/>
<path d="M4097 5058 c-28 -38 -43 -78 -29 -78 11 0 72 87 72 102 0 18 -20 6
-43 -24z"/>
<path d="M4931 5051 c-37 -35 -42 -57 -8 -40 28 14 67 50 67 61 0 17 -29 7
-59 -21z"/>
<path d="M5549 5011 c-36 -29 -18 -33 26 -6 32 19 36 24 19 25 -12 0 -32 -9
-45 -19z"/>
<path d="M4776 4923 c-41 -38 -106 -102 -143 -143 -38 -41 -88 -95 -111 -120
l-42 -45 -26 33 c-25 32 -26 32 -55 15 -47 -28 -65 -115 -33 -161 34 -49 94
-14 156 91 29 51 86 118 197 230 86 87 158 160 160 163 2 2 -3 4 -12 4 -9 0
-50 -30 -91 -67z"/>
<path d="M4029 4943 c-29 -32 -42 -64 -31 -75 7 -7 17 3 32 32 24 46 23 71 -1
43z"/>
<path d="M5390 4920 c-40 -21 -100 -80 -81 -80 26 0 131 73 131 92 0 12 -11 9
-50 -12z"/>
<path d="M5228 4792 c-18 -17 -30 -33 -26 -37 3 -3 21 7 40 23 18 17 30 33 26
37 -3 3 -21 -7 -40 -23z"/>
<path d="M4568 4524 c-50 -15 -54 -22 -84 -146 -14 -60 18 -99 62 -75 29 16
34 28 34 80 0 44 3 49 35 68 38 23 53 53 35 74 -15 18 -21 18 -82 -1z"/>
<path d="M4612 4318 c-20 -20 -14 -35 27 -67 44 -35 57 -37 89 -15 27 18 29
55 4 77 -22 20 -102 23 -120 5z"/>
<path d="M2175 4270 c-4 -6 -5 -13 -4 -14 6 -5 280 -36 317 -36 31 0 42 13 21
25 -5 4 -67 11 -137 15 -70 5 -141 12 -158 16 -20 4 -34 2 -39 -6z"/>
<path d="M1671 4009 c-66 -13 -75 -29 -17 -29 48 0 86 13 86 30 0 11 -8 11
-69 -1z"/>
<path d="M1871 3984 c-147 -25 -229 -45 -292 -69 -48 -19 -136 -49 -195 -66
-121 -35 -200 -71 -172 -77 10 -2 64 12 120 32 131 44 289 90 398 115 80 18
115 24 311 52 67 9 510 7 604 -3 21 -2 30 1 30 12 0 32 -64 39 -335 39 -257 0
-271 -2 -469 -35z"/>
<path d="M1501 3964 c-63 -17 -70 -21 -49 -29 21 -8 130 24 123 36 -7 11 -7
11 -74 -7z"/>
<path d="M1061 3830 c-55 -20 -67 -27 -60 -34 6 -6 121 33 134 45 15 15 -15
10 -74 -11z"/>
<path d="M2960 3823 c-26 -10 -60 -46 -60 -64 0 -24 35 -42 65 -35 26 7 85 53
85 66 0 29 -50 47 -90 33z"/>
<path d="M2480 3759 c-95 -10 -285 -37 -314 -46 -10 -3 -14 -9 -9 -14 4 -4 63
-2 133 6 69 7 207 19 308 26 171 12 204 18 166 33 -21 8 -180 5 -284 -5z"/>
<path d="M3047 3725 c-9 -8 -21 -32 -28 -52 -6 -21 -25 -54 -40 -73 -32 -39
-40 -97 -14 -106 31 -12 62 7 122 75 61 67 62 70 51 103 -21 63 -59 86 -91 53z"/>
<path d="M2759 3303 c-40 -58 -141 -176 -188 -217 -19 -17 -68 -64 -110 -104
-182 -177 -310 -265 -588 -406 -156 -80 -197 -106 -160 -106 6 0 39 12 72 26
33 14 85 36 115 49 156 66 391 186 396 202 14 45 31 66 83 105 80 59 314 291
371 368 50 68 69 113 51 124 -5 4 -24 -15 -42 -41z"/>
<path d="M2823 3247 c-11 -17 -31 -51 -42 -75 -12 -23 -58 -83 -103 -133 -80
-89 -95 -120 -40 -80 81 57 221 250 222 304 0 26 -13 21 -37 -16z"/>
<path d="M2215 2919 c-37 -33 -40 -45 -8 -35 22 7 69 66 54 66 -6 0 -26 -14
-46 -31z"/>
<path d="M5045 3865 c-44 -7 -85 -14 -92 -14 -18 -1 -45 -33 -36 -42 4 -4 35
-2 68 6 125 29 262 40 500 39 245 -1 333 -11 458 -51 64 -21 86 -3 25 20 -114
43 -172 49 -513 52 -243 3 -351 0 -410 -10z"/>
<path d="M5090 3742 l-35 -17 140 -7 c77 -3 169 -9 205 -13 96 -9 56 11 -49
25 -47 6 -108 16 -134 21 -66 12 -86 11 -127 -9z"/>
<path d="M4556 3350 c-18 -22 -26 -43 -26 -70 0 -51 20 -67 58 -45 28 17 30
17 97 -19 64 -34 105 -45 105 -28 0 4 -32 25 -71 47 -83 47 -90 54 -98 103 -8
48 -31 52 -65 12z"/>
<path d="M4890 3133 c0 -11 136 -78 178 -87 53 -12 37 1 -50 43 -93 44 -128
56 -128 44z"/>
<path d="M3254 3059 c-7 -8 -19 -46 -28 -86 -29 -130 -17 -149 24 -37 23 64
26 150 4 123z"/>
<path d="M3292 2928 c-7 -7 -12 -38 -12 -70 0 -62 -43 -282 -66 -337 -17 -40
-17 -41 -5 -41 14 0 68 148 86 235 20 99 31 225 18 225 -5 0 -14 -5 -21 -12z"/>
<path d="M3660 2883 c0 -5 9 -44 19 -88 10 -44 22 -108 26 -143 8 -75 25 -92
25 -25 -1 107 -37 263 -61 263 -5 0 -9 -3 -9 -7z"/>
<path d="M4950 2851 c0 -17 100 -97 168 -135 91 -51 113 -42 32 13 -36 25 -91
64 -122 88 -55 42 -78 52 -78 34z"/>
<path d="M3537 2778 c2 -29 8 -83 14 -120 5 -37 9 -124 9 -195 0 -70 5 -135
10 -143 14 -21 13 465 0 491 -21 39 -37 22 -33 -33z"/>
<path d="M3965 2821 c-2 -5 18 -43 45 -85 84 -129 139 -252 204 -462 36 -114
105 -436 106 -491 0 -18 5 -33 11 -33 17 0 5 165 -21 290 -60 290 -128 474
-247 671 -61 102 -86 129 -98 110z"/>
<path d="M3464 2671 c3 -5 7 -79 9 -165 3 -100 8 -161 16 -169 8 -8 11 -6 11
8 1 11 3 78 6 148 6 133 -3 187 -33 187 -8 0 -12 -4 -9 -9z"/>
<path d="M5259 2640 c13 -11 31 -20 40 -20 12 1 11 5 -8 20 -13 11 -31 20 -40
20 -12 -1 -11 -5 8 -20z"/>
<path d="M3466 2192 c-4 -64 -16 -155 -27 -202 -16 -67 -49 -261 -49 -285 0
-3 4 -5 8 -5 10 0 47 157 67 283 20 123 30 313 18 320 -7 4 -13 -36 -17 -111z"/>
<path d="M4160 2166 c0 -23 22 -66 31 -60 9 5 -8 61 -22 70 -5 3 -9 -2 -9 -10z"/>
<path d="M4232 1905 c0 -16 2 -22 5 -12 2 9 2 23 0 30 -3 6 -5 -1 -5 -18z"/>
<path d="M3797 4033 c-27 -26 16 -93 59 -93 32 0 37 14 14 43 -11 14 -20 32
-20 41 0 16 -40 23 -53 9z"/>
<path d="M3640 3909 c-58 -23 -57 -53 3 -116 38 -40 31 -67 -15 -61 -36 6
-132 -22 -154 -44 -21 -21 -10 -56 20 -64 12 -3 45 -4 72 -2 42 3 49 6 52 25
4 27 48 44 82 31 33 -12 57 -5 108 32 51 38 46 58 -8 30 -57 -29 -74 -27 -67
10 5 24 2 32 -16 41 -34 18 -37 31 -15 62 34 48 -2 80 -62 56z"/>
</g>
</svg>
