<?xml version="1.0" standalone="no"?>
<!DOCTYPE svg PUBLIC "-//W3C//DTD SVG 20010904//EN"
 "http://www.w3.org/TR/2001/REC-SVG-20010904/DTD/svg10.dtd">
<svg version="1.0" xmlns="http://www.w3.org/2000/svg"
 width="96.000000pt" height="96.000000pt" viewBox="0 0 96.000000 96.000000"
 preserveAspectRatio="xMidYMid meet">

<g transform="translate(0.000000,96.000000) scale(0.100000,-0.100000)"
fill="currentColor" stroke="none">
<path d="M428 881 c-16 -13 -39 -20 -67 -19 -43 0 -91 -30 -91 -59 0 -7 -18
-24 -40 -38 -44 -28 -64 -66 -55 -103 4 -15 -1 -32 -15 -49 -25 -32 -26 -73
-1 -105 13 -16 20 -39 19 -67 0 -23 5 -48 11 -54 8 -8 -4 -27 -50 -73 -77 -77
-76 -91 11 -118 l65 -21 21 -65 c14 -45 26 -66 38 -68 13 -3 50 27 112 89 l94
94 94 -94 c62 -62 99 -92 112 -89 12 2 24 23 38 68 l21 65 65 21 c87 27 88 41
11 118 -46 46 -58 65 -50 73 6 6 11 31 11 54 -1 28 6 51 19 67 25 32 24 73 -1
105 -14 17 -19 34 -15 49 9 37 -11 75 -55 103 -22 14 -40 31 -40 38 0 29 -48
59 -91 59 -28 -1 -51 6 -67 19 -14 10 -37 19 -52 19 -15 0 -38 -9 -52 -19z
m88 -62 c12 -14 29 -20 54 -19 56 3 58 2 70 -34 8 -26 20 -38 45 -46 39 -13
44 -23 37 -67 -3 -23 2 -40 17 -59 26 -33 26 -46 0 -70 -14 -12 -20 -29 -19
-54 3 -56 2 -58 -34 -70 -26 -8 -38 -20 -46 -45 -13 -39 -23 -44 -66 -38 -23
4 -41 -1 -63 -18 l-31 -23 -31 23 c-22 17 -40 22 -63 18 -43 -6 -53 -1 -66 38
-8 25 -20 37 -46 45 -36 12 -37 14 -34 70 1 25 -5 42 -19 54 -26 24 -26 37 0
70 15 19 20 36 17 59 -7 44 -2 54 37 67 25 8 37 20 45 46 12 36 14 37 70 34
25 -1 42 5 54 19 11 12 27 21 36 21 9 0 25 -9 36 -21z m-219 -538 c18 -21 29
-26 67 -25 25 0 46 -2 46 -5 0 -3 -26 -32 -57 -63 l-58 -58 -16 47 c-14 44
-19 49 -63 62 l-47 15 43 43 c38 39 44 42 53 27 6 -9 20 -29 32 -43z m446 -42
c-42 -14 -48 -20 -62 -62 l-16 -47 -58 58 c-31 31 -57 61 -57 66 0 4 13 5 28
1 42 -9 80 10 104 51 l21 35 44 -43 44 -43 -48 -16z"/>
</g>
</svg>
