<?xml version="1.0" standalone="no"?>
<!DOCTYPE svg PUBLIC "-//W3C//DTD SVG 20010904//EN"
 "http://www.w3.org/TR/2001/REC-SVG-20010904/DTD/svg10.dtd">
<svg version="1.0" xmlns="http://www.w3.org/2000/svg"
 width="500.000000pt" height="500.000000pt" viewBox="0 0 500.000000 500.000000"
 preserveAspectRatio="xMidYMid meet">

<g transform="translate(0.000000,500.000000) scale(0.100000,-0.100000)"
fill="currentColor" stroke="none">
<path d="M2390 4785 c-61 -17 -1777 -975 -1846 -1031 -53 -42 -101 -117 -125
-195 -18 -58 -19 -107 -19 -1059 0 -971 1 -1000 20 -1063 30 -96 92 -174 181
-229 41 -25 448 -255 904 -511 645 -362 845 -470 895 -483 78 -20 172 -15 245
13 57 22 1753 973 1803 1011 51 39 110 128 132 200 19 62 20 95 20 1062 0 971
-1 1000 -20 1063 -30 96 -92 174 -181 230 -148 90 -1705 961 -1754 980 -67 26
-185 31 -255 12z m370 -1114 c164 -37 328 -114 465 -216 75 -57 228 -212 223
-227 -2 -4 -100 -64 -218 -132 l-214 -124 -58 54 c-37 33 -93 70 -151 98 -206
101 -412 101 -617 0 -79 -39 -110 -62 -181 -133 -71 -71 -94 -102 -133 -181
-101 -206 -101 -414 0 -620 39 -79 62 -110 133 -181 72 -72 102 -94 181 -132
208 -102 411 -102 617 -1 58 28 114 65 151 98 l58 54 214 -124 c118 -68 216
-128 218 -132 5 -15 -148 -170 -223 -227 -140 -105 -314 -184 -485 -221 -114
-25 -373 -25 -478 -1 -245 56 -436 160 -608 331 -169 169 -279 371 -330 606
-26 118 -26 362 0 480 51 235 161 437 330 606 198 196 414 302 711 348 66 10
312 -4 395 -23z m940 -771 l0 -100 100 0 100 0 0 100 0 100 100 0 100 0 0
-100 0 -100 100 0 100 0 0 -100 0 -100 -100 0 -100 0 0 -100 0 -100 100 0 100
0 0 -100 0 -100 -100 0 -100 0 0 -100 0 -100 -100 0 -100 0 0 100 0 100 -100
0 -100 0 0 -100 0 -100 -100 0 -100 0 0 100 0 100 -100 0 -100 0 0 100 0 100
100 0 100 0 0 100 0 100 -100 0 -100 0 0 100 0 100 100 0 100 0 0 100 0 100
100 0 100 0 0 -100z"/>
<path d="M3700 2500 l0 -100 100 0 100 0 0 100 0 100 -100 0 -100 0 0 -100z"/>
</g>
</svg>
