<?xml version="1.0" standalone="no"?>
<!DOCTYPE svg PUBLIC "-//W3C//DTD SVG 20010904//EN"
 "http://www.w3.org/TR/2001/REC-SVG-20010904/DTD/svg10.dtd">
<svg version="1.0" xmlns="http://www.w3.org/2000/svg"
 width="500.000000pt" height="500.000000pt" viewBox="60 60 380.000000 380.000000"
 preserveAspectRatio="xMidYMid meet">

<g transform="translate(0.000000,500.000000) scale(0.100000,-0.100000)"
fill="currentColor" stroke="none">
<path d="M804 4343 c4 -32 72 -796 151 -1697 79 -901 147 -1641 149 -1644 3
-2 318 -94 701 -203 l695 -199 695 199 c383 109 698 201 701 203 2 3 70 743
149 1644 79 901 147 1665 151 1697 l6 57 -1702 0 -1702 0 6 -57z m2602 -820
c-5 -61 -116 -1846 -116 -1866 0 -3 -177 -64 -394 -137 l-394 -131 -396 131
c-225 75 -396 136 -396 143 0 7 -7 125 -15 262 -8 138 -15 256 -15 263 0 9 46
12 199 12 l198 0 9 -127 9 -126 203 -68 203 -68 197 66 c108 36 200 69 204 72
6 5 37 382 38 449 0 1 -198 2 -439 2 l-439 0 -6 100 c-3 55 -9 145 -12 200
l-6 100 461 0 c362 0 461 3 461 13 0 6 7 93 15 192 8 99 15 183 15 188 0 4
-310 7 -690 7 -545 0 -690 3 -690 13 0 6 -7 91 -15 187 -8 96 -15 181 -15 188
0 9 190 12 916 12 l916 0 -6 -77z"/>
</g>
</svg>
