<?xml version="1.0" encoding="iso-8859-1"?>
<!-- Generator: Adobe Illustrator 22.1.0, SVG Export Plug-In . SVG Version: 6.00 Build 0)  -->
<svg version="1.1" id="Layer_1" xmlns="http://www.w3.org/2000/svg" xmlns:xlink="http://www.w3.org/1999/xlink" x="0px" y="0px"
	 viewBox="0 0 48 48" style="enable-background:new 0 0 48 48;" xml:space="preserve">
<path style="fill:none;stroke:currentColor;stroke-width:3;stroke-linejoin:round;stroke-miterlimit:10;" d="M34.475,19.475
	C33.792,20.158,32.896,20.5,32,20.5s-1.792-0.342-2.475-1.025c-1.367-1.366-1.367-3.583,0-4.949l6.867-6.867
	C34.917,6.924,33.26,6.5,31.5,6.5c-6.075,0-11,4.925-11,11c0,1.571,0.335,3.063,0.929,4.415L8.671,34.672
	c-1.562,1.562-1.562,4.095,0,5.656C9.453,41.109,10.476,41.5,11.5,41.5s2.047-0.391,2.829-1.172l12.757-12.757
	c1.352,0.594,2.843,0.929,4.415,0.929c6.075,0,11-4.925,11-11c0-1.76-0.424-3.417-1.158-4.892L34.475,19.475z"/>
</svg>