<?xml version="1.0" encoding="utf-8"?>
<svg height="800px" width="800px" version="1.1" id="_x32_" xmlns="http://www.w3.org/2000/svg" viewBox="0 0 512 512" xmlns:bx="https://boxy-svg.com">
  <defs>
    <bx:export>
      <bx:file format="svg" path="Sem título.svg" excluded="true"/>
    </bx:export>
  </defs>
  <style type="text/css">
	.st0{fill:currentColor;}
</style>
  <g>
    <path class="st0" d="M 274.363 357.553 C 274.049 357.553 254.434 358.848 254.322 359.023 C 254.259 359.12 199.271 479.829 199.096 480.075 C 198.876 480.385 171.987 444.311 172.082 444.349 C 172.424 444.485 125.434 447.267 125.521 447.221 C 125.641 447.157 175.309 342.746 175.262 342.841 C 175.091 343.188 160.735 337.241 160.702 337.186 C 160.625 337.057 151.476 355.574 151.505 355.607 L 100.968 464.75 L 163.782 462.871 L 202.972 512.001 L 255.996 397.456 L 264.164 379.79 C 264.185 379.74 274.458 357.553 274.363 357.553 Z"/>
    <path class="st0" d="M 353.658 340.525 C 353.315 340.217 334.799 343.085 334.789 343.107 C 334.501 343.763 384.276 446.482 384.247 446.403 C 384.169 446.19 339.8 445.759 339.74 446.14 C 339.725 446.236 312.583 480.809 312.939 480.848 C 313.317 480.89 263.568 370.772 263.436 370.646 L 253.294 391.437 L 264.357 415.491 L 309.028 512 L 348.239 462.87 L 411.054 464.749 L 360.495 355.578 C 360.532 355.715 353.845 340.692 353.658 340.525 Z"/>
    <path class="st0" d="M 413.955 227.462 C 417.807 213.062 441.132 200.742 441.132 185.128 C 441.132 169.521 417.807 157.201 413.955 142.802 C 409.975 127.902 423.895 105.577 416.357 92.543 C 408.696 79.315 382.341 80.266 371.601 69.525 C 360.86 58.805 361.817 32.436 348.583 24.769 C 335.555 17.237 313.223 31.157 298.331 27.177 C 283.952 23.34 271.611 0 255.996 0 C 240.41 0 228.069 23.34 213.669 27.177 C 198.791 31.157 176.466 17.237 163.411 24.769 C 150.205 32.437 151.133 58.805 140.414 69.525 C 129.681 80.266 103.304 79.315 95.658 92.543 C 88.105 105.577 102.046 127.902 98.066 142.802 C 94.207 157.201 70.868 169.521 70.868 185.128 C 70.868 200.742 94.207 213.062 98.066 227.462 C 102.046 242.361 88.105 264.686 95.658 277.721 C 103.304 290.949 129.681 289.991 140.414 300.731 C 145.352 305.669 147.804 313.901 150.311 322.084 C 152.434 329.058 154.599 336.004 158.323 340.878 C 159.752 342.765 161.424 344.344 163.411 345.488 C 176.445 353.027 198.791 339.106 213.669 343.087 C 222.873 345.537 231.227 355.929 240.125 363.139 C 245.149 367.205 250.373 370.263 255.996 370.263 C 261.627 370.263 266.844 367.205 271.889 363.139 C 280.621 356.079 288.825 345.945 297.786 343.259 C 297.958 343.195 298.158 343.13 298.33 343.088 C 313.222 339.107 335.554 353.028 348.582 345.489 C 350.575 344.345 352.27 342.745 353.698 340.858 C 361.794 330.225 362.487 309.829 371.599 300.732 C 382.339 289.991 408.695 290.949 416.355 277.722 C 423.895 264.686 409.974 242.361 413.955 227.462 Z M 396.371 271.533 C 392.043 279.847 367.968 275.971 357.974 285.538 C 348.92 294.206 349.567 323.005 338.414 327.953 C 326.125 333.404 304.109 322.105 292.914 324.567 C 281.983 326.971 270.168 349.533 256.905 349.348 C 241.174 349.129 230.015 327.809 216.823 324.072 C 204.713 320.641 180.477 335.4 169.876 327.798 C 161.512 321.801 163.388 297.775 154.316 286.98 C 146.833 278.076 114.2 276.441 110.941 267.949 C 107.183 258.159 120.113 236.454 116.127 224.982 C 112.161 213.565 91.331 193.655 91.149 184.541 C 90.999 177.051 115.698 162.85 117.605 148.387 C 118.956 138.146 110.695 115.174 116.124 103.986 C 120.888 94.169 147.899 96.791 155.387 87.01 C 161.784 78.655 162.78 52.823 172.207 46.279 C 181.015 40.165 209.266 50.106 221.508 46.87 C 233.359 43.738 245.931 19.31 255.086 19.001 C 261.336 18.79 283.059 42.269 295.598 45.733 C 308.284 49.238 323.645 35.524 333.938 40.841 C 346.285 47.219 348.544 70.357 356.24 79.063 C 365.756 89.827 393.079 90.159 398.006 104.952 C 401.962 116.83 392.104 134.952 393.452 146.759 C 395.011 160.407 419.459 170.025 419.386 184.862 C 419.355 191.077 396.591 212.65 394.851 223.666 C 393.088 234.826 400.548 263.508 396.371 271.533 Z"/>
    <ellipse style="paint-order: fill; fill: rgba(216, 216, 216, 0); stroke-width: 17px; stroke: currentColor;" cx="256.001" cy="185.233" rx="114.643" ry="116.059"/>
  </g>
</svg>