<?xml version="1.0" standalone="no"?>
<!DOCTYPE svg PUBLIC "-//W3C//DTD SVG 20010904//EN"
 "http://www.w3.org/TR/2001/REC-SVG-20010904/DTD/svg10.dtd">
<svg version="1.0" xmlns="http://www.w3.org/2000/svg"
 width="256.000000pt" height="256.000000pt" viewBox="-12 -12 280.000000 280.000000"
 preserveAspectRatio="xMidYMid meet">

<g transform="translate(0.000000,256.000000) scale(0.100000,-0.100000)"
fill="currentColor" stroke="none">
<path d="M104 2456 c-33 -33 -34 -36 -34 -113 l0 -79 148 -13 c619 -51 1173
-341 1565 -819 142 -175 281 -417 362 -637 70 -187 113 -395 131 -632 l7 -93
69 0 c66 0 72 2 104 34 l35 35 -3 453 -3 453 -67 135 c-80 163 -151 277 -266
430 -100 133 -339 377 -462 472 -196 151 -434 290 -638 371 l-92 37 -411 0
-411 0 -34 -34z"/>
<path d="M1820 2460 c19 -16 80 -65 136 -108 135 -107 271 -238 379 -368 50
-59 105 -123 122 -143 l32 -36 1 309 0 308 -34 34 -34 34 -319 -1 -318 0 35
-29z"/>
<path d="M70 1683 l0 -190 84 -6 c263 -21 526 -116 737 -267 110 -78 299 -271
368 -375 96 -146 175 -330 212 -490 6 -27 16 -102 23 -165 l11 -115 198 -3
197 -2 0 89 c0 196 -70 463 -179 686 -217 441 -610 785 -1072 939 -159 52
-286 76 -441 83 l-138 6 0 -190z"/>
<path d="M70 624 l0 -486 34 -34 34 -34 496 0 496 0 0 44 c0 164 -95 420 -213
573 -93 121 -245 247 -382 315 -111 56 -312 108 -416 108 l-49 0 0 -486z"/>
</g>
</svg>
