<?xml version="1.0" standalone="no"?>
<!DOCTYPE svg PUBLIC "-//W3C//DTD SVG 20010904//EN"
 "http://www.w3.org/TR/2001/REC-SVG-20010904/DTD/svg10.dtd">
<svg version="1.0" xmlns="http://www.w3.org/2000/svg"
 width="512.000000pt" height="512.000000pt" viewBox="0 0 512.000000 512.000000"
 preserveAspectRatio="xMidYMid meet">

<g transform="translate(0.000000,512.000000) scale(0.100000,-0.100000)"
fill="currentColor" stroke="none">
<path d="M2495 5103 c-36 -19 -2400 -1499 -2432 -1522 -32 -23 -63 -84 -63
-122 0 -38 31 -96 64 -119 11 -8 131 -84 266 -168 135 -84 246 -156 247 -160
2 -4 -90 -65 -205 -136 -323 -202 -336 -211 -355 -251 -23 -48 -21 -93 4 -135
27 -43 13 -33 309 -218 135 -84 246 -156 247 -160 2 -4 -90 -65 -205 -136
-323 -202 -336 -211 -355 -251 -9 -20 -17 -50 -17 -66 0 -37 32 -97 63 -120
38 -27 2400 -1505 2434 -1523 41 -20 85 -20 126 0 34 18 2396 1496 2434 1523
31 23 63 83 63 120 0 16 -8 46 -17 66 -19 40 -32 49 -355 251 -115 71 -207
132 -205 136 1 4 112 76 247 160 296 185 282 175 309 218 25 42 27 87 4 135
-19 40 -32 49 -355 251 -115 71 -207 132 -205 136 1 4 112 76 247 160 135 84
255 160 266 168 33 23 64 81 64 119 0 38 -31 99 -63 122 -38 27 -2400 1505
-2434 1523 -40 20 -89 20 -128 -1z m1135 -980 c577 -362 1050 -660 1050 -663
0 -9 -2105 -1314 -2120 -1314 -15 0 -2120 1305 -2120 1314 0 11 2116 1330
2127 1325 7 -2 485 -300 1063 -662z m-1963 -1784 c433 -270 805 -499 825 -510
51 -26 94 -24 153 9 28 16 392 241 810 502 418 260 767 478 776 483 13 8 62
-18 233 -124 119 -73 216 -136 216 -139 -1 -9 -2105 -1314 -2120 -1314 -15 0
-2119 1305 -2120 1314 0 6 421 269 432 270 3 0 361 -221 795 -491z m0 -900
c433 -270 805 -499 825 -510 51 -26 94 -24 153 9 28 16 392 241 810 502 418
260 767 478 776 483 13 8 61 -17 233 -124 119 -74 216 -136 216 -139 0 -9
-2105 -1324 -2120 -1324 -15 0 -2120 1315 -2120 1324 0 6 422 270 432 270 3 0
361 -221 795 -491z"/>
</g>
</svg>
