<?xml version="1.0" encoding="utf-8"?>
<svg xmlns="http://www.w3.org/2000/svg" viewBox="0 -0.044 18.565 18.477">
  <path fill="#fe0000" d="M 11.399 9.686 L 10.369 9.664 L 10.369 8.607 L 11.44 8.608 L 11.441 6.422 L 10.45 6.423 L 10.45 5.216 L 11.499 5.216 L 11.499 3.216 L 12.499 3.216 L 12.499 2.216 L 14.499 2.216 L 14.499 1.216 L 16.499 1.216 L 16.499 2.216 L 17.499 2.216 L 17.499 3.216 L 18.499 3.216 L 18.499 11.216 L 16.499 11.216 L 16.499 13.216 L 14.499 13.216 L 14.499 15.216 L 12.499 15.216 L 12.499 17.216 L 10.443 17.17 L 10.421 13.119 L 11.421 13.096 L 11.399 9.686 Z" style="stroke-opacity: 0.23;"/>
  <path fill="#fe0000" d="M 1.978 1.194 L 3.978 1.194 L 3.978 2.194 L 5.978 2.194 L 5.978 3.194 L 6.978 3.194 L 6.978 5.194 L 7.961 5.207 L 7.965 6.401 L 8.961 6.418 L 8.948 8.563 L 7.931 8.58 L 7.919 9.642 L 8.914 9.646 L 8.92 13.075 L 7.879 13.079 L 7.884 17.193 L 5.978 17.194 L 5.978 15.194 L 3.978 15.194 L 3.978 13.194 L 1.978 13.194 L 1.978 11.194 L -0.022 11.194 L -0.022 3.194 L 0.978 3.194 L 0.978 2.194 L 1.978 2.194 L 1.978 1.194 Z" style="stroke-width: 1;"/>
</svg>