<?xml version="1.0" standalone="no"?>
<!DOCTYPE svg PUBLIC "-//W3C//DTD SVG 20010904//EN"
 "http://www.w3.org/TR/2001/REC-SVG-20010904/DTD/svg10.dtd">
<svg version="1.0" xmlns="http://www.w3.org/2000/svg"
 width="100.000000pt" height="100.000000pt" viewBox="0 0 100.000000 100.000000"
 preserveAspectRatio="xMidYMid meet">

<g transform="translate(0.000000,100.000000) scale(0.100000,-0.100000)"
fill="currentColor" stroke="none">
<path d="M445 975 c-57 -56 -4 -160 71 -141 92 23 78 166 -16 166 -19 0 -40
-9 -55 -25z"/>
<path d="M313 827 c-65 -37 -93 -67 -62 -67 15 0 137 69 145 82 18 29 -19 22
-83 -15z"/>
<path d="M555 810 c-4 -6 3 -27 14 -46 12 -19 21 -37 21 -40 0 -2 -74 -4 -165
-4 -140 0 -165 -2 -165 -15 0 -13 26 -15 175 -15 l175 0 20 -32 c11 -18 20
-37 20 -43 0 -8 -281 -177 -319 -193 -4 -1 -31 41 -61 93 -30 52 -57 95 -61
95 -23 0 -15 -30 30 -109 28 -49 51 -93 51 -98 0 -5 -11 -15 -25 -21 -14 -6
-25 -15 -25 -20 0 -19 14 -21 43 -6 31 17 32 17 58 -28 9 -16 5 -18 -36 -18
-39 0 -46 -3 -43 -18 2 -13 15 -18 58 -20 54 -3 56 -4 79 -47 13 -25 27 -45
32 -45 19 0 19 23 0 55 l-20 35 162 2 c145 3 162 5 165 21 3 16 -10 17 -172
17 l-176 0 -20 33 c-11 17 -20 37 -20 42 0 7 278 175 320 193 3 1 30 -41 60
-93 30 -52 57 -95 61 -95 23 0 15 30 -30 109 -28 49 -51 93 -51 98 0 5 11 15
25 21 14 6 25 16 25 21 0 19 -20 22 -42 7 -30 -21 -31 -21 -51 14 l-18 30 45
0 c34 0 46 4 46 15 0 11 -13 15 -54 15 l-55 0 -27 50 c-27 50 -38 59 -49 40z"/>
<path d="M85 765 c-53 -52 -18 -135 56 -135 45 0 79 34 79 79 0 42 -38 81 -80
81 -19 0 -40 -9 -55 -25z"/>
<path d="M805 765 c-53 -52 -18 -135 56 -135 45 0 79 34 79 79 0 42 -38 81
-80 81 -19 0 -40 -9 -55 -25z"/>
<path d="M125 577 c-3 -7 -5 -47 -3 -88 2 -58 6 -74 18 -74 12 0 15 16 15 84
0 59 -4 86 -12 88 -7 3 -15 -2 -18 -10z"/>
<path d="M845 577 c-3 -7 -5 -47 -3 -88 2 -58 6 -74 18 -74 12 0 15 16 15 84
0 59 -4 86 -12 88 -7 3 -15 -2 -18 -10z"/>
<path d="M82 347 c-47 -50 -10 -137 58 -137 69 0 107 91 57 138 -32 30 -87 29
-115 -1z"/>
<path d="M802 347 c-47 -50 -10 -137 58 -137 69 0 107 91 57 138 -32 30 -87
29 -115 -1z"/>
<path d="M240 227 c0 -17 143 -98 154 -87 13 13 0 26 -68 64 -69 39 -86 43
-86 23z"/>
<path d="M667 199 c-37 -22 -66 -46 -64 -52 6 -16 19 -12 93 30 35 21 64 43
64 50 0 21 -22 15 -93 -28z"/>
<path d="M465 158 c-52 -28 -62 -92 -20 -133 50 -51 135 -15 135 57 -1 37 -14
59 -47 76 -27 15 -42 15 -68 0z"/>
</g>
</svg>
