<?xml version="1.0" standalone="no"?>
<!DOCTYPE svg PUBLIC "-//W3C//DTD SVG 20010904//EN"
 "http://www.w3.org/TR/2001/REC-SVG-20010904/DTD/svg10.dtd">
<svg version="1.0" xmlns="http://www.w3.org/2000/svg"
 width="500.000000pt" height="500.000000pt" viewBox="0 0 500.000000 500.000000"
 preserveAspectRatio="xMidYMid meet">

<g transform="translate(0.000000,500.000000) scale(0.100000,-0.100000)"
fill="currentColor" stroke="none">
<path d="M504 4790 c-33 -13 -54 -50 -54 -94 0 -86 351 -3970 361 -3987 5 -11
20 -25 32 -33 12 -8 390 -119 839 -247 l818 -233 817 233 c450 128 828 239
840 247 12 8 27 23 32 33 10 18 361 3900 361 3988 0 30 -7 50 -24 70 l-24 28
-1989 2 c-1107 1 -1997 -2 -2009 -7z m3223 -922 c-3 -13 -13 -121 -23 -240
l-18 -218 -936 0 c-515 0 -939 -2 -941 -5 -3 -3 35 -472 41 -502 0 -2 403 -3
895 -3 l896 0 -7 -62 c-3 -35 -34 -373 -67 -753 l-62 -690 -502 -152 -502
-152 -503 153 -503 152 -21 244 c-12 135 -25 273 -28 308 l-7 62 246 0 245 0
0 -22 c0 -38 20 -211 24 -216 8 -7 521 -113 551 -113 31 0 533 105 541 114 3
2 16 125 29 273 13 148 27 290 30 317 l6 47 -851 0 c-672 0 -851 3 -855 13 -2
6 -31 325 -64 707 -34 382 -64 710 -67 728 l-5 32 1232 0 1231 0 -5 -22z"/>
</g>
</svg>
